<svg width="151" height="150" viewBox="0 0 151 150" fill="none" xmlns="http://www.w3.org/2000/svg">
<g clip-path="url(#clip0_693_2567)">
<path d="M136.832 10.0202L109.78 0.963676C106.181 -0.25856 102.292 -0.33457 98.6479 0.746121L53.9806 13.0038L26.7365 1.44851C23.9034 0.266696 20.8225 -0.197468 17.767 0.097217C14.7115 0.391901 11.776 1.43632 9.22108 3.13778C6.66612 4.83924 4.5707 7.14512 3.1208 9.85077C1.67089 12.5564 0.911336 15.5782 0.909546 18.6478L0.909546 135.22L50.5246 149.399L100.382 136.967L150.109 149.075V27.866C150.107 23.8598 148.814 19.9609 146.423 16.7468C144.031 13.5326 140.668 11.174 136.832 10.0202ZM94.1476 14.8188V125.679L56.8524 135.003V24.6896L94.1476 14.8188ZM13.3413 18.6478C13.3434 17.6243 13.5983 16.617 14.0832 15.7157C14.5682 14.8143 15.2683 14.0466 16.1213 13.4808C16.9743 12.915 17.9538 12.5686 18.9728 12.4724C19.9918 12.3762 21.0189 12.5331 21.9627 12.9292L44.4206 22.2592V134.723L13.3413 125.847V18.6478ZM137.659 133.206L106.579 125.635V13.0038L133.152 21.8925C134.45 22.2638 135.592 23.0475 136.405 24.1252C137.218 25.2029 137.658 26.516 137.659 27.866V133.206Z" fill="white"/>
</g>
<defs>
<clipPath id="clip0_693_2567">
<rect width="149.181" height="149.181" fill="white" transform="translate(0.909668)"/>
</clipPath>
</defs>
</svg>
