<svg width="24" height="25" viewBox="0 0 24 25" fill="none" xmlns="http://www.w3.org/2000/svg">
<circle cx="12" cy="12.5" r="12" fill="#6B4EFF"/>
<path d="M17.8333 12.5C17.8333 15.7217 15.2217 18.3333 12 18.3333M17.8333 12.5C17.8333 9.27834 15.2217 6.66667 12 6.66667M17.8333 12.5H19.5M12 18.3333C8.77834 18.3333 6.16667 15.7217 6.16667 12.5M12 18.3333V20M6.16667 12.5C6.16667 9.27834 8.77834 6.66667 12 6.66667M6.16667 12.5H4.5M12 6.66667V5M14.5 12.5C14.5 13.8807 13.3807 15 12 15C10.6193 15 9.5 13.8807 9.5 12.5C9.5 11.1193 10.6193 10 12 10C13.3807 10 14.5 11.1193 14.5 12.5Z" stroke="white" stroke-width="1.5" stroke-linecap="round" stroke-linejoin="round"/>
</svg>
