<svg width="13" height="13" viewBox="0 0 13 13" fill="none" xmlns="http://www.w3.org/2000/svg">
<path id="Vector" d="M11.1613 6.38444C10.8108 5.54344 9.99532 4.99994 9.08432 4.99994H6.91782C6.00682 4.99994 5.19132 5.54344 4.84082 6.38444L4.43932 7.34794C4.14832 8.04594 4.00132 8.78244 4.00132 9.53894C4.00132 10.2694 4.40732 10.9004 5.00132 11.2379V11.4999C5.00132 12.0514 5.44982 12.4999 6.00132 12.4999C6.55282 12.4999 7.00132 12.0514 7.00132 11.4999H9.00132C9.00132 12.0514 9.44982 12.4999 10.0013 12.4999C10.5528 12.4999 11.0013 12.0514 11.0013 11.4999V11.2379C11.5953 10.9004 12.0013 10.2694 12.0013 9.53894C12.0013 8.78244 11.8538 8.04594 11.5633 7.34794L11.1613 6.38444ZM5.76382 6.76944C5.95882 6.30194 6.41132 5.99994 6.91782 5.99994H9.08432C9.59082 5.99994 10.0433 6.30194 10.2383 6.76944L10.5428 7.49994H5.45932L5.76382 6.76944ZM10.0403 10.4999H5.96182C5.43182 10.4999 5.00132 10.0689 5.00132 9.53894C5.00132 9.18594 5.04482 8.83944 5.12182 8.49994H6.00132V8.99994C6.00132 9.27644 6.22532 9.49994 6.50132 9.49994C6.77732 9.49994 7.00132 9.27644 7.00132 8.99994V8.49994H9.00132V8.99994C9.00132 9.27644 9.22532 9.49994 9.50132 9.49994C9.77732 9.49994 10.0013 9.27644 10.0013 8.99994V8.49994H10.8808C10.9578 8.83944 11.0013 9.18594 11.0013 9.53894C11.0013 10.0689 10.5703 10.4999 10.0408 10.4999H10.0403ZM4.49132 2.60194L5.71632 2.49044C5.88182 2.47544 6.01232 2.34494 6.02732 2.17994L6.13882 0.954938C6.15632 0.761438 6.28432 0.595938 6.46682 0.529938C6.64882 0.463938 6.85332 0.508938 6.99032 0.646438L7.79382 1.44994C7.92382 1.57944 8.14932 1.57944 8.27932 1.44994L9.08282 0.646438C9.21982 0.508938 9.42482 0.463938 9.60632 0.529938C9.78882 0.595938 9.91682 0.761438 9.93432 0.954938L10.0458 2.17994C10.0608 2.34494 10.1918 2.47544 10.3568 2.49044L11.5823 2.60194C11.7753 2.61994 11.9413 2.74744 12.0073 2.92994C12.0733 3.11244 12.0278 3.31644 11.8908 3.45394L10.9708 4.37344C10.8733 4.47094 10.7453 4.51944 10.6173 4.51944C10.4893 4.51944 10.3613 4.47044 10.2633 4.37294C10.0683 4.17744 10.0683 3.86094 10.2633 3.66544L10.4283 3.50094L10.2668 3.48644C9.62082 3.42744 9.10932 2.91594 9.05032 2.26994L9.03582 2.10794L8.98682 2.15694C8.46282 2.68094 7.61132 2.68094 7.08732 2.15694L7.03832 2.10794L7.02382 2.26994C6.96482 2.91594 6.45332 3.42744 5.80732 3.48644L5.64532 3.50094L5.80982 3.66594C6.00532 3.86144 6.00532 4.17794 5.80982 4.37294C5.61432 4.56844 5.29832 4.56844 5.10282 4.37294L4.18382 3.45344C4.04682 3.31644 4.00132 3.11194 4.06732 2.92994C4.13332 2.74744 4.29882 2.61994 4.49232 2.60194H4.49132ZM3.51732 7.36244C3.64232 7.89844 3.30782 8.43744 2.77082 8.56294C2.69482 8.58044 2.61882 8.58944 2.54382 8.58944C2.08882 8.58944 1.67682 8.27694 1.56932 7.81644L1.51232 7.57144C1.34282 7.52194 1.17882 7.44944 1.02432 7.35394C0.579321 7.07694 0.268821 6.64444 0.149821 6.13394C-0.0221791 5.39794 -0.046179 4.64644 0.078321 3.90094L0.250321 2.87094C0.400321 1.97244 1.07082 1.25744 1.95832 1.05044L4.06932 0.558938C4.20382 0.527438 4.34082 0.508438 4.47832 0.501938C4.75232 0.490938 4.98782 0.702438 5.00082 0.978438C5.01332 1.25444 4.80032 1.48844 4.52432 1.50094C4.44882 1.50444 4.37232 1.51494 4.29632 1.53244L2.18632 2.02444C1.69332 2.13944 1.32132 2.53644 1.23782 3.03594L1.10732 3.81694L2.88332 3.40294C3.15182 3.33944 3.42132 3.50744 3.48382 3.77644C3.54632 4.04544 3.37982 4.31394 3.11032 4.37694L2.83582 4.44094L2.94932 4.92794C3.01182 5.19694 2.84532 5.46544 2.57582 5.52844C2.53782 5.53744 2.49932 5.54144 2.46182 5.54144C2.23482 5.54144 2.02932 5.38544 1.97532 5.15494L1.86182 4.66794L1.00532 4.86794C1.00732 5.21644 1.04382 5.56394 1.12432 5.90744C1.18282 6.15744 1.33482 6.36994 1.55282 6.50494C1.77132 6.64094 2.02932 6.68344 2.27832 6.62444C2.27882 6.62444 2.27932 6.62444 2.27982 6.62444L2.80382 6.50194C2.93232 6.47144 3.06882 6.49394 3.18132 6.56444C3.29432 6.63444 3.37432 6.74644 3.40432 6.87544L3.51782 7.36294L3.51732 7.36244Z" fill="#595959"/>
</svg>
