<svg width="25" height="24" viewBox="0 0 25 24" fill="none" xmlns="http://www.w3.org/2000/svg">
<g clip-path="url(#clip0_443_14789)">
<path d="M5 9C5.276 9 5.5 8.776 5.5 8.5V7H17.282L17.1 6.363C17.037 6.14 16.966 5.92 16.888 5.701L15.445 1.659C15.091 0.666 14.145 0 13.091 0H4.91C3.856 0 2.91 0.667 2.556 1.659L1.112 5.701C0.706 6.838 0.5 8.026 0.5 9.232V13H2.5V15H5.5V12H1.5V9.232C1.5 8.477 1.589 7.73 1.766 7H4.5V8.5C4.5 8.776 4.724 9 5 9ZM4.5 13V14H3.5V13H4.5ZM3.497 1.995C3.71 1.4 4.278 1 4.91 1H13.09C13.722 1 14.29 1.4 14.503 1.995L15.933 6H2.066L3.497 1.995ZM24.5 18.232C24.5 17.026 24.294 15.838 23.888 14.701L22.445 10.659C22.091 9.666 21.145 9 20.091 9H11.91C10.856 9 9.91 9.667 9.556 10.659L8.113 14.701C7.707 15.838 7.501 17.026 7.501 18.232V22H9.501V24H12.501V22H19.501V24H22.501V22H24.501L24.5 18.232ZM10.497 10.995C10.71 10.4 11.278 10 11.91 10H20.091C20.723 10 21.291 10.4 21.504 10.995L22.934 15H9.066L10.497 10.995ZM11.5 23H10.5V22H11.5V23ZM21.5 23H20.5V22H21.5V23ZM23.5 21H8.5V18.232C8.5 17.477 8.589 16.73 8.766 16H11.5V17.5C11.5 17.776 11.724 18 12 18C12.276 18 12.5 17.776 12.5 17.5V16H19.5V17.5C19.5 17.776 19.724 18 20 18C20.276 18 20.5 17.776 20.5 17.5V16H23.234C23.411 16.73 23.5 17.477 23.5 18.232V21Z" fill="white"/>
</g>
<defs>
<clipPath id="clip0_443_14789">
<rect width="24" height="24" fill="white" transform="translate(0.5)"/>
</clipPath>
</defs>
</svg>
