<svg width="14" height="14" viewBox="0 0 14 14" fill="none" xmlns="http://www.w3.org/2000/svg">
<g id="fi_1549624" clip-path="url(#clip0_592_8028)">
<path id="Vector" d="M9.59979 6.79983C9.59979 8.34618 8.34618 9.59979 6.79983 9.59979C5.25348 9.59979 4 8.34618 4 6.79983C4 5.25348 5.25348 4 6.79983 4C8.34618 4 9.59979 5.25348 9.59979 6.79983Z" fill="#6B4EFF"/>
<path id="Vector_2" d="M13.58 6.57989H12.6439C12.4335 3.78416 10.2115 1.56186 7.4158 1.35115V0.420007C7.4158 0.188023 7.22765 0 6.9958 0C6.76381 0 6.57579 0.188023 6.57579 0.420007V1.35115C3.77993 1.56186 1.55788 3.78416 1.34743 6.57989H0.420007C0.188023 6.57989 0 6.76804 0 6.9999C0 7.23188 0.188023 7.41991 0.420007 7.41991H1.34743C1.55788 10.2156 3.77993 12.4379 6.57566 12.6487V13.58C6.57566 13.812 6.76369 14.0001 6.99567 14.0001C7.22753 14.0001 7.41555 13.812 7.41555 13.58V12.6487C10.2114 12.4381 12.4335 10.2158 12.6439 7.41991H13.58C13.812 7.41991 14.0001 7.23188 14.0001 6.9999C14.0001 6.76804 13.812 6.57989 13.58 6.57989ZM6.99567 11.8297C4.32836 11.8295 2.16617 9.66708 2.16617 6.99977C2.1663 4.33234 4.32875 2.17014 6.99605 2.17014C9.66349 2.17014 11.8258 4.33259 11.8258 6.9999C11.8226 9.66618 9.66195 11.8267 6.99567 11.8297Z" fill="#6B4EFF"/>
</g>
<defs>
<clipPath id="clip0_592_8028">
<rect width="14" height="14" fill="white"/>
</clipPath>
</defs>
</svg>
