<svg width="343" height="341" viewBox="0 0 343 341" fill="none" xmlns="http://www.w3.org/2000/svg">
<path d="M343 295.224H0V295.417H343V295.224Z" fill="#EBEBEB"/>
<path d="M308.632 307.651H285.91V307.844H308.632V307.651Z" fill="#EBEBEB"/>
<path d="M227.217 309.746H221.254V309.939H227.217V309.746Z" fill="#EBEBEB"/>
<path d="M285.223 300.481H272.058V300.674H285.223V300.481Z" fill="#EBEBEB"/>
<path d="M65.6177 301.779H35.9873V301.972H65.6177V301.779Z" fill="#EBEBEB"/>
<path d="M76.07 301.779H71.7256V301.972H76.07V301.779Z" fill="#EBEBEB"/>
<path d="M154.451 305.039H90.1895V305.232H154.451V305.039Z" fill="#EBEBEB"/>
<path d="M162.592 260.793H30.1256C27.9668 260.793 26.21 258.816 26.21 256.386V46.8316C26.21 44.402 27.9668 42.4248 30.1256 42.4248H162.592C164.75 42.4248 166.507 44.402 166.507 46.8316V256.386C166.507 258.816 164.75 260.793 162.592 260.793ZM30.1256 42.6186C28.0608 42.6186 26.3815 44.5085 26.3815 46.8323V256.387C26.3815 258.711 28.0608 260.601 30.1256 260.601H162.592C164.656 260.601 166.335 258.711 166.335 256.387V46.8316C166.335 44.5085 164.656 42.6178 162.592 42.6178L30.1256 42.6186Z" fill="#EBEBEB"/>
<path d="M310.971 260.793H178.506C176.347 260.793 174.591 258.816 174.591 256.386V46.8316C174.591 44.402 176.348 42.4248 178.506 42.4248H310.971C313.131 42.4248 314.887 44.402 314.887 46.8316V256.386C314.887 258.816 313.131 260.793 310.971 260.793ZM178.506 42.6186C176.442 42.6186 174.762 44.5085 174.762 46.8323V256.387C174.762 258.711 176.442 260.601 178.506 260.601H310.971C313.036 260.601 314.715 258.711 314.715 256.387V46.8316C314.715 44.5085 313.036 42.6178 310.971 42.6178L178.506 42.6186Z" fill="#EBEBEB"/>
<path d="M100.747 224.347H51.9014V293.056H100.747C105.471 293.056 109.336 288.706 109.336 283.389V234.014C109.336 228.697 105.47 224.347 100.747 224.347Z" fill="#F0F0F0"/>
<path d="M52.3054 224.347H51.4966C46.7722 224.347 42.9072 228.696 42.9072 234.013V283.389C42.9072 288.706 46.7722 293.055 51.4966 293.055H52.3054C57.0299 293.055 60.8948 288.705 60.8948 283.389V234.013C60.8948 228.697 57.0299 224.347 52.3054 224.347Z" fill="#F5F5F5"/>
<path d="M58.4407 293.056H122.191V249.69H58.4407L58.4407 293.056Z" fill="#F0F0F0"/>
<path d="M53.2043 295.224H168.101C169.074 295.224 169.863 294.336 169.863 293.242V293.056H100.771L51.4434 293.242C51.4434 294.337 52.2316 295.224 53.2043 295.224Z" fill="#E0E0E0"/>
<path d="M103.529 195.839H162.844C169.459 195.839 174.352 201.875 173.772 209.321L169.863 259.495H86.5898L90.4994 209.321C91.0797 201.875 96.9128 195.839 103.529 195.839Z" fill="#E0E0E0"/>
<path d="M94.158 195.839H154.628C160.924 195.839 165.582 201.584 165.029 208.671L161.069 259.495H77.7969L81.7572 208.671C82.3087 201.584 87.8612 195.839 94.158 195.839Z" fill="#F5F5F5"/>
<path d="M63.5506 245.73H114.047C117.034 245.73 119.455 248.456 119.455 251.817V257.305C119.455 260.666 117.034 263.391 114.047 263.391H63.5506C59.2171 263.391 55.7041 259.438 55.7041 254.561C55.7041 249.684 59.2171 245.73 63.5506 245.73Z" fill="#E0E0E0"/>
<path d="M171.315 224.347H122.47V293.056H171.315C176.039 293.056 179.904 288.706 179.904 283.389V234.014C179.904 228.697 176.039 224.347 171.315 224.347Z" fill="#F0F0F0"/>
<path d="M122.874 224.347H122.065C117.341 224.347 113.476 228.696 113.476 234.013V283.389C113.476 288.706 117.341 293.055 122.065 293.055H122.874C127.598 293.055 131.463 288.705 131.463 283.389V234.013C131.463 228.697 127.598 224.347 122.874 224.347Z" fill="#F5F5F5"/>
<path d="M257.26 186.575H210.3V295.225H257.26V186.575Z" fill="#F0F0F0"/>
<path d="M217.32 286.762L217.32 195.038H216.238L216.238 286.762H217.32Z" fill="#E6E6E6"/>
<path d="M250.333 195.038H216.237V196.582H250.333V195.038Z" fill="#E6E6E6"/>
<path d="M305.303 186.575H258.343V295.225H305.303V186.575Z" fill="#F0F0F0"/>
<path d="M305.303 295.224H311.519V186.574H305.303V295.224Z" fill="#E0E0E0"/>
<path d="M265.363 286.761V195.038H264.281V286.761H265.363Z" fill="#E6E6E6"/>
<path d="M258.342 295.224V187.809H257.259V295.224H258.342Z" fill="#E6E6E6"/>
<path d="M298.376 195.038H264.28V196.581H298.376V195.038Z" fill="#E6E6E6"/>
<path d="M255.201 210.612H252.867V234.62H255.201V210.612Z" fill="#E0E0E0"/>
<path d="M262.734 210.612H260.4V234.62H262.734V210.612Z" fill="#E0E0E0"/>
<path d="M292.312 73.2808H52.8818V169.389H292.312V73.2808Z" fill="#E0E0E0"/>
<path d="M290.117 73.2808H50.6875V169.389H290.117V73.2808Z" fill="#F0F0F0"/>
<path d="M282.934 161.305V81.3647L57.87 81.3647V161.305L282.934 161.305Z" fill="#FAFAFA"/>
<path d="M94.4053 161.306L109.322 81.3647H142.244L127.328 161.306H94.4053Z" fill="white"/>
<path d="M141.219 161.306L156.136 81.3647H172.597L157.68 161.306H141.219Z" fill="white"/>
<path d="M241.729 161.306L256.645 81.3647H273.106L258.19 161.306H241.729Z" fill="white"/>
<path d="M171.5 330.091C244.958 330.091 304.508 326.177 304.508 321.349C304.508 316.521 244.958 312.608 171.5 312.608C98.0418 312.608 38.4922 316.521 38.4922 321.349C38.4922 326.177 98.0418 330.091 171.5 330.091Z" fill="#F5F5F5"/>
<path d="M113.882 89.2809C115.61 84.8201 100.297 80.7631 95.6665 94.5091C91.4703 106.967 84.4998 110.143 87.7775 118.767C91.3262 128.106 111.393 129.224 120.107 118.875C127.171 110.486 119.497 106.952 120.488 99.0595C121.479 91.1685 119.395 88.5946 113.882 89.2809Z" fill="#263238"/>
<path d="M85.9847 116.003C85.1883 111.14 86.7915 109.134 88.8213 106.594C90.6728 104.276 92.9778 101.393 94.2394 95.1955C95.2629 90.1695 98.3156 86.8814 102.836 85.9388C107.36 84.9938 112.157 86.6591 113.423 88.7791C113.84 89.4762 113.865 90.2182 113.495 90.8682L112.917 90.4513C113.14 90.0599 113.119 89.6538 112.854 89.2099C111.73 87.3284 107.163 85.8214 102.96 86.6985C99.9654 87.3238 96.1368 89.3349 94.9082 95.3692C93.6062 101.761 91.236 104.727 89.3317 107.111C87.354 109.587 85.925 111.375 86.6597 115.865L85.9847 116.003Z" fill="#263238"/>
<path d="M76.55 112.307L76.1219 110.769C75.8304 109.721 75.3008 108.777 74.5846 108.031L73.2353 106.625C72.3414 105.694 70.9845 105.613 70.0083 106.433L68.5355 107.671C67.407 108.62 67.1854 110.423 68.0429 111.68L68.993 113.073C68.993 113.073 71.2109 117.299 74.4289 118.768L75.1698 118.056C75.1821 118.045 75.1938 118.033 75.2061 118.021C76.6385 116.621 77.1166 114.343 76.55 112.307Z" fill="#FFC3BD"/>
<path d="M103.215 139.11L102.776 139.488L102.42 139.78L101.731 140.321C101.272 140.662 100.811 140.981 100.345 141.286C99.4142 141.897 98.4524 142.434 97.4639 142.93C95.4813 143.897 93.3643 144.65 91.1197 145.055C88.8847 145.487 86.5036 145.516 84.1452 145.102C82.9673 144.89 81.797 144.561 80.6733 144.094C80.3886 143.99 80.1135 143.86 79.8378 143.73L79.4248 143.536L79.219 143.439L78.9912 143.326L78.7066 143.172C77.9835 142.754 77.4491 142.278 77.0622 141.867C76.6513 141.438 76.3597 141.05 76.097 140.674C75.1071 139.206 74.6688 138.009 74.2325 136.853C73.8215 135.705 73.5053 134.615 73.2234 133.541C72.6965 131.387 72.2904 129.312 71.9817 127.232C71.3561 123.074 70.9993 119.005 70.9321 114.804C70.904 113.078 72.1244 111.654 73.6576 111.623C74.8739 111.598 75.9221 112.457 76.3172 113.676L76.3433 113.76C77.5356 117.459 78.6853 121.244 79.8933 124.844C80.5135 126.637 81.1185 128.416 81.8052 130.037C82.1324 130.85 82.4761 131.626 82.8232 132.295C83.1518 132.947 83.5621 133.535 83.6958 133.629C83.7192 133.638 83.7267 133.623 83.6519 133.525C83.5922 133.455 83.4283 133.268 83.1024 133.075L82.9694 133C82.9323 132.98 82.8486 132.945 82.8953 132.961L83.0043 132.991L83.2211 133.053C83.3645 133.095 83.5058 133.142 83.6533 133.166C84.2275 133.318 84.8195 133.354 85.4067 133.404C86.5901 133.471 87.8153 133.302 89.0796 132.971C90.3377 132.622 91.6335 132.119 92.9047 131.445C93.5454 131.124 94.1731 130.745 94.7898 130.361C95.0999 130.17 95.4004 129.966 95.6912 129.766L96.4067 129.266L96.9425 128.892C99.5349 127.081 102.94 127.978 104.549 130.896C106.057 133.631 105.43 137.186 103.215 139.11Z" fill="#FFC3BD"/>
<path d="M115.274 317.981C119.619 316.373 123.277 313.069 122.538 307.271C122.221 304.785 129.305 303.813 129.305 303.813C128.498 311.71 129.378 313.042 130.224 314.861C131.074 316.689 131.017 318.825 129.552 319.022C127.797 319.257 127.402 319.039 125.223 319.365C122.674 319.746 121.021 321.246 115.923 321.246C113.131 321.246 113.88 318.498 115.274 317.981Z" fill="#407BFF"/>
<path d="M128.454 233.626C128.957 194.067 125.699 172.506 125.699 172.506L99.6924 173.963C99.6924 173.963 103.539 210.155 110.367 236.814C112.192 251.12 116.303 275.318 119.15 291.565C123.647 291.053 128.152 290.18 131.613 288.909C132.622 274.632 132.804 253.982 128.454 233.626Z" fill="#407BFF"/>
<path d="M129.015 307.687C129.015 307.687 130.031 300.212 130.715 288.91C127.754 290.181 123.897 291.053 120.049 291.566C121.529 301.436 122.586 307.718 122.586 307.718C123.879 308.427 127.158 308.674 129.015 307.687Z" fill="#FFC3BD"/>
<path d="M117.742 286.834C117.974 288.193 118.6 291.598 119.224 292.791C119.298 292.934 119.426 293.029 119.572 293.05C124.419 293.738 129.265 292.637 131.269 291.652C131.382 291.597 131.466 291.5 131.509 291.371C132.054 289.738 132.253 286.291 132.315 284.84C132.33 284.503 132.063 284.24 131.768 284.306C130.177 284.66 125.334 285.641 118.168 286.223C117.892 286.244 117.689 286.528 117.742 286.834Z" fill="#263238"/>
<path d="M100.046 127.448C96.1912 128.254 90.3102 131.887 90.3102 131.887C90.3102 131.887 87.2163 140.225 90.9207 146.232C94.573 147.2 96.4293 146.41 96.4293 146.41L100.046 127.448Z" fill="#263238"/>
<path opacity="0.2" d="M90.9209 146.232C94.5732 147.2 96.4288 146.41 96.4288 146.41L96.3005 135.157C93.8007 138.916 91.74 142.632 90.9209 146.232Z" fill="black"/>
<path opacity="0.2" d="M128.313 210.286C125.405 202.28 122.276 195.687 121.076 189.665C119.032 206.04 120.637 221.102 128.464 231.895C128.553 223.928 128.478 216.717 128.313 210.286Z" fill="black"/>
<path d="M168.046 273.068L157.667 281.375C149.195 268.953 136.49 249.977 133.417 241.716C125.61 220.755 109.914 174.569 109.914 174.569L130.288 169.245C130.288 169.245 143.144 182.678 151.438 233.371C158.401 244.449 164.246 260.785 168.046 273.068Z" fill="#407BFF"/>
<path d="M167.472 312.443C170.06 306.754 170.095 300.481 167.299 295.541C166.1 293.423 172.199 289.252 172.199 289.252C174.356 296.822 176.108 297.263 177.607 298.434C179.149 299.64 179.256 302.137 177.992 302.995C176.479 304.024 175.896 304.694 174.557 306.658C172.993 308.954 172.118 312.158 169.875 314.136C168.44 315.401 166.338 314.935 167.472 312.443Z" fill="#407BFF"/>
<path d="M173.334 292.72C173.334 292.72 171.541 285.635 168.026 275.02C165.793 277.55 162.599 280.135 159.28 282.386C164.243 290.693 167.87 296.661 167.87 296.661C170.074 295.872 172.004 294.481 173.334 292.72Z" fill="#FFC3BD"/>
<path d="M155.446 279.144C156.156 280.274 157.973 283.086 158.978 283.885C159.098 283.981 159.249 284.008 159.389 283.959C164.058 282.338 168.07 279.088 169.535 277.261C169.618 277.158 169.659 277.03 169.651 276.893C169.549 275.153 168.469 271.919 167.994 270.568C167.883 270.254 167.544 270.139 167.3 270.335C165.98 271.396 161.927 274.536 155.609 278.389C155.367 278.538 155.286 278.89 155.446 279.144Z" fill="#263238"/>
<path d="M94.1615 139C95.0945 145.828 91.4758 151.126 97.0386 154.278C96.1159 159.467 97.488 169.847 99.6921 173.963C102.781 175.851 117.917 173.057 130.288 169.245C130.106 163.303 125.762 151.606 126.969 132.136C127.249 127.622 123.993 123.831 119.974 123.993C118.901 124.036 117.767 124.11 116.61 124.224C112.116 124.67 108.438 125.074 104.561 126.083C103.276 126.417 101.954 126.81 100.695 127.211C96.1503 128.657 93.4433 133.745 94.1615 139Z" fill="#263238"/>
<path d="M102.908 133.772C102.908 133.772 106.78 132.177 108.815 136.092C112.193 133.956 116.953 124.914 116.611 124.224C110.949 125.97 102.908 133.772 102.908 133.772Z" fill="white"/>
<path d="M102.908 133.772C102.908 133.772 99.9635 133.379 99.1348 136.307C99.1636 130.517 102.603 126.878 104.123 126.199C103.612 127.707 102.908 133.772 102.908 133.772Z" fill="white"/>
<path d="M115.122 108.897C114.693 113.408 114.622 120.67 116.611 124.224C116.611 124.224 109.1 130.044 102.908 133.772C100.965 128.715 104.123 126.199 104.123 126.199C107.066 124.926 107.04 120.691 106.641 117.446L115.122 108.897Z" fill="#FFC3BD"/>
<path opacity="0.2" d="M106.638 117.447L111.462 112.583C111.64 113.317 111.565 114.387 111.309 115.312C110.554 117.984 108.566 120.128 106.797 121.293C106.884 120.015 106.787 118.665 106.638 117.447Z" fill="black"/>
<path d="M116.673 100.506C116.024 107.835 115.886 110.953 112.522 114.581C107.461 120.039 99.76 117.535 98.4874 110.135C97.3425 103.474 98.5951 92.6084 104.963 89.9611C111.237 87.3516 117.322 93.1773 116.673 100.506Z" fill="#FFC3BD"/>
<path d="M115.218 105.868C112.874 103.517 113.275 99.4495 114.99 97.4947C116.705 95.5391 119.117 99.5815 119.117 99.5815L115.218 105.868Z" fill="#263238"/>
<path d="M107.294 102.535C107.274 103.133 106.975 103.606 106.628 103.591C106.28 103.575 106.015 103.078 106.036 102.48C106.057 101.881 106.355 101.409 106.703 101.424C107.05 101.44 107.315 101.937 107.294 102.535Z" fill="#263238"/>
<path d="M100.754 102.352C100.734 102.951 100.435 103.423 100.088 103.408C99.7398 103.392 99.475 102.895 99.4963 102.297C99.5169 101.698 99.8153 101.226 100.163 101.241C100.51 101.257 100.775 101.755 100.754 102.352Z" fill="#263238"/>
<path d="M100.315 101.281L99.0527 100.811C99.0527 100.811 99.6688 101.962 100.315 101.281Z" fill="#263238"/>
<path d="M102.362 102.589C102.362 102.589 101.371 105.124 100.335 106.323C101.011 107.092 102.216 106.807 102.216 106.807L102.362 102.589Z" fill="#ED847E"/>
<path d="M105.195 109.152C104.918 109.195 104.62 109.213 104.301 109.199C104.215 109.195 104.148 109.114 104.15 109.016C104.154 108.92 104.225 108.845 104.313 108.847C106.644 108.951 107.799 107.164 107.81 107.146C107.86 107.067 107.958 107.048 108.028 107.104C108.098 107.16 108.115 107.27 108.065 107.349C108.021 107.42 107.092 108.86 105.195 109.152Z" fill="#263238"/>
<path d="M117.761 106.65C117.143 108.038 116.099 108.891 115.126 109.165C113.663 109.578 112.986 107.764 113.437 105.958C113.843 104.333 115.094 102.16 116.54 102.56C117.965 102.954 118.467 105.063 117.761 106.65Z" fill="#FFC3BD"/>
<path d="M113.299 90.0707C108.129 93.7378 102.608 95.539 98.1085 96.1829C98.0674 90.9068 107.264 84.9876 113.299 90.0707Z" fill="#263238"/>
<path d="M109.768 90.7137C108.7 95.3459 119.333 103.812 117.332 112.009C120.819 105.897 118.304 92.1559 118.304 92.1559C118.304 92.1559 109.292 85.7596 109.768 90.7137Z" fill="#263238"/>
<path d="M108.664 98.5986C108.582 98.5831 108.506 98.5322 108.456 98.4496C107.673 97.1526 106.524 97.1626 106.511 97.1626C106.341 97.1649 106.196 97.0121 106.192 96.8175C106.189 96.6237 106.326 96.4631 106.499 96.4593C106.559 96.4585 108.001 96.4446 108.973 98.0543C109.07 98.2149 109.032 98.4334 108.89 98.543C108.821 98.5947 108.74 98.6125 108.664 98.5986Z" fill="#263238"/>
<path d="M97.8584 98.3376C97.7809 98.336 97.7034 98.3013 97.6444 98.2349C97.5223 98.0975 97.5223 97.8751 97.6437 97.7377C98.8641 96.3619 100.279 96.6762 100.339 96.6908C100.508 96.731 100.616 96.917 100.58 97.107C100.545 97.2969 100.38 97.4181 100.211 97.3795C100.156 97.3664 99.0562 97.1402 98.0855 98.2341C98.0238 98.3059 97.9408 98.3399 97.8584 98.3376Z" fill="#263238"/>
<path d="M106.855 101.464L105.593 100.994C105.593 100.994 106.209 102.144 106.855 101.464Z" fill="#263238"/>
<path opacity="0.2" d="M126.805 135.902C126.673 140.474 126.847 144.582 127.172 148.241C123.723 144.162 119.43 136.468 119.15 132.608L126.805 135.902Z" fill="black"/>
<path d="M149.202 121.378L149.955 116.475L156.722 119.416C156.722 119.416 155.155 123.98 152.267 125.996L151.463 125.423C150.155 124.491 149.324 123.003 149.202 121.378Z" fill="#FFC3BD"/>
<path d="M154.179 113.746L156.401 115.106C157.415 115.726 157.795 117.15 157.252 118.295L156.722 119.416L149.955 116.475L151.561 114.309C152.203 113.442 153.299 113.207 154.179 113.746Z" fill="#FFC3BD"/>
<path d="M125.602 126.98L126.46 127.982L127.401 129.052C128.042 129.758 128.678 130.471 129.337 131.151C130.639 132.532 131.989 133.818 133.335 135.009C134.69 136.174 136.064 137.226 137.384 138.017C138.707 138.801 139.96 139.292 140.877 139.423L139.033 139.809C138.579 140.052 138.607 140.16 138.704 140.08C138.805 140.014 138.999 139.83 139.21 139.596C139.637 139.116 140.119 138.434 140.585 137.701C141.516 136.212 142.465 134.52 143.352 132.77C144.261 131.024 145.139 129.213 146.02 127.386L148.664 121.886L148.686 121.841C149.417 120.321 151.104 119.755 152.454 120.577C153.52 121.226 154.057 122.552 153.876 123.826C153.558 126.049 153.131 128.151 152.648 130.29C152.159 132.418 151.595 134.531 150.945 136.651C150.269 138.761 149.551 140.886 148.557 143.048C148.054 144.135 147.505 145.236 146.754 146.414C146.374 147.007 145.938 147.617 145.344 148.268C144.748 148.905 144.004 149.652 142.675 150.298C142.172 150.542 141.65 150.665 141.134 150.679L140.83 150.684C137.795 150.747 135.201 149.894 132.96 148.827C131.836 148.287 130.771 147.694 129.765 147.055C128.767 146.404 127.811 145.72 126.891 145.01C125.053 143.59 123.371 142.037 121.774 140.417C120.982 139.597 120.201 138.773 119.456 137.904C119.082 137.472 118.709 137.035 118.344 136.584C117.968 136.116 117.647 135.707 117.213 135.13C115.235 132.503 115.526 128.57 117.86 126.345C120.098 124.212 123.402 124.424 125.414 126.759L125.602 126.98Z" fill="#FFC3BD"/>
<path d="M120.277 124.002C125.303 124.175 130.307 130.97 130.307 130.97C130.307 130.97 128.368 139.962 122.86 143.839C119.762 141.118 117.134 138.944 117.134 138.944C112.748 131.696 114.208 126.887 120.277 124.002Z" fill="#263238"/>
<path d="M98.687 173.426C99.0568 175.848 99.5034 177.743 99.6467 178.326C99.6776 178.451 99.7483 178.551 99.8491 178.614C100.584 179.074 103.931 180.903 110.074 180.527C116.97 180.106 126.999 175.909 132.223 171.406C132.379 171.271 132.435 171.034 132.357 170.829C131.916 169.667 131.262 168.472 130.948 167.925C130.843 167.742 130.644 167.661 130.459 167.723C128.21 168.484 114.045 173.058 99.1213 172.858C98.8503 172.855 98.6411 173.126 98.687 173.426Z" fill="#407BFF"/>
<path opacity="0.3" d="M98.687 173.426C99.0568 175.848 99.5034 177.743 99.6467 178.326C99.6776 178.451 99.7483 178.551 99.8491 178.614C100.584 179.074 103.931 180.903 110.074 180.527C116.97 180.106 126.999 175.909 132.223 171.406C132.379 171.271 132.435 171.034 132.357 170.829C131.916 169.667 131.262 168.472 130.948 167.925C130.843 167.742 130.644 167.661 130.459 167.723C128.21 168.484 114.045 173.058 99.1213 172.858C98.8503 172.855 98.6411 173.126 98.687 173.426Z" fill="white"/>
<path d="M236.168 298.321H145.85C138.728 298.321 133.243 291.764 133.661 283.749L144.671 72.4755C145.089 64.4602 151.258 57.9026 158.38 57.9026H248.698C255.82 57.9026 261.304 64.4602 260.887 72.4747L249.876 283.748C249.459 291.764 243.29 298.321 236.168 298.321Z" fill="#407BFF"/>
<path opacity="0.8" d="M236.168 298.321H145.85C138.728 298.321 133.243 291.764 133.661 283.749L144.671 72.4755C145.089 64.4602 151.258 57.9026 158.38 57.9026H248.698C255.82 57.9026 261.304 64.4602 260.887 72.4747L249.876 283.748C249.459 291.764 243.29 298.321 236.168 298.321Z" fill="white"/>
<path d="M235.633 294.094H147.833C142.828 294.094 138.973 289.486 139.267 283.853L150.229 73.5023C150.523 67.8695 154.858 63.2605 159.863 63.2605H247.663C252.668 63.2605 256.523 67.8688 256.23 73.5023L245.267 283.853C244.973 289.486 240.638 294.094 235.633 294.094Z" fill="#407BFF"/>
<path d="M234.686 292.963H146.885C141.88 292.963 138.025 288.354 138.318 282.721L149.281 72.3705C149.574 66.7377 153.909 62.1287 158.915 62.1287H246.715C251.72 62.1287 255.574 66.7369 255.281 72.3705L244.318 282.721C244.025 288.354 239.691 292.963 234.686 292.963Z" fill="white"/>
<path opacity="0.1" d="M232.122 285.141H150.264C147.17 285.141 144.788 282.292 144.969 278.811L149.542 191.07C149.723 187.588 152.403 184.74 155.496 184.74H237.354C240.448 184.74 242.831 187.589 242.65 191.07L238.077 278.811C237.896 282.292 235.216 285.141 232.122 285.141Z" fill="#407BFF"/>
<path opacity="0.1" d="M213.933 77.7321H190.071C188.964 77.7321 188.11 76.7123 188.175 75.4654C188.241 74.2186 189.2 73.1987 190.307 73.1987H214.169C215.277 73.1987 216.131 74.2186 216.065 75.4654C216 76.7115 215.04 77.7321 213.933 77.7321Z" fill="#407BFF"/>
<path opacity="0.1" d="M223.437 162.409C238.133 146.346 239.136 120.68 225.676 105.082C212.217 89.4846 189.392 89.8614 174.695 105.924C159.998 121.987 158.995 147.653 172.455 163.25C185.915 178.848 208.74 178.471 223.437 162.409Z" fill="#407BFF"/>
<path d="M173.836 161.025C167.784 153.804 164.745 144.211 165.276 134.014L165.961 134.06C165.441 144.043 168.414 153.431 174.334 160.496L173.836 161.025Z" fill="#407BFF"/>
<path d="M232.845 134.331L232.161 134.285C232.34 130.836 232.104 127.423 231.456 124.143L232.126 123.975C232.786 127.326 233.028 130.81 232.845 134.331Z" fill="#407BFF"/>
<path d="M229.481 117.429C228.076 113.905 226.16 110.682 223.786 107.849C220.5 103.928 216.566 100.996 212.091 99.1346L212.329 98.4104C216.904 100.313 220.926 103.31 224.286 107.32C226.712 110.215 228.671 113.511 230.107 117.114L229.481 117.429Z" fill="#407BFF"/>
<path d="M220.301 158.774C233.107 144.778 233.98 122.415 222.252 108.823C210.524 95.2323 190.635 95.5604 177.83 109.556C165.024 123.552 164.15 145.916 175.878 159.507C187.606 173.099 207.495 172.77 220.301 158.774Z" fill="#407BFF"/>
<path d="M195.569 138.961C195.575 138.959 195.583 138.956 195.588 138.954C197.097 138.582 197.802 137.126 198.123 135.473C198.155 135.302 198.186 135.131 198.21 134.956C198.218 134.906 198.225 134.856 198.232 134.805C198.323 134.106 198.361 133.394 198.37 132.726C195.51 132.374 193.111 129.868 192.977 126.135C192.875 123.312 193.447 119.637 194.809 116.691C194.535 116.734 194.212 116.85 193.883 117.124C193.828 117.169 193.762 117.184 193.701 117.172C193.642 117.161 193.588 117.125 193.55 117.067C193.472 116.948 193.494 116.781 193.6 116.693C194.145 116.24 194.682 116.133 195.081 116.137C195.178 115.949 195.275 115.76 195.379 115.58C194.944 115.591 194.519 115.592 194.107 115.581C194.56 112.014 200.656 109.017 204.815 111.754C206.664 112.171 209.721 115.146 209.721 115.146C209.721 115.146 209.841 117.725 209.579 120.839V120.84H209.578C209.306 124.062 208.625 127.856 206.975 129.968C207.407 128.875 207.514 127.718 207.411 126.539C206.975 127.017 206.474 127.313 205.985 127.451C205.788 127.941 205.566 128.389 205.312 128.813C204.667 132.124 204.21 136.54 205.192 139.073C206.075 139.135 206.936 139.225 207.748 139.331C207.816 139.34 207.882 139.358 207.949 139.37C208.482 139.015 209.002 138.622 209.502 138.184C215.672 132.775 209.119 126.44 210.666 120.626C212.213 114.811 210.905 112.606 206.684 112.414C208.439 109.277 197.321 104.254 192.439 114.009C188.015 122.848 186.585 127.258 188.178 134.172C188.682 136.361 190.067 138.179 191.959 139.495C192.267 139.401 192.58 139.322 192.906 139.276C193.777 139.153 194.682 139.045 195.569 138.961Z" fill="#263238"/>
<path d="M185.972 152.553C185.673 151.978 185.433 151.445 185.26 151.018C184.794 152.574 184.335 154.133 183.879 155.671C183.459 157.062 183.05 158.451 182.627 159.776L181.992 161.653L181.714 162.394C181.62 162.603 181.714 162.485 181.704 162.54C181.581 162.745 181.156 163.191 180.736 163.598C180.654 163.676 180.565 163.756 180.479 163.835C182.358 165.258 184.393 166.451 186.564 167.363C186.611 163.835 186.999 160.168 187.405 159.186C184.983 157.252 185.357 155.148 185.972 152.553Z" fill="#FFC3BD"/>
<path d="M188.377 142.142C188.318 142.226 188.26 142.32 188.201 142.409C188.259 142.32 188.32 142.234 188.381 142.148L188.377 142.142Z" fill="#263238"/>
<path d="M186.79 147.313C186.788 145.555 187.268 143.906 188.103 142.558C186.363 145.282 184.88 149.964 184.88 149.964C184.88 149.964 185.002 150.378 185.261 151.017C185.433 151.444 185.673 151.977 185.973 152.552C186.34 151.004 186.794 149.28 186.79 147.313Z" fill="#263238"/>
<path d="M210.705 158.512C209.978 157.342 209.223 155.856 208.543 154.287C208.334 154.413 208.125 154.537 207.905 154.644C205.849 152.197 204.091 150.222 204.091 150.222C201.524 144.201 203.112 140.769 207.974 139.376C208.717 139.53 209.432 139.881 210.103 140.34C209.479 139.849 208.75 139.509 207.947 139.369C207.879 139.358 207.815 139.34 207.746 139.331C206.933 139.226 206.072 139.134 205.19 139.072C205.377 139.635 200.975 146.755 198.214 147.929C197.079 144.72 193.904 144.499 193.904 144.499C193.904 144.499 190.943 143.817 190.021 145.914C190.628 141.579 194.338 139.293 195.569 138.961C194.681 139.045 193.777 139.153 192.905 139.276C192.579 139.322 192.265 139.401 191.958 139.494C190.512 139.936 189.279 140.882 188.381 142.148C188.32 142.234 188.26 142.32 188.201 142.409C188.169 142.458 188.135 142.507 188.103 142.557C187.267 143.904 186.787 145.554 186.79 147.312C186.794 149.279 186.34 151.003 185.973 152.552C185.357 155.147 184.984 157.252 187.406 159.185C187 160.167 186.611 163.834 186.565 167.362C189.851 168.742 193.437 169.495 197.22 169.495C201.98 169.495 206.551 168.297 210.704 166.163C210.61 163.692 210.578 160.812 210.763 157.539L210.763 157.537C210.743 157.862 210.719 158.197 210.705 158.512Z" fill="#263238"/>
<path d="M193.905 144.501C193.905 144.501 197.081 144.722 198.215 147.931C200.976 146.757 205.378 139.637 205.191 139.073C205.191 139.073 198.945 142.49 193.905 144.501Z" fill="white"/>
<path d="M195.588 138.955C195.583 138.955 195.575 138.959 195.569 138.961C194.338 139.294 190.628 141.579 190.021 145.914C190.943 143.817 193.905 144.501 193.905 144.501C192.955 140.443 195.588 138.955 195.588 138.955Z" fill="white"/>
<path d="M198.21 134.957C198.218 134.907 198.224 134.857 198.231 134.806C198.224 134.856 198.218 134.906 198.21 134.957Z" fill="#FFC3BD"/>
<path d="M205.312 128.814C204.77 129.72 204.076 130.507 203.091 131.287C202.71 131.588 202.319 131.825 201.926 132.032C201.039 133.759 199.459 134.996 198.101 135.605C198.109 135.562 198.115 135.517 198.123 135.473C197.802 137.126 197.097 138.581 195.588 138.954C195.588 138.954 192.955 140.443 193.905 144.5C198.945 142.489 205.191 139.072 205.191 139.072C204.209 136.54 204.666 132.123 205.312 128.814Z" fill="#FFC3BD"/>
<path d="M198.123 135.473C198.156 135.302 198.185 135.13 198.21 134.956C198.185 135.131 198.155 135.302 198.123 135.473Z" fill="#263238"/>
<path opacity="0.2" d="M198.123 135.473C198.156 135.302 198.185 135.13 198.21 134.956C198.185 135.131 198.155 135.302 198.123 135.473Z" fill="black"/>
<path d="M198.37 132.726C198.36 133.394 198.323 134.107 198.231 134.805C198.325 134.105 198.362 133.392 198.372 132.726H198.37Z" fill="#263238"/>
<path opacity="0.2" d="M198.37 132.726C198.36 133.394 198.323 134.107 198.231 134.805C198.325 134.105 198.362 133.392 198.372 132.726H198.37Z" fill="black"/>
<path d="M201.925 132.032C200.742 132.656 199.522 132.868 198.371 132.727C198.362 133.392 198.325 134.105 198.231 134.806C198.224 134.857 198.217 134.906 198.209 134.957C198.184 135.131 198.155 135.303 198.122 135.473C198.113 135.517 198.109 135.563 198.1 135.606C199.458 134.996 201.038 133.76 201.925 132.032Z" fill="#FFC3BD"/>
<path opacity="0.2" d="M201.925 132.032C200.742 132.656 199.522 132.868 198.371 132.727C198.362 133.392 198.325 134.105 198.231 134.806C198.224 134.857 198.217 134.906 198.209 134.957C198.184 135.131 198.155 135.303 198.122 135.473C198.113 135.517 198.109 135.563 198.1 135.606C199.458 134.996 201.038 133.76 201.925 132.032Z" fill="black"/>
<path d="M201.926 132.032C202.32 131.825 202.711 131.589 203.091 131.287C204.076 130.507 204.77 129.72 205.312 128.814C205.565 128.39 205.787 127.941 205.985 127.452C205.856 127.488 205.726 127.532 205.601 127.545C204.458 127.667 204.132 126.214 204.655 124.913C204.815 124.516 205.055 124.085 205.341 123.707C205.02 122.585 205.14 121.375 205.548 120.372C204.502 117.963 203.398 115.756 203.297 114.122C200.506 115.096 197.776 115.521 195.378 115.582C195.274 115.762 195.177 115.95 195.08 116.139C195.457 116.142 195.713 116.244 195.735 116.252C195.858 116.304 195.921 116.458 195.875 116.596C195.829 116.735 195.692 116.805 195.569 116.754C195.545 116.743 195.235 116.627 194.809 116.692C193.446 119.638 192.875 123.312 192.976 126.136C193.111 129.868 195.51 132.375 198.37 132.727L198.372 132.727C199.522 132.868 200.742 132.655 201.926 132.032ZM200.395 116.868C200.441 116.875 201.528 117.05 202.096 118.387C202.153 118.52 202.102 118.68 201.983 118.744C201.927 118.775 201.864 118.777 201.808 118.757C201.748 118.736 201.696 118.687 201.667 118.618C201.208 117.541 200.343 117.401 200.332 117.399C200.204 117.379 200.111 117.246 200.128 117.098C200.146 116.952 200.265 116.849 200.395 116.868ZM200.156 120.683C200.151 120.687 200.146 120.687 200.141 120.691C200.336 120.818 200.443 121.16 200.378 121.546C200.302 121.994 200.029 122.311 199.769 122.255C199.509 122.198 199.36 121.79 199.436 121.342C199.48 121.084 199.592 120.881 199.726 120.756C199.429 120.63 199.254 120.166 199.254 120.166L200.156 120.683ZM194.531 120.364C194.574 120.107 194.686 119.904 194.82 119.779C194.523 119.652 194.348 119.189 194.348 119.189L195.25 119.705C195.244 119.709 195.24 119.709 195.235 119.713C195.43 119.841 195.537 120.183 195.472 120.568C195.396 121.016 195.123 121.333 194.863 121.276C194.603 121.22 194.455 120.812 194.531 120.364ZM196.121 124.109C196.121 124.109 195.185 124.169 194.754 123.503C195.655 122.733 196.659 120.952 196.659 120.952L196.121 124.109ZM197.448 126.178C197.383 126.164 197.341 126.094 197.354 126.021C197.366 125.949 197.426 125.901 197.493 125.915C199.237 126.293 200.288 125.096 200.299 125.083C200.344 125.03 200.419 125.029 200.467 125.08C200.514 125.131 200.515 125.216 200.469 125.269C200.429 125.317 199.584 126.281 198.125 126.258C197.912 126.254 197.686 126.229 197.448 126.178Z" fill="#FFC3BD"/>
<path d="M209.578 120.842V120.84L209.577 120.842H209.578Z" fill="#263238"/>
<path d="M206.499 122.738C206.212 121.936 205.884 121.144 205.548 120.372C205.141 121.375 205.02 122.584 205.342 123.706C205.678 123.262 206.08 122.893 206.499 122.738Z" fill="#263238"/>
<path d="M199.726 120.756C199.593 120.881 199.481 121.084 199.437 121.342C199.361 121.79 199.51 122.198 199.77 122.255C200.03 122.311 200.303 121.994 200.379 121.546C200.445 121.161 200.337 120.818 200.141 120.69C199.984 120.805 199.846 120.808 199.726 120.756Z" fill="#263238"/>
<path d="M195.473 120.568C195.539 120.182 195.432 119.841 195.236 119.713C195.078 119.828 194.94 119.83 194.82 119.779C194.687 119.904 194.575 120.107 194.532 120.364C194.456 120.812 194.604 121.22 194.864 121.277C195.124 121.332 195.397 121.016 195.473 120.568Z" fill="#263238"/>
<path d="M195.236 119.712C195.241 119.709 195.245 119.709 195.251 119.705L194.349 119.188C194.349 119.188 194.524 119.651 194.821 119.778C194.94 119.83 195.079 119.827 195.236 119.712Z" fill="#263238"/>
<path d="M194.753 123.503C195.184 124.168 196.12 124.109 196.12 124.109L196.659 120.952C196.659 120.952 195.655 122.733 194.753 123.503Z" fill="#ED847E"/>
<path d="M200.467 125.08C200.419 125.029 200.344 125.03 200.299 125.083C200.288 125.096 199.237 126.292 197.493 125.915C197.426 125.901 197.366 125.949 197.354 126.021C197.341 126.094 197.383 126.164 197.448 126.178C197.686 126.229 197.913 126.254 198.126 126.258C199.584 126.281 200.43 125.317 200.47 125.269C200.515 125.216 200.513 125.132 200.467 125.08Z" fill="#263238"/>
<path d="M206.498 122.738C206.081 122.893 205.679 123.263 205.342 123.707C205.055 124.085 204.815 124.516 204.656 124.913C204.132 126.214 204.459 127.666 205.602 127.544C205.726 127.531 205.856 127.488 205.985 127.452C206.474 127.314 206.974 127.018 207.411 126.54C207.3 125.282 206.951 123.999 206.498 122.738Z" fill="#FFC3BD"/>
<path d="M203.44 112.963C203.483 111.849 204.045 111.581 204.814 111.755C200.655 109.018 194.559 112.015 194.106 115.582C194.518 115.593 194.943 115.592 195.378 115.581C197.776 115.52 200.506 115.095 203.297 114.121C203.272 113.694 203.31 113.305 203.44 112.963Z" fill="#263238"/>
<path d="M203.44 112.963C203.31 113.305 203.271 113.694 203.298 114.121C203.399 115.756 204.503 117.962 205.549 120.372C205.884 121.144 206.211 121.936 206.499 122.738C206.952 124 207.301 125.283 207.411 126.54C207.514 127.719 207.408 128.876 206.976 129.969C208.625 127.857 209.307 124.063 209.578 120.841L209.579 120.84C209.842 117.726 209.722 115.147 209.722 115.147C209.722 115.147 206.664 112.172 204.815 111.755C204.044 111.581 203.483 111.849 203.44 112.963Z" fill="#263238"/>
<path d="M200.333 117.399C200.344 117.401 201.209 117.541 201.668 118.618C201.697 118.687 201.749 118.736 201.809 118.757C201.865 118.777 201.928 118.775 201.985 118.744C202.103 118.68 202.153 118.52 202.097 118.387C201.528 117.05 200.442 116.875 200.397 116.868C200.266 116.849 200.147 116.951 200.129 117.098C200.112 117.246 200.205 117.379 200.333 117.399Z" fill="#263238"/>
<path d="M195.569 116.754C195.691 116.805 195.828 116.735 195.874 116.596C195.92 116.458 195.857 116.304 195.734 116.252C195.713 116.243 195.456 116.142 195.079 116.139C194.679 116.135 194.143 116.241 193.598 116.694C193.492 116.782 193.469 116.95 193.548 117.069C193.585 117.127 193.64 117.162 193.698 117.174C193.76 117.186 193.826 117.171 193.881 117.125C194.21 116.851 194.533 116.735 194.807 116.693C195.235 116.626 195.544 116.743 195.569 116.754Z" fill="#263238"/>
<path d="M199.726 120.756C199.846 120.807 199.984 120.805 200.141 120.69C200.146 120.687 200.151 120.687 200.156 120.683L199.254 120.166C199.254 120.166 199.429 120.629 199.726 120.756Z" fill="#263238"/>
<path d="M210.706 158.512C210.72 158.196 210.744 157.861 210.762 157.536C210.378 156.846 209.982 156.155 209.579 155.462C209.319 155.023 209.052 154.582 208.787 154.142C208.708 154.193 208.625 154.238 208.544 154.286C209.224 155.856 209.978 157.342 210.706 158.512Z" fill="#263238"/>
<path opacity="0.2" d="M210.706 158.512C210.72 158.196 210.744 157.861 210.762 157.536C210.378 156.846 209.982 156.155 209.579 155.462C209.319 155.023 209.052 154.582 208.787 154.142C208.708 154.193 208.625 154.238 208.544 154.286C209.224 155.856 209.978 157.342 210.706 158.512Z" fill="black"/>
<path d="M212.745 164.909L212.723 165.033C215.46 163.368 217.981 161.285 220.214 158.86C219.826 157.557 219.378 156.366 218.898 155.209C218.22 153.548 217.468 152.003 216.678 150.495C215.998 149.168 215.266 147.899 214.517 146.648C213.817 148.26 211.883 152.147 208.787 154.143C209.053 154.583 209.319 155.023 209.579 155.463C209.981 156.155 210.378 156.846 210.762 157.537L210.763 157.54C211.1 158.147 211.429 158.752 211.736 159.355C212.258 160.398 212.755 161.444 213.132 162.406L213.062 162.934C212.97 163.576 212.862 164.238 212.745 164.909Z" fill="#FFC3BD"/>
<path d="M204.092 150.223C204.092 150.223 205.85 152.198 207.906 154.644C208.125 154.538 208.335 154.413 208.544 154.288C208.625 154.239 208.708 154.194 208.788 154.143C211.884 152.147 213.817 148.261 214.518 146.648C214.715 146.196 214.819 145.913 214.819 145.913C214.819 145.913 212.834 142.207 210.103 140.341C209.432 139.882 208.718 139.531 207.975 139.377C203.112 140.769 201.525 144.202 204.092 150.223Z" fill="#263238"/>
<path d="M236.982 72.7819H246.65C247.189 72.7819 247.656 72.2855 247.688 71.6787C247.719 71.0719 247.304 70.5754 246.765 70.5754H237.097C236.558 70.5754 236.091 71.0719 236.059 71.6787C236.028 72.2855 236.443 72.7819 236.982 72.7819Z" fill="#407BFF"/>
<path d="M236.786 76.568H246.454C246.993 76.568 247.459 76.0716 247.491 75.4648C247.523 74.858 247.108 74.3616 246.569 74.3616H236.901C236.362 74.3616 235.895 74.858 235.863 75.4648C235.831 76.0716 236.247 76.568 236.786 76.568Z" fill="#407BFF"/>
<path d="M158.591 76.568H168.259C168.798 76.568 169.266 76.0716 169.297 75.4648C169.329 74.858 168.914 74.3616 168.374 74.3616H158.707C158.167 74.3616 157.701 74.858 157.669 75.4648C157.637 76.0716 158.052 76.568 158.591 76.568Z" fill="#407BFF"/>
<path d="M236.587 80.3539H246.255C246.794 80.3539 247.262 79.8575 247.293 79.2507C247.325 78.6439 246.91 78.1475 246.37 78.1475H236.703C236.163 78.1475 235.697 78.6439 235.665 79.2507C235.633 79.8575 236.048 80.3539 236.587 80.3539Z" fill="#407BFF"/>
<path d="M223.885 218.867H165.409C160.752 218.867 157.164 214.578 157.437 209.337C157.71 204.096 161.745 199.807 166.402 199.807H224.88C229.537 199.807 233.124 204.096 232.851 209.337C232.578 214.578 228.543 218.867 223.885 218.867Z" fill="white"/>
<path d="M222.551 244.471H164.074C159.417 244.471 155.829 240.182 156.103 234.941C156.376 229.699 160.41 225.411 165.067 225.411H223.545C228.202 225.411 231.79 229.699 231.516 234.941C231.243 240.182 227.209 244.471 222.551 244.471Z" fill="white"/>
<path d="M221.217 270.074H162.74C158.083 270.074 154.495 265.785 154.769 260.544C155.042 255.303 159.076 251.014 163.733 251.014H222.211C226.868 251.014 230.456 255.303 230.182 260.544C229.908 265.785 225.874 270.074 221.217 270.074Z" fill="white"/>
<path d="M169.958 212.75C171.737 210.806 171.859 207.698 170.229 205.81C168.6 203.922 165.837 203.968 164.057 205.912C162.278 207.857 162.157 210.964 163.786 212.852C165.416 214.74 168.179 214.695 169.958 212.75Z" fill="#407BFF"/>
<path d="M166.484 230.295L167.063 232.741C167.129 233.021 167.351 233.211 167.613 233.211H169.898C170.484 233.211 170.683 234.055 170.189 234.442L168.262 235.953C168.041 236.127 167.936 236.434 168.002 236.714L168.581 239.16C168.73 239.786 168.065 240.308 167.611 239.92L165.842 238.408C165.638 238.235 165.352 238.235 165.131 238.408L163.203 239.92C162.709 240.308 162.099 239.786 162.313 239.16L163.146 236.714C163.242 236.434 163.169 236.126 162.966 235.953L161.197 234.442C160.743 234.054 161.031 233.211 161.616 233.211H163.902C164.164 233.211 164.406 233.021 164.501 232.741L165.335 230.295C165.547 229.668 166.335 229.668 166.484 230.295Z" fill="#407BFF"/>
<path d="M168.088 257.953L167.73 264.821C167.699 265.412 167.249 265.89 166.724 265.89H161.383C160.858 265.89 160.457 265.412 160.488 264.821L160.934 256.266C160.965 255.676 161.415 255.197 161.94 255.197H165.782L168.088 257.953Z" fill="#407BFF"/>
<path d="M165.783 255.197L168.088 257.954H166.589C166.064 257.954 165.663 257.475 165.694 256.885L165.783 255.197ZM165.171 253.302L165.074 255.151L164.986 256.838C164.96 257.346 165.113 257.826 165.418 258.189C165.722 258.553 166.138 258.752 166.589 258.752H168.088H169.729L168.605 257.408L166.299 254.651L165.171 253.302Z" fill="white"/>
<path opacity="0.2" d="M221.917 208.329H178.164C177.405 208.329 176.821 207.63 176.866 206.777C176.91 205.923 177.567 205.225 178.325 205.225H222.079C222.838 205.225 223.422 205.924 223.377 206.777C223.333 207.63 222.676 208.329 221.917 208.329Z" fill="#407BFF"/>
<path opacity="0.2" d="M213.625 213.449H177.897C177.138 213.449 176.554 212.75 176.599 211.897C176.644 211.043 177.301 210.345 178.059 210.345H213.787C214.546 210.345 215.13 211.044 215.085 211.897C215.04 212.751 214.384 213.449 213.625 213.449Z" fill="#407BFF"/>
<path opacity="0.2" d="M220.478 235.949H208.407C207.648 235.949 206.991 236.647 206.947 237.501C206.902 238.354 207.487 239.052 208.245 239.052H220.316C221.075 239.052 221.732 238.354 221.776 237.501C221.821 236.647 221.237 235.949 220.478 235.949Z" fill="#407BFF"/>
<path opacity="0.2" d="M201.352 235.949H176.725C175.966 235.949 175.31 236.647 175.265 237.501C175.22 238.354 175.805 239.052 176.563 239.052H201.19C201.948 239.052 202.605 238.354 202.65 237.501C202.694 236.647 202.11 235.949 201.352 235.949Z" fill="#407BFF"/>
<path opacity="0.2" d="M212.72 230.828H176.992C176.233 230.828 175.576 231.527 175.532 232.38C175.487 233.234 176.072 233.931 176.83 233.931H212.558C213.317 233.931 213.973 233.233 214.018 232.38C214.062 231.527 213.478 230.828 212.72 230.828Z" fill="#407BFF"/>
<path opacity="0.2" d="M219.145 261.552H175.391C174.632 261.552 173.975 262.251 173.931 263.104C173.887 263.958 174.471 264.656 175.229 264.656H218.983C219.741 264.656 220.399 263.957 220.443 263.104C220.487 262.25 219.903 261.552 219.145 261.552Z" fill="#407BFF"/>
<path opacity="0.2" d="M211.386 256.432H175.658C174.899 256.432 174.242 257.13 174.198 257.983C174.153 258.837 174.738 259.535 175.496 259.535H211.224C211.983 259.535 212.639 258.837 212.684 257.983C212.728 257.13 212.144 256.432 211.386 256.432Z" fill="#407BFF"/>
</svg>
