<svg width="20" height="19" viewBox="0 0 20 19" fill="none" xmlns="http://www.w3.org/2000/svg">
<path id="Icon" d="M19 3.5H17M19 9.5H14M19 15.5H14M5 17.5V11.0612C5 10.8532 5 10.7492 4.97958 10.6497C4.96147 10.5615 4.93151 10.4761 4.89052 10.3958C4.84431 10.3054 4.77934 10.2242 4.64939 10.0617L1.35061 5.93826C1.22066 5.77583 1.15569 5.69461 1.10948 5.60417C1.06849 5.52393 1.03853 5.43852 1.02042 5.35026C1 5.25078 1 5.14677 1 4.93875V3.1C1 2.53995 1 2.25992 1.10899 2.04601C1.20487 1.85785 1.35785 1.70487 1.54601 1.60899C1.75992 1.5 2.03995 1.5 2.6 1.5H11.4C11.9601 1.5 12.2401 1.5 12.454 1.60899C12.6422 1.70487 12.7951 1.85785 12.891 2.04601C13 2.25992 13 2.53995 13 3.1V4.93875C13 5.14677 13 5.25078 12.9796 5.35026C12.9615 5.43852 12.9315 5.52393 12.8905 5.60417C12.8443 5.69461 12.7793 5.77583 12.6494 5.93826L9.35061 10.0617C9.22066 10.2242 9.15569 10.3054 9.10948 10.3958C9.06849 10.4761 9.03853 10.5615 9.02042 10.6497C9 10.7492 9 10.8532 9 11.0612V14.5L5 17.5Z" stroke="#131A29" stroke-width="2" stroke-linecap="round" stroke-linejoin="round"/>
</svg>
