<svg width="25" height="27" viewBox="0 0 25 27" fill="none" xmlns="http://www.w3.org/2000/svg">
<path d="M23.1665 8.16667L15.1665 1.15334C14.4332 0.497402 13.4838 0.134766 12.4999 0.134766C11.516 0.134766 10.5666 0.497402 9.83321 1.15334L1.83322 8.16667C1.40971 8.54544 1.07175 9.01008 0.841845 9.52967C0.611941 10.0493 0.495366 10.6118 0.499882 11.18V22.8333C0.499882 23.8942 0.92131 24.9116 1.67146 25.6618C2.4216 26.4119 3.43902 26.8333 4.49988 26.8333H20.4999C21.5607 26.8333 22.5782 26.4119 23.3283 25.6618C24.0785 24.9116 24.4999 23.8942 24.4999 22.8333V11.1667C24.5025 10.6008 24.385 10.0407 24.1552 9.52358C23.9253 9.00644 23.5884 8.54395 23.1665 8.16667ZM15.1665 24.1667H9.83321V17.5C9.83321 17.1464 9.97369 16.8072 10.2237 16.5572C10.4738 16.3071 10.8129 16.1667 11.1665 16.1667H13.8332C14.1868 16.1667 14.526 16.3071 14.776 16.5572C15.0261 16.8072 15.1665 17.1464 15.1665 17.5V24.1667ZM21.8332 22.8333C21.8332 23.187 21.6927 23.5261 21.4427 23.7761C21.1926 24.0262 20.8535 24.1667 20.4999 24.1667H17.8332V17.5C17.8332 16.4391 17.4118 15.4217 16.6616 14.6716C15.9115 13.9214 14.8941 13.5 13.8332 13.5H11.1665C10.1057 13.5 9.08827 13.9214 8.33812 14.6716C7.58798 15.4217 7.16655 16.4391 7.16655 17.5V24.1667H4.49988C4.14626 24.1667 3.80712 24.0262 3.55707 23.7761C3.30702 23.5261 3.16655 23.187 3.16655 22.8333V11.1667C3.16679 10.9774 3.20734 10.7903 3.28551 10.6178C3.36367 10.4454 3.47766 10.2916 3.61988 10.1667L11.6199 3.16667C11.8632 2.95292 12.176 2.83503 12.4999 2.83503C12.8238 2.83503 13.1366 2.95292 13.3799 3.16667L21.3799 10.1667C21.5221 10.2916 21.6361 10.4454 21.7143 10.6178C21.7924 10.7903 21.833 10.9774 21.8332 11.1667V22.8333Z" fill="#262626"/>
</svg>
