<svg width="314" height="314" viewBox="0 0 314 314" fill="none" xmlns="http://www.w3.org/2000/svg">
<path d="M314 240.146H0V240.303H314V240.146Z" fill="#D1E3FF"/>
<path d="M266.342 247.236H242.896V247.393H266.342V247.236Z" fill="#D1E3FF"/>
<path d="M238.291 247.315H227.974V247.472H238.291V247.315Z" fill="#D1E3FF"/>
<path d="M178.666 247.537H166.42V247.694H178.666V247.537Z" fill="#D1E3FF"/>
<path d="M148.051 250.267H120.715V250.424H148.051V250.267Z" fill="#D1E3FF"/>
<path d="M71.9422 247.615H52.3662V247.772H71.9422V247.615Z" fill="#D1E3FF"/>
<path d="M94.514 247.615H75.4297V247.772H94.514V247.615Z" fill="#D1E3FF"/>
<path d="M42.9491 243.725H36.7715V243.882H42.9491V243.725Z" fill="#D1E3FF"/>
<mask id="path-9-inside-1_508_13152" fill="white">
<path d="M148.845 212.138H27.5788C25.6024 212.138 23.9941 210.53 23.9941 208.554V38.0945C23.9941 36.1182 25.6024 34.5099 27.5788 34.5099H148.845C150.821 34.5099 152.429 36.1182 152.429 38.0945V208.554C152.429 210.53 150.821 212.138 148.845 212.138ZM27.5788 34.6675C25.6885 34.6675 24.1511 36.2049 24.1511 38.0951V208.554C24.1511 210.445 25.6885 211.982 27.5788 211.982H148.845C150.735 211.982 152.272 210.445 152.272 208.554V38.0945C152.272 36.2049 150.735 34.6669 148.845 34.6669L27.5788 34.6675Z"/>
</mask>
<path d="M152.429 208.554H149.429H152.429ZM27.5788 34.6675V37.6675H27.5788L27.5788 34.6675ZM148.845 34.6669V31.6669L148.845 31.6669L148.845 34.6669ZM148.845 209.138H27.5788V215.138H148.845V209.138ZM27.5788 209.138C27.2593 209.138 26.9941 208.873 26.9941 208.554H20.9941C20.9941 212.187 23.9456 215.138 27.5788 215.138V209.138ZM26.9941 208.554V38.0945H20.9941V208.554H26.9941ZM26.9941 38.0945C26.9941 37.7751 27.2593 37.5099 27.5788 37.5099V31.5099C23.9456 31.5099 20.9941 34.4613 20.9941 38.0945H26.9941ZM27.5788 37.5099H148.845V31.5099H27.5788V37.5099ZM148.845 37.5099C149.163 37.5099 149.429 37.7747 149.429 38.0945H155.429C155.429 34.4617 152.478 31.5099 148.845 31.5099V37.5099ZM149.429 38.0945V208.554H155.429V38.0945H149.429ZM149.429 208.554C149.429 208.874 149.163 209.138 148.845 209.138V215.138C152.478 215.138 155.429 212.187 155.429 208.554H149.429ZM27.5788 31.6675C24.0316 31.6675 21.1511 34.548 21.1511 38.0951H27.1511C27.1511 37.8617 27.3453 37.6675 27.5788 37.6675V31.6675ZM21.1511 38.0951V208.554H27.1511V38.0951H21.1511ZM21.1511 208.554C21.1511 212.102 24.0316 214.982 27.5788 214.982V208.982C27.3453 208.982 27.1511 208.788 27.1511 208.554H21.1511ZM27.5788 214.982H148.845V208.982H27.5788V214.982ZM148.845 214.982C152.392 214.982 155.272 212.101 155.272 208.554H149.272C149.272 208.788 149.077 208.982 148.845 208.982V214.982ZM155.272 208.554V38.0945H149.272V208.554H155.272ZM155.272 38.0945C155.272 34.5487 152.392 31.6669 148.845 31.6669V37.6669C149.077 37.6669 149.272 37.861 149.272 38.0945H155.272ZM148.845 31.6669L27.5787 31.6675L27.5788 37.6675L148.845 37.6669L148.845 31.6669Z" fill="white" mask="url(#path-9-inside-1_508_13152)"/>
<mask id="path-11-inside-2_508_13152" fill="white">
<path d="M284.679 212.138H163.413C161.437 212.138 159.829 210.53 159.829 208.554V38.0945C159.829 36.1182 161.437 34.5099 163.413 34.5099H284.679C286.656 34.5099 288.263 36.1182 288.263 38.0945V208.554C288.264 210.53 286.656 212.138 284.679 212.138ZM163.413 34.6675C161.523 34.6675 159.986 36.2049 159.986 38.0951V208.554C159.986 210.445 161.523 211.982 163.413 211.982H284.679C286.569 211.982 288.106 210.445 288.106 208.554V38.0945C288.106 36.2049 286.569 34.6669 284.679 34.6669L163.413 34.6675Z"/>
</mask>
<path d="M288.263 208.554H285.263V208.555L288.263 208.554ZM163.413 34.6675V37.6675H163.413L163.413 34.6675ZM284.679 34.6669V31.6669L284.679 31.6669L284.679 34.6669ZM284.679 209.138H163.413V215.138H284.679V209.138ZM163.413 209.138C163.095 209.138 162.829 208.874 162.829 208.554H156.829C156.829 212.187 159.78 215.138 163.413 215.138V209.138ZM162.829 208.554V38.0945H156.829V208.554H162.829ZM162.829 38.0945C162.829 37.7747 163.095 37.5099 163.413 37.5099V31.5099C159.78 31.5099 156.829 34.4617 156.829 38.0945H162.829ZM163.413 37.5099H284.679V31.5099H163.413V37.5099ZM284.679 37.5099C284.998 37.5099 285.263 37.7747 285.263 38.0945H291.263C291.263 34.4617 288.313 31.5099 284.679 31.5099V37.5099ZM285.263 38.0945V208.554H291.263V38.0945H285.263ZM285.263 208.555C285.263 208.873 284.999 209.138 284.679 209.138V215.138C288.312 215.138 291.264 212.187 291.263 208.553L285.263 208.555ZM163.413 31.6675C159.866 31.6675 156.986 34.5484 156.986 38.0951H162.986C162.986 37.8614 163.181 37.6675 163.413 37.6675V31.6675ZM156.986 38.0951V208.554H162.986V38.0951H156.986ZM156.986 208.554C156.986 212.101 159.866 214.982 163.413 214.982V208.982C163.181 208.982 162.986 208.788 162.986 208.554H156.986ZM163.413 214.982H284.679V208.982H163.413V214.982ZM284.679 214.982C288.226 214.982 291.106 212.102 291.106 208.554H285.106C285.106 208.788 284.912 208.982 284.679 208.982V214.982ZM291.106 208.554V38.0945H285.106V208.554H291.106ZM291.106 38.0945C291.106 34.5484 288.226 31.6669 284.679 31.6669V37.6669C284.912 37.6669 285.106 37.8614 285.106 38.0945H291.106ZM284.679 31.6669L163.413 31.6675L163.413 37.6675L284.679 37.6669L284.679 31.6669Z" fill="white" mask="url(#path-11-inside-2_508_13152)"/>
<path d="M214.497 118.104L206.024 100.302V240.146H214.497V118.104Z" fill="#F3F8FF"/>
<path d="M201.626 118.104L206.024 100.302V240.146H201.626V118.104Z" fill="#E3EEFF"/>
<path d="M225.486 155.225L186.625 146.324V240.146H225.486V155.225Z" fill="#F3F8FF"/>
<path d="M166.458 240.146H186.626V146.324H166.458V240.146Z" fill="#E3EEFF"/>
<path d="M173.049 71.3559H139.975V240.147H173.049V71.3559Z" fill="#F3F8FF"/>
<path d="M122.809 240.146H139.975L139.975 71.3554H122.809L122.809 240.146Z" fill="#E3EEFF"/>
<path d="M168.599 62.7171H139.975V71.3552H168.599V62.7171Z" fill="#F3F8FF"/>
<path d="M168.599 69.416H139.975V71.3559H168.599V69.416Z" fill="#E3EEFF"/>
<path d="M127.259 71.3561H139.975V62.7179H127.259V71.3561Z" fill="#E3EEFF"/>
<path d="M164.148 54.079H139.975V62.7171H164.148V54.079Z" fill="#F3F8FF"/>
<path d="M164.148 60.7779H139.975V62.7178H164.148V60.7779Z" fill="#E3EEFF"/>
<path d="M131.71 62.7177H139.974V54.0795H131.71V62.7177Z" fill="#E3EEFF"/>
<path d="M147.127 54.0792H148.732V42.0071H147.127V54.0792Z" fill="#E3EEFF"/>
<path d="M128.289 86.4681H104.136V240.146H128.289V86.4681Z" fill="#F3F8FF"/>
<path d="M91.6009 240.146H104.136L104.136 86.4685H91.6009L91.6009 240.146Z" fill="#E3EEFF"/>
<path d="M269.696 126.367H251.38V240.146H269.696V126.367Z" fill="#F3F8FF"/>
<path d="M241.874 240.146H251.38V126.368H241.874V240.146Z" fill="#E3EEFF"/>
<path d="M84.9717 140.463H68.2896V240.147H84.9717V140.463Z" fill="#F3F8FF"/>
<path d="M59.6318 162.652L68.2894 140.463V240.146H59.6318V162.652Z" fill="#E3EEFF"/>
<path d="M64.6498 160.559H51.0298V240.147H64.6498V160.559Z" fill="#F3F8FF"/>
<path d="M43.9609 174.344L51.0297 160.559V240.146H43.9609V174.344Z" fill="#E3EEFF"/>
<path d="M28.8643 240.146C28.8643 240.146 28.404 235.614 23.397 233.281C25.4493 236.566 25.0021 240.146 25.0021 240.146H28.8643Z" fill="#E3EEFF"/>
<path d="M215.171 240.146C215.171 240.146 215.631 235.614 220.638 233.281C218.586 236.566 219.033 240.146 219.033 240.146H215.171Z" fill="#E3EEFF"/>
<path d="M268.15 240.146C268.15 240.146 268.459 232.107 271.819 229.775C270.441 233.06 270.742 240.146 270.742 240.146H268.15Z" fill="#E3EEFF"/>
<path d="M269.413 240.146C269.413 240.146 269.104 235.531 265.743 234.191C267.121 236.077 266.82 240.146 266.82 240.146H269.413Z" fill="#E3EEFF"/>
<path d="M212.294 240.146C212.294 240.146 212.63 232.536 218.725 229.775C216.001 233.678 216.157 240.146 216.157 240.146H212.294Z" fill="#E3EEFF"/>
<path d="M281.898 188.906L277.463 220.181L277.02 223.311H274.18L274.624 220.181L279.058 188.906H281.898Z" fill="#D1E3FF"/>
<path d="M160.074 188.906L155.639 220.181L155.195 223.311H152.355L152.798 220.181L157.233 188.906H160.074Z" fill="#D1E3FF"/>
<path d="M263.69 220.181L263.246 223.311L260.85 240.172H258.009L260.398 223.311L260.841 220.181H263.69Z" fill="#D1E3FF"/>
<path d="M141.856 220.181L141.413 223.311L139.024 240.172H136.185L138.573 223.311L139.016 220.181H141.856Z" fill="#D1E3FF"/>
<path d="M156.214 220.181L156.658 223.311L159.054 240.172H161.895L159.506 223.311L159.063 220.181H156.214Z" fill="#D1E3FF"/>
<path d="M278.048 220.181L278.491 223.311L280.88 240.172H283.719L281.331 223.311L280.888 220.181H278.048Z" fill="#D1E3FF"/>
<path d="M285.987 193.259H155.781L158.198 184.55H288.404L285.987 193.259Z" fill="#E3EEFF"/>
<path d="M283.013 193.259H152.807L155.225 184.55H285.431L283.013 193.259Z" fill="#D1E3FF"/>
<path d="M284.173 204.121H153.968L156.385 195.412H286.591L284.173 204.121Z" fill="#E3EEFF"/>
<path d="M281.2 204.121H150.994L153.412 195.412H283.618L281.2 204.121Z" fill="#D1E3FF"/>
<path d="M282.36 214.997H152.154L154.572 206.289H284.778L282.36 214.997Z" fill="#E3EEFF"/>
<path d="M279.387 214.997H149.181L151.599 206.289H281.804L279.387 214.997Z" fill="#D1E3FF"/>
<path d="M266.964 220.181H137.335V223.311H266.964V220.181Z" fill="#D1E3FF"/>
<path d="M284.781 220.181H266.964V223.311H284.781V220.181Z" fill="#E3EEFF"/>
<path d="M157 268.508C224.248 268.508 278.763 265.325 278.763 261.398C278.763 257.47 224.248 254.287 157 254.287C89.7527 254.287 35.2378 257.47 35.2378 261.398C35.2378 265.325 89.7527 268.508 157 268.508Z" fill="#F0F6FF"/>
<path opacity="0.7" d="M153.668 79.7805L90.2129 72.0278L95.3707 253.111L150.377 259.277L153.668 79.7805Z" fill="#9FC6FF"/>
<path opacity="0.7" d="M217.614 73.0866L153.668 79.7805L150.377 259.277L205.753 254.589L217.614 73.0866Z" fill="#9FC6FF"/>
<path opacity="0.7" d="M280.842 80.8625L217.615 73.0866L205.753 254.589L260.589 260.769L280.842 80.8625Z" fill="#9FC6FF"/>
<path d="M146.045 196.9C146.058 192.564 142.448 189.064 138.064 189.264C134.371 189.433 131.261 192.329 130.85 196.003C130.548 198.707 131.665 201.164 133.549 202.733C134.62 203.623 135.531 204.689 136.315 205.839L137.502 207.579L138.974 206.063C139.932 205.076 140.993 204.18 142.188 203.499C144.484 202.193 146.038 199.731 146.045 196.9Z" fill="white"/>
<path d="M262.315 101.253C262.328 96.9174 258.717 93.4169 254.334 93.6172C250.64 93.7862 247.531 96.6819 247.12 100.356C246.818 103.06 247.934 105.517 249.819 107.086C250.889 107.976 251.8 109.042 252.585 110.192L253.772 111.932L255.243 110.416C256.202 109.429 257.262 108.533 258.458 107.852C260.754 106.546 262.307 104.085 262.315 101.253Z" fill="white"/>
<path d="M153.338 78.7531L218.047 71.9801L282.027 79.8489L261.533 261.896L206.044 255.643L150.009 260.387L94.3482 254.148L89.1289 70.9094L153.338 78.7531ZM161.214 234.179L207.01 202.014L207.193 201.885L217.154 196.369L208.537 189.771L150.103 168.824L138.567 162.143L121.555 202.254L152.908 228.699L161.214 234.179ZM114.887 196.631L131.069 157.801L99.6309 139.593L100.618 184.595L114.887 196.631ZM153.465 88.5555L152.545 88.4437L98.3643 81.8541L99.4086 129.452L134.565 149.958L148.619 126.085L166.3 87.2261L154.383 88.4607L153.465 88.5555ZM176.813 86.1365L156.225 130.65L142.086 154.344L153.427 160.958L212.658 182.322L225.134 191.95L239.936 183.752L232.565 83.7199L217.708 81.9012L176.813 86.1365ZM241.697 84.8371L248.031 179.268L263.342 170.79L272.055 88.5543L241.697 84.8371ZM206.265 248.095L207.076 248.186L254.572 253.559L262.279 180.816L211.461 208.735L168.256 238.825L184.98 249.859L184.938 249.917L205.45 248.164L206.265 248.095ZM149.875 252.914L172.817 250.953L148.17 234.807L100.851 195.206L101.999 247.528L149.875 252.914Z" fill="#D4E9FF"/>
<path d="M224.749 197.781C224.615 197.781 224.482 197.738 224.371 197.654L210.275 186.834L151.548 165.414C151.511 165.401 151.476 165.384 151.443 165.364L136.77 156.634L120.415 195.813C120.283 196.129 119.92 196.281 119.604 196.146C119.288 196.015 119.139 195.652 119.271 195.336L135.901 155.497C135.97 155.331 136.109 155.204 136.279 155.147C136.45 155.091 136.636 155.111 136.79 155.203L152.026 164.27L210.788 185.703C210.847 185.724 210.903 185.755 210.953 185.793L224.803 196.424L244.128 185.741L238.027 105.935C238.001 105.594 238.257 105.296 238.598 105.27C238.93 105.24 239.237 105.5 239.264 105.841L245.394 186.044C245.413 186.285 245.288 186.516 245.076 186.633L225.048 197.706C224.955 197.755 224.852 197.781 224.749 197.781Z" fill="#407BFF"/>
<path d="M240.575 106.053C240.484 107.104 239.559 107.883 238.508 107.792C237.456 107.702 236.677 106.776 236.768 105.725C236.858 104.674 237.784 103.895 238.835 103.986C239.887 104.076 240.665 105.002 240.575 106.053Z" fill="#407BFF"/>
<path d="M121.747 195.737C121.657 196.789 120.731 197.567 119.679 197.477C118.628 197.387 117.849 196.461 117.94 195.41C118.03 194.358 118.956 193.58 120.007 193.67C121.059 193.761 121.838 194.686 121.747 195.737Z" fill="#407BFF"/>
<path opacity="0.3" d="M218.046 71.9801L153.338 78.7531L150.008 260.386L206.043 255.642L218.046 71.9801Z" fill="#14365B"/>
<path d="M105.859 128.013L101.927 122.544C101.652 122.162 101.772 121.669 102.193 121.448L116.625 113.891C117.046 113.671 117.616 113.802 117.89 114.185L121.823 119.654C122.097 120.036 121.978 120.529 121.556 120.749L107.124 128.307C106.703 128.527 106.134 128.395 105.859 128.013Z" fill="#0053CC"/>
<path d="M105.376 127.341L101.443 121.872C101.169 121.49 101.288 120.997 101.71 120.776L116.142 113.219C116.563 112.999 117.132 113.13 117.407 113.513L121.339 118.982C121.614 119.364 121.494 119.857 121.073 120.077L106.641 127.635C106.22 127.855 105.651 127.723 105.376 127.341Z" fill="#407BFF"/>
<path d="M120.576 120.337L114.089 123.735L113.492 124.049L110.578 125.575L109.956 125.901L107.627 127.12L102.697 120.262L103.268 119.961L103.877 119.647L109.485 116.708L111.238 115.784L115.64 113.48L117.273 115.747L117.687 116.331L119.923 119.433L120.274 119.917L120.576 120.337Z" fill="#DCE9FF"/>
<path d="M120.274 119.917L119.923 119.433L115.074 121.656L113.354 122.849L112.763 122.14L111.487 118.535L109.824 117.449L110.402 116.375L117.687 116.331L117.272 115.747L111.237 115.784L109.485 116.708L108.167 119.291L105.83 121.575L103.877 119.647L103.268 119.961L106.64 123.308L109.956 125.902L110.578 125.576L110.126 125.224L113.153 123.635L113.492 124.049L114.089 123.735L113.737 123.308L115.464 122.122L120.274 119.917ZM109.611 124.821L107.149 122.893L106.289 122.033L108.764 119.554L109.504 118.04L110.903 118.875L112.148 122.429L112.161 122.448L112.763 123.17L109.611 124.821Z" fill="white"/>
<path d="M69.6086 116.294C69.5144 116.473 69.3656 116.763 69.2456 117.017L68.8657 117.817C68.6145 118.356 68.3765 118.909 68.1491 119.467C67.7058 120.588 67.2636 121.716 66.8881 122.869C66.1464 125.175 65.5643 127.535 65.1768 129.923C65.0644 130.518 65.011 131.119 64.9237 131.719C64.9099 131.813 64.8992 131.907 64.8867 132.001C64.8798 132.056 64.8722 132.11 64.8653 132.165C64.8559 132.237 64.8364 132.294 64.8622 132.367C64.8998 132.472 65.0135 132.543 65.1052 132.597C65.3803 132.759 65.8236 132.926 66.321 133.028C67.3277 133.24 68.5184 133.304 69.7191 133.299C70.9167 133.292 72.1872 133.214 73.3791 133.102L74.0479 135.681C73.3804 135.944 72.758 136.143 72.1005 136.336C71.4493 136.528 70.7886 136.702 70.1122 136.836C68.7583 137.107 67.3597 137.296 65.8073 137.207C65.0305 137.151 64.2009 137.046 63.2959 136.689C62.8457 136.509 62.3721 136.263 61.9131 135.909C61.4546 135.557 61.0182 135.075 60.6992 134.519C60.3732 133.965 60.1855 133.351 60.1038 132.784C60.0617 132.5 60.0429 132.224 60.041 131.96L60.0479 131.591L60.0636 131.336C60.1126 130.657 60.1302 129.97 60.2087 129.293C60.4756 126.576 61.0081 123.891 61.7869 121.281C62.1812 119.978 62.607 118.682 63.132 117.418C63.392 116.785 63.6639 116.156 63.9572 115.529C64.1035 115.217 64.2511 114.902 64.415 114.591C64.5821 114.268 64.7315 113.988 64.9513 113.606L69.6086 116.294Z" fill="#FF8B7B"/>
<path d="M72.9706 132.966L76.846 129.332L77.1286 134.674C77.1286 134.674 74.2599 136.457 72.3652 135.365L72.9706 132.966Z" fill="#FF8B7B"/>
<path d="M81.2505 128.938L81.2455 133.423L77.1283 134.674L76.8457 129.332L81.2505 128.938Z" fill="#FF8B7B"/>
<path d="M66.4085 258.875C65.9224 258.875 65.3911 258.775 65.0194 258.687C64.971 258.675 64.9339 258.636 64.9258 258.587C64.917 258.538 64.9383 258.489 64.9798 258.462C65.16 258.343 66.7545 257.31 67.3693 257.589C67.466 257.633 67.5879 257.729 67.6174 257.94C67.657 258.218 67.5872 258.441 67.4108 258.602C67.186 258.806 66.8129 258.875 66.4085 258.875ZM65.3717 258.509C66.2867 258.691 66.9756 258.66 67.2425 258.417C67.3555 258.314 67.3976 258.169 67.37 257.974C67.3549 257.869 67.3065 257.834 67.2663 257.816C66.9461 257.668 66.0229 258.116 65.3717 258.509Z" fill="#0053CC"/>
<path d="M65.0482 258.69C65.0262 258.69 65.0048 258.685 64.9854 258.674C64.9471 258.651 64.9238 258.61 64.9238 258.566C64.9238 258.502 64.9307 256.987 65.5028 256.481C65.6548 256.347 65.8307 256.289 66.0304 256.314C66.3418 256.352 66.4266 256.548 66.4492 256.662C66.5679 257.255 65.6115 258.39 65.1097 258.675C65.0902 258.685 65.0689 258.69 65.0482 258.69ZM65.9431 256.558C65.8407 256.558 65.7503 256.594 65.6674 256.667C65.3264 256.968 65.2089 257.819 65.1801 258.323C65.6799 257.924 66.2765 257.072 66.2043 256.711C66.1924 256.651 66.1585 256.581 65.9996 256.562C65.9801 256.559 65.9619 256.558 65.9431 256.558Z" fill="#0053CC"/>
<path d="M90.3376 258.876C89.758 258.876 89.1287 258.777 88.6816 258.688C88.6294 258.677 88.5899 258.635 88.5823 258.583C88.5748 258.531 88.6012 258.48 88.6483 258.455C88.885 258.332 90.9819 257.261 91.6269 257.614C91.7519 257.682 91.8247 257.797 91.8385 257.945C91.8611 258.193 91.7851 258.398 91.6137 258.552C91.3424 258.795 90.8601 258.876 90.3376 258.876ZM89.0954 258.511C90.2603 258.704 91.1257 258.654 91.446 258.367C91.5578 258.267 91.6049 258.137 91.5892 257.968C91.5835 257.903 91.5578 257.861 91.5069 257.833C91.1565 257.641 89.957 258.097 89.0954 258.511Z" fill="#0053CC"/>
<path d="M88.7057 258.69C88.6806 258.69 88.6555 258.683 88.6341 258.668C88.5977 258.642 88.5782 258.6 88.582 258.556C88.587 258.496 88.7082 257.079 89.3695 256.529C89.5724 256.36 89.8041 256.287 90.0597 256.314C90.4045 256.349 90.5043 256.524 90.5275 256.666C90.6249 257.261 89.3846 258.396 88.7572 258.679C88.7409 258.686 88.7233 258.69 88.7057 258.69ZM89.9598 256.558C89.8016 256.558 89.6603 256.611 89.529 256.72C89.0945 257.082 88.9199 257.931 88.8589 258.343C89.4983 257.956 90.3398 257.063 90.282 256.706C90.277 256.676 90.2625 256.585 90.0346 256.562C90.0088 256.559 89.9843 256.558 89.9598 256.558Z" fill="#0053CC"/>
<path d="M76.2481 95.5251C76.8598 98.6462 78.2426 104.968 76.0591 107.051C76.0591 107.051 76.9125 110.218 82.7121 110.218C89.0895 110.218 85.7598 107.052 85.7598 107.052C82.2788 106.221 82.3686 103.638 82.9753 101.213L76.2481 95.5251Z" fill="#FF8B7B"/>
<path d="M88.4509 88.2717C88.4031 88.2717 88.3554 88.2585 88.3133 88.2296C88.1984 88.1536 88.1676 87.9985 88.2443 87.8842C89.0073 86.7387 90.159 86.75 90.2074 86.735C90.3449 86.7362 90.4555 86.8493 90.4542 86.9868C90.4523 87.1243 90.333 87.248 90.2036 87.2336C90.1609 87.2336 89.2673 87.2474 88.6594 88.1599C88.611 88.2321 88.5319 88.2717 88.4509 88.2717Z" fill="#0F264C"/>
<path d="M89.9731 91.2101C89.9731 91.2101 90.6928 93.0369 91.4854 93.918C90.9252 94.4411 89.9731 94.2019 89.9731 94.2019V91.2101Z" fill="#FF5652"/>
<path d="M89.5928 90.481C89.5928 90.9055 89.8176 91.249 90.0952 91.249C90.3728 91.249 90.5976 90.9049 90.5976 90.481C90.5976 90.0565 90.3728 89.713 90.0952 89.713C89.8176 89.713 89.5928 90.0571 89.5928 90.481Z" fill="#0F264C"/>
<path d="M89.9731 89.7362L90.9924 89.4423C90.9924 89.4423 90.4693 90.2386 89.9731 89.7362Z" fill="#0F264C"/>
<path d="M82.9219 258.566H88.182L88.5337 246.384H83.2729L82.9219 258.566Z" fill="#FF8B7B"/>
<path d="M59.0215 258.566H64.2816L65.9728 246.384H60.7127L59.0215 258.566Z" fill="#FF8B7B"/>
<path d="M64.608 257.957H58.6985C58.4837 257.957 58.3092 258.106 58.279 258.316L57.6058 262.991C57.5361 263.476 57.9531 263.935 58.4492 263.927C60.5097 263.892 61.5025 263.771 64.1012 263.771C65.7001 263.771 68.0362 263.936 70.2437 263.936C72.4033 263.936 72.5691 261.753 71.6497 261.556C67.5276 260.669 66.8763 259.446 65.4872 258.28C65.2366 258.07 64.9226 257.957 64.608 257.957Z" fill="#14365B"/>
<path d="M88.3619 257.957H82.4524C82.2376 257.957 82.0631 258.106 82.0329 258.316L81.3597 262.991C81.29 263.476 81.707 263.935 82.2031 263.927C84.2636 263.892 85.2564 263.771 87.8551 263.771C89.454 263.771 92.761 263.936 94.9691 263.936C97.1288 263.936 97.2946 261.753 96.3752 261.556C92.253 260.669 90.6302 259.446 89.2417 258.28C88.9911 258.07 88.6765 257.957 88.3619 257.957Z" fill="#14365B"/>
<path d="M88.5322 246.387L88.352 252.666H83.0894L83.2696 246.387H88.5322Z" fill="#EA7063"/>
<path d="M60.7106 246.387H65.9732L65.0991 252.666H59.8364L60.7106 246.387Z" fill="#EA7063"/>
<path d="M94.6515 108.399C94.6515 108.399 97.1572 109.282 92.1376 140.148C83.6602 140.148 74.8984 140.148 70.7737 140.148C71.1322 131.452 71.1423 126.091 66.9868 108.246C66.9868 108.246 71.4632 107.272 76.0589 107.051C79.6542 106.878 82.5995 106.763 85.7603 107.052C89.9264 107.432 94.6515 108.399 94.6515 108.399Z" fill="#407BFF"/>
<path d="M90.3799 121.963L94.0254 126.053L94.4876 118.039L90.3799 121.963Z" fill="#236AE8"/>
<path d="M106.495 126.44C105.695 127.542 104.843 128.668 103.995 129.727C103.144 130.78 102.256 131.814 101.37 132.608C101.252 132.714 101.13 132.814 101.009 132.908L100.817 132.337C100.62 131.69 100.416 131.05 100.235 130.384C99.4838 127.744 98.8188 125.023 98.172 122.297L96.3068 114.096L91.041 115.189C91.6081 118.023 92.243 120.797 92.9746 123.579C93.3332 124.968 93.7125 126.357 94.1038 127.745C94.5208 129.131 94.9371 130.513 95.415 131.904C95.6436 132.596 95.9149 133.294 96.173 133.989L96.5982 135.043C96.6547 135.186 96.7822 135.485 96.9241 135.741C97.0598 136.001 97.2494 136.294 97.4849 136.584C97.7386 136.88 98.0388 137.188 98.4759 137.452C98.903 137.714 99.4349 137.901 99.9479 137.953C100.999 138.051 101.752 137.725 102.278 137.447C103.34 136.849 103.905 136.203 104.463 135.57C105.53 134.303 106.298 133.017 107.01 131.707C107.364 131.054 107.69 130.392 107.991 129.721C108.298 129.048 108.587 128.391 108.853 127.677L106.495 126.44Z" fill="#FF8B7B"/>
<path d="M94.6515 108.399C96.8194 108.951 98.336 117.873 98.336 117.873L89.9723 123.561C89.9723 123.561 86.6332 112.936 88.3012 110.552C90.0382 108.069 91.4876 107.593 94.6515 108.399Z" fill="#407BFF"/>
<path d="M107.708 128.45L112.399 126.761L109.363 124.27C109.363 124.27 105.779 124.73 105.713 127.601L107.708 128.45Z" fill="#FF8B7B"/>
<path d="M115.016 125.09L115.605 123.866L109.363 124.27L112.399 126.761L115.016 125.09Z" fill="#FF8B7B"/>
<path d="M111.227 124.149L110.624 123.48L111.392 121.684L110.306 121.806L107.182 125.082L111.227 124.149Z" fill="#FF8B7B"/>
<path d="M75.3273 89.0246C75.647 94.2358 75.6714 96.4482 78.3034 99.1222C82.2623 103.145 88.5925 101.613 89.836 96.4112C90.9551 91.7294 90.2436 83.9944 85.1429 81.9207C80.1177 79.8778 75.007 83.8135 75.3273 89.0246Z" fill="#FF8B7B"/>
<path d="M86.4945 140.151C86.4945 140.151 85.967 146.393 85.1192 155.141C85.1192 155.147 85.1192 155.147 85.1192 155.147C84.0892 165.849 82.5883 180.293 80.9995 191.697C80.7608 193.405 80.5159 195.051 80.2773 196.602C77.715 213.036 66.3671 251.451 66.3671 251.451H59.1953C59.1953 251.451 65.1111 214.349 66.4048 198.096C69.6955 156.962 63.9304 149.684 70.7756 140.151H86.4945Z" fill="#0053CC"/>
<path d="M85.1191 155.141C85.1191 155.147 85.1191 155.147 85.1191 155.147C84.0892 165.849 82.5883 180.293 80.9995 191.697C79.4106 186.836 76.5174 169.841 79.0483 154.907C80.5743 145.901 83.5303 149.841 85.1191 155.141Z" fill="#004DAA"/>
<path d="M92.1378 140.148C92.1378 140.148 96.2869 180.669 95.9422 196.71C95.5836 213.396 89.4694 251.45 89.4694 251.45H82.3567C82.3567 251.45 83.482 214.37 82.8534 197.983C82.1676 180.119 76.4937 140.147 76.4937 140.147L92.1378 140.148Z" fill="#0053CC"/>
<path d="M67.1961 251.817H58.3695L58.2075 248.786L67.8762 248.531L67.1961 251.817Z" fill="#407BFF"/>
<path d="M90.3818 251.817H81.5553L81.2212 248.531H91.062L90.3818 251.817Z" fill="#407BFF"/>
<path d="M66.9862 108.247C64.8007 108.726 61.8579 116.755 61.8579 116.755L71.0732 122.077C71.0732 122.077 73.7723 115.773 72.728 113.058C71.6403 110.231 69.5691 107.681 66.9862 108.247Z" fill="#407BFF"/>
<path d="M79.7869 79.7679C72.5115 79.2323 69.9065 84.4616 71.1506 90.785C72.5121 97.7055 70.127 100.759 67.4134 103.307C65.2983 105.293 64.5114 108.977 66.2893 113.784C67.7544 117.747 65.8942 120.016 66.3238 123.324C66.7854 126.873 72.7363 128.407 76.0584 124.902C79.2675 121.517 78.5133 119.212 81.343 118.134C85.8521 116.416 90.0258 113.597 88.923 108.461C88.2109 105.144 84.0818 102.871 85.317 98.564C86.7137 93.6957 92.3444 80.6924 79.7869 79.7679Z" fill="#0F264C"/>
<path d="M74.2866 81.169L86.6281 90.481C86.7424 88.8878 88.3645 86.2885 89.5163 84.6984C91.2954 82.2416 81.7184 72.7431 74.2866 81.169Z" fill="#0F264C"/>
<path d="M85.0332 91.1222C85.0282 92.1816 85.4716 93.1895 86.0412 93.8558C86.8978 94.8581 87.9007 94.2728 88.1431 93.0847C88.3616 92.0152 88.1795 90.2047 87.0881 89.6363C86.0129 89.0768 85.0389 89.9108 85.0332 91.1222Z" fill="#FF8B7B"/>
<path d="M70.4534 138.894L69.49 140.806C69.4153 140.955 69.5911 141.106 69.8379 141.106H92.2431C92.4359 141.106 92.5954 141.012 92.6073 140.891L92.8001 138.978C92.8133 138.846 92.6463 138.733 92.4359 138.733H70.8013C70.6424 138.733 70.5017 138.798 70.4534 138.894Z" fill="#0F264C"/>
<path d="M73.359 141.313H72.7793C72.6638 141.313 72.5759 141.254 72.584 141.181L72.8559 138.697C72.8641 138.624 72.9646 138.564 73.0801 138.564H73.6598C73.7753 138.564 73.8633 138.624 73.8551 138.697L73.5832 141.181C73.575 141.254 73.4745 141.313 73.359 141.313Z" fill="#9FC6FF"/>
<path d="M87.4039 141.313H86.8243C86.7087 141.313 86.6208 141.254 86.6289 141.181L86.9009 138.697C86.909 138.624 87.0095 138.564 87.1251 138.564H87.7047C87.8203 138.564 87.9082 138.624 87.9 138.697L87.6281 141.181C87.6199 141.254 87.5194 141.313 87.4039 141.313Z" fill="#9FC6FF"/>
<path d="M119.572 100.477C119.207 96.0978 115.258 92.8774 110.85 93.4615C107.136 93.9532 104.247 97.1472 104.152 100.893C104.082 103.648 105.423 106.033 107.462 107.453C108.62 108.259 109.633 109.255 110.525 110.348L111.875 112.001L113.228 110.343C114.111 109.263 115.103 108.266 116.252 107.475C118.456 105.956 119.81 103.336 119.572 100.477Z" fill="white"/>
<path d="M112.337 106.703C110.572 106.854 108.927 106.163 107.796 104.964C107.79 104.958 107.79 104.958 107.784 104.951C107.508 104.656 107.263 104.33 107.049 103.978C106.635 103.268 106.365 102.458 106.289 101.579C106.032 98.4955 108.324 95.7888 111.414 95.5314C113.681 95.343 115.753 96.5299 116.783 98.4076C116.84 98.5018 116.89 98.596 116.934 98.6965C117.223 99.2931 117.405 99.9525 117.461 100.656C117.719 103.739 115.427 106.446 112.337 106.703Z" fill="#0F264C"/>
<path d="M112.337 106.703C110.572 106.854 108.927 106.163 107.796 104.964C107.79 104.958 107.79 104.958 107.784 104.951C107.639 104.763 107.508 104.568 107.388 104.367C107.112 103.777 106.936 103.13 106.873 102.439C106.622 99.3559 108.914 96.6492 111.998 96.3854C113.894 96.2284 115.653 97.0385 116.783 98.4076C116.84 98.5018 116.89 98.596 116.934 98.6965C117.223 99.2931 117.405 99.9525 117.461 100.656C117.719 103.739 115.427 106.446 112.337 106.703Z" fill="#407BFF"/>
</svg>
