<svg width="24" height="28" viewBox="0 0 24 28" fill="none" xmlns="http://www.w3.org/2000/svg">
<path d="M20.0002 3.97338C17.8785 1.85164 15.0008 0.659668 12.0002 0.659668C8.99965 0.659668 6.12196 1.85164 4.00023 3.97338C1.8785 6.09511 0.686523 8.9728 0.686523 11.9734C0.686523 14.974 1.8785 17.8516 4.00023 19.9734L11.0269 27.0134C11.1508 27.1383 11.2983 27.2375 11.4608 27.3052C11.6233 27.3729 11.7975 27.4078 11.9736 27.4078C12.1496 27.4078 12.3239 27.3729 12.4863 27.3052C12.6488 27.2375 12.7963 27.1383 12.9202 27.0134L20.0002 19.9067C22.1131 17.7938 23.3001 14.9281 23.3001 11.94C23.3001 8.95197 22.1131 6.08628 20.0002 3.97338ZM18.0936 18L12.0002 24.12L5.9069 18C4.70309 16.7951 3.88353 15.2604 3.55182 13.5898C3.22012 11.9192 3.39115 10.1877 4.0433 8.61428C4.69546 7.04086 5.79945 5.69611 7.21574 4.75001C8.63202 3.80392 10.297 3.29895 12.0002 3.29895C13.7035 3.29895 15.3684 3.80392 16.7847 4.75001C18.201 5.69611 19.305 7.04086 19.9572 8.61428C20.6093 10.1877 20.7803 11.9192 20.4486 13.5898C20.1169 15.2604 19.2974 16.7951 18.0936 18ZM8.00023 7.88004C6.92385 8.95974 6.31942 10.4221 6.31942 11.9467C6.31942 13.4713 6.92385 14.9337 8.00023 16.0134C8.79991 16.8144 9.81835 17.3615 10.9278 17.5859C12.0372 17.8103 13.1882 17.7022 14.2363 17.2749C15.2845 16.8477 16.1831 16.1204 16.8195 15.1844C17.4559 14.2483 17.8017 13.1452 17.8136 12.0134C17.8196 11.2576 17.674 10.5084 17.3854 9.80989C17.0969 9.1114 16.6712 8.47785 16.1336 7.94671C15.6051 7.40615 14.975 6.97543 14.2795 6.67933C13.5839 6.38323 12.8367 6.22761 12.0808 6.22141C11.3248 6.21522 10.5752 6.35857 9.87486 6.64323C9.17456 6.92788 8.53746 7.34822 8.00023 7.88004ZM14.2536 14.12C13.7483 14.633 13.0805 14.9546 12.3644 15.0297C11.6483 15.1048 10.9283 14.9289 10.3276 14.5319C9.72683 14.135 9.28263 13.5417 9.07091 12.8535C8.85919 12.1653 8.8931 11.4249 9.16684 10.7589C9.44059 10.0929 9.93716 9.54273 10.5717 9.20236C11.2062 8.86199 11.9392 8.75259 12.6455 8.89287C13.3517 9.03314 13.9873 9.41439 14.4436 9.97142C14.8998 10.5284 15.1485 11.2267 15.1469 11.9467C15.1275 12.7697 14.7822 13.5514 14.1869 14.12H14.2536Z" fill="#1F1F1F"/>
</svg>
