<svg width="24" height="25" viewBox="0 0 24 25" fill="none" xmlns="http://www.w3.org/2000/svg">
<g id="u:navigator">
<path id="Vector" d="M20.17 9.72991L6.17001 3.94991C5.64029 3.73069 5.05884 3.66785 4.49451 3.76882C3.93018 3.86979 3.4066 4.13034 2.98575 4.51963C2.5649 4.90891 2.2644 5.41064 2.11983 5.9654C1.97526 6.52016 1.99268 7.10473 2.17001 7.64991L3.71001 12.4999L2.13001 17.3499C1.94788 17.8973 1.92742 18.4855 2.07108 19.0442C2.21475 19.6029 2.51644 20.1083 2.94001 20.4999C3.48465 21.005 4.19729 21.29 4.94001 21.2999C5.33474 21.2996 5.72554 21.2215 6.09001 21.0699L20.14 15.2899C20.6872 15.0623 21.1547 14.6778 21.4836 14.1848C21.8125 13.6919 21.988 13.1125 21.988 12.5199C21.988 11.9273 21.8125 11.348 21.4836 10.855C21.1547 10.362 20.6872 9.97747 20.14 9.74991L20.17 9.72991ZM5.36001 19.1999C5.18361 19.2727 4.99007 19.2934 4.80225 19.2598C4.61442 19.2261 4.44015 19.1394 4.30001 19.0099C4.168 18.8838 4.07304 18.7239 4.02545 18.5476C3.97785 18.3713 3.97943 18.1854 4.03001 18.0099L5.49001 13.4999H19.22L5.36001 19.1999ZM5.49001 11.4999L4.00001 7.02991C3.94943 6.85446 3.94785 6.66851 3.99545 6.49222C4.04304 6.31594 4.138 6.15606 4.27001 6.02991C4.36412 5.93118 4.47742 5.85275 4.60296 5.79944C4.7285 5.74613 4.86362 5.71906 5.00001 5.71991C5.13406 5.72016 5.26669 5.74737 5.39001 5.79991L19.22 11.4999H5.49001Z" fill="white"/>
</g>
</svg>
