<svg width="16" height="16" viewBox="0 0 16 16" fill="none" xmlns="http://www.w3.org/2000/svg">
<g id="pencil">
<path id="Icon" d="M6.43774 11.3334L4.6665 11.3334L4.6665 9.33338M4.06824 9.93164L11.6072 2.39272C12.1279 1.87202 12.9721 1.87202 13.4928 2.39272C14.0135 2.91342 14.0135 3.75764 13.4928 4.27834L5.84267 11.9284C5.4853 12.2858 5.30661 12.4645 5.1088 12.6181C4.9331 12.7546 4.74632 12.8762 4.5504 12.9816C4.32983 13.1002 4.0941 13.1912 3.62263 13.3733L2 13.9999L2.52208 12.4335C2.70026 11.8989 2.78935 11.6316 2.91326 11.382C3.02331 11.1603 3.15369 10.9494 3.30273 10.7518C3.47055 10.5293 3.66978 10.3301 4.06824 9.93164Z" stroke="#131A29" stroke-width="1.5" stroke-linecap="round" stroke-linejoin="round"/>
</g>
</svg>
