<svg width="19" height="24" viewBox="0 0 19 24" fill="none" xmlns="http://www.w3.org/2000/svg">
<path d="M3.49386 9.00705C3.49386 12.3161 6.18486 15.0071 9.49386 15.0071C12.8029 15.0071 15.4939 12.3161 15.4939 9.00705V6.25705L17.4939 4.75705V2.13805L11.3379 0.239051L11.3119 0.231051C10.1229 -0.0659495 8.86486 -0.0679495 7.64786 0.239051L1.49386 2.13805V4.75705L3.49386 6.25705V9.00705ZM9.49386 14.0071C6.73686 14.0071 4.49386 11.7641 4.49386 9.00705V8.28605C5.34186 8.60105 6.93086 9.00705 9.49386 9.00705C12.0569 9.00705 13.6459 8.60105 14.4939 8.28605V9.00705C14.4939 11.7641 12.2509 14.0071 9.49386 14.0071ZM2.49386 4.25705V2.87605L7.91686 1.20105C8.94386 0.943051 10.0299 0.942051 11.0569 1.19705L16.4949 2.87605V4.25705L14.4949 5.75705V7.20505C13.9569 7.45205 12.4249 8.00705 9.49486 8.00705C6.56486 8.00705 5.02886 7.45105 4.49486 7.20505V5.75705L2.49386 4.25705ZM9.49386 6.09005L6.22286 4.12705L6.73686 3.27005L9.49486 4.92405L12.2529 3.27005L12.7669 4.12705L9.49586 6.09005H9.49386ZM13.4939 15.9911H11.2109L9.49386 18.8521L7.77686 15.9911H5.50586C2.74886 15.9911 0.505859 18.2341 0.505859 20.9911V23.9911H1.50586V20.9911C1.50586 18.7851 3.29986 16.9911 5.50586 16.9911H7.20986L8.44586 19.0511L6.79986 23.9911H12.1869L10.5409 19.0511L11.7769 16.9911H13.4939C15.6999 16.9911 17.4939 18.7851 17.4939 20.9911V23.9911H18.4939V20.9911C18.4939 18.2341 16.2509 15.9911 13.4939 15.9911ZM10.8009 22.9911H8.18786L9.49486 19.0721L10.8009 22.9911Z" fill="white"/>
</svg>
