<svg width="26" height="24" viewBox="0 0 26 24" fill="none" xmlns="http://www.w3.org/2000/svg">
<path d="M13 16.6666C12.7693 16.6666 12.5437 16.735 12.3519 16.8632C12.16 16.9914 12.0105 17.1736 11.9222 17.3868C11.8339 17.6 11.8108 17.8345 11.8558 18.0609C11.9008 18.2872 12.0119 18.495 12.1751 18.6582C12.3382 18.8214 12.5461 18.9325 12.7724 18.9775C12.9988 19.0225 13.2333 18.9994 13.4465 18.9111C13.6597 18.8228 13.8419 18.6733 13.9701 18.4814C14.0983 18.2896 14.1667 18.064 14.1667 17.8332C14.1667 17.5238 14.0438 17.2271 13.825 17.0083C13.6062 16.7895 13.3095 16.6666 13 16.6666ZM25.4484 18.3816L16.0567 2.04824C15.7532 1.50401 15.3098 1.05069 14.7724 0.735123C14.2351 0.419553 13.6232 0.253174 13 0.253174C12.3769 0.253174 11.765 0.419553 11.2277 0.735123C10.6903 1.05069 10.2469 1.50401 9.94338 2.04824L0.610044 18.3816C0.295972 18.9113 0.12721 19.5144 0.120795 20.1302C0.114381 20.746 0.270541 21.3525 0.57351 21.8886C0.87648 22.4248 1.31553 22.8714 1.84634 23.1836C2.37715 23.4958 2.98093 23.6624 3.59671 23.6666H22.4034C23.0241 23.6727 23.6353 23.5136 24.1743 23.2056C24.7132 22.8977 25.1606 22.4519 25.4705 21.914C25.7804 21.3762 25.9417 20.7656 25.9378 20.1448C25.9339 19.5241 25.765 18.9155 25.4484 18.3816ZM23.43 20.7149C23.3278 20.8969 23.1786 21.048 22.998 21.1527C22.8174 21.2573 22.6121 21.3116 22.4034 21.3099H3.59671C3.38801 21.3116 3.18266 21.2573 3.00208 21.1527C2.8215 21.048 2.67231 20.8969 2.57004 20.7149C2.46765 20.5376 2.41374 20.3364 2.41374 20.1316C2.41374 19.9268 2.46765 19.7256 2.57004 19.5482L11.9034 3.21491C12.0013 3.02381 12.15 2.86343 12.3332 2.75144C12.5164 2.63945 12.727 2.5802 12.9417 2.5802C13.1564 2.5802 13.367 2.63945 13.5502 2.75144C13.7334 2.86343 13.8821 3.02381 13.98 3.21491L23.3717 19.5482C23.4875 19.7231 23.554 19.9258 23.5642 20.1352C23.5745 20.3446 23.5281 20.5529 23.43 20.7382V20.7149ZM13 7.33324C12.6906 7.33324 12.3939 7.45616 12.1751 7.67495C11.9563 7.89374 11.8334 8.19049 11.8334 8.49991V13.1666C11.8334 13.476 11.9563 13.7727 12.1751 13.9915C12.3939 14.2103 12.6906 14.3332 13 14.3332C13.3095 14.3332 13.6062 14.2103 13.825 13.9915C14.0438 13.7727 14.1667 13.476 14.1667 13.1666V8.49991C14.1667 8.19049 14.0438 7.89374 13.825 7.67495C13.6062 7.45616 13.3095 7.33324 13 7.33324Z" fill="white"/>
</svg>
