<svg width="25" height="22" viewBox="0 0 25 22" fill="none" xmlns="http://www.w3.org/2000/svg">
<path d="M23.9152 8.746L20.1522 2.246C19.3502 0.861 17.8582 0 16.2572 0H8.71216C7.11116 0 5.62016 0.86 4.81816 2.246L1.05616 8.746C0.25016 10.137 0.25016 11.864 1.05616 13.255L4.82016 19.754C5.62216 21.14 7.11316 22 8.71416 22H16.2592C17.8602 22 19.3522 21.14 20.1542 19.755L23.9172 13.255C24.7232 11.864 24.7232 10.136 23.9172 8.746H23.9152ZM23.0502 12.753L19.2872 19.254C18.6642 20.331 17.5032 21 16.2582 21H8.71316C7.46916 21 6.30816 20.331 5.68516 19.253L1.92116 12.753C1.29516 11.672 1.29516 10.328 1.92116 9.247L5.68516 2.747C6.30816 1.67 7.46916 1 8.71316 1H16.2582C17.5032 1 18.6642 1.669 19.2872 2.747L23.0502 9.247C23.6762 10.329 23.6762 11.672 23.0502 12.753ZM17.5002 11C17.5002 11.276 17.2762 11.5 17.0002 11.5H8.00016C7.72416 11.5 7.50016 11.276 7.50016 11C7.50016 10.724 7.72416 10.5 8.00016 10.5H17.0002C17.2762 10.5 17.5002 10.724 17.5002 11Z" fill="white"/>
</svg>
