<svg width="25" height="24" viewBox="0 0 25 24" fill="none" xmlns="http://www.w3.org/2000/svg">
<g clip-path="url(#clip0_443_14794)">
<path d="M24.523 24L19.951 13.84L16.479 18.8L5.98002 11.617L7.28002 7.98C7.42402 7.578 7.73502 7.255 8.13402 7.095C8.30002 7.023 8.49002 6.985 8.68802 6.985C8.91902 6.985 9.15202 7.04 9.36002 7.144L10.141 7.487C10.991 7.907 11.601 8.592 11.908 9.436L13.53 14.017L14.47 13.675L12.845 9.087C12.453 8.009 11.667 7.128 10.634 6.612L9.85202 6.269C9.16602 5.931 8.42002 5.901 7.75902 6.167C7.09702 6.433 6.57902 6.971 6.33802 7.643L5.12602 11.033L1.81902 8.771L1.25502 9.597L15.905 19.619L12.839 23.999L24.523 24ZM22.976 23H14.759L19.761 15.855L22.976 23ZM12 5C13.379 5 14.5 3.879 14.5 2.5C14.5 1.121 13.379 0 12 0C10.621 0 9.50002 1.121 9.50002 2.5C9.50002 3.879 10.621 5 12 5ZM12 1C12.827 1 13.5 1.673 13.5 2.5C13.5 3.327 12.827 4 12 4C11.173 4 10.5 3.327 10.5 2.5C10.5 1.673 11.173 1 12 1ZM4.90502 14.421L1.55102 23.987L0.499023 24L4.06402 13.846L4.90502 14.421ZM9.50002 17.538L10.5 18.222V23.999H9.50002V17.538Z" fill="white"/>
</g>
<defs>
<clipPath id="clip0_443_14794">
<rect width="24" height="24" fill="white" transform="translate(0.5)"/>
</clipPath>
</defs>
</svg>
