<svg width="20" height="28" viewBox="0 0 20 28" fill="none" xmlns="http://www.w3.org/2000/svg">
<path d="M15.3334 0.666748H4.66676C3.60589 0.666748 2.58848 1.08818 1.83833 1.83832C1.08819 2.58847 0.666759 3.60588 0.666759 4.66675V26.0001C0.665826 26.235 0.726991 26.4661 0.844062 26.6698C0.961134 26.8735 1.12995 27.0426 1.33343 27.1601C1.53612 27.2771 1.76604 27.3387 2.00009 27.3387C2.23414 27.3387 2.46407 27.2771 2.66676 27.1601L10.0001 22.9201L17.3334 27.1601C17.5366 27.2753 17.7665 27.335 18.0001 27.3334C18.2337 27.335 18.4636 27.2753 18.6668 27.1601C18.8702 27.0426 19.039 26.8735 19.1561 26.6698C19.2732 26.4661 19.3344 26.235 19.3334 26.0001V4.66675C19.3334 3.60588 18.912 2.58847 18.1619 1.83832C17.4117 1.08818 16.3943 0.666748 15.3334 0.666748ZM16.6668 23.6934L10.6668 20.2267C10.4641 20.1097 10.2341 20.0481 10.0001 20.0481C9.76604 20.0481 9.53612 20.1097 9.33342 20.2267L3.33343 23.6934V4.66675C3.33343 4.31313 3.4739 3.97399 3.72395 3.72394C3.974 3.47389 4.31314 3.33341 4.66676 3.33341H15.3334C15.687 3.33341 16.0262 3.47389 16.2762 3.72394C16.5263 3.97399 16.6668 4.31313 16.6668 4.66675V23.6934Z" fill="#262626"/>
</svg>
