<svg width="24" height="24" viewBox="0 0 24 24" fill="none" xmlns="http://www.w3.org/2000/svg">
<circle cx="12" cy="12" r="10.5" fill="#FFFA37"/>
<path fill-rule="evenodd" clip-rule="evenodd" d="M15.7692 6.13913C15.045 5.2266 13.8504 4.5 12.0088 4.5C10.4318 4.51553 7.27784 5.38834 7.27784 8.75533C7.27784 9.24706 7.31676 9.90561 7.35077 10.3906C7.31069 10.3789 7.26141 10.3571 7.18331 10.3197L7.17246 10.3145C7.03436 10.2482 6.82438 10.1474 6.53235 10.1474C6.23734 10.1474 5.95209 10.2629 5.74032 10.4343C5.52982 10.6046 5.35 10.8664 5.35 11.1829C5.35 11.5788 5.57281 11.8416 5.83333 12.0101C6.06474 12.1598 6.35654 12.2554 6.58752 12.3311L6.61036 12.3386C6.85762 12.4197 7.03882 12.4815 7.16377 12.5594C7.26102 12.62 7.27578 12.6584 7.27761 12.6948C7.27634 12.7 7.27337 12.7112 7.2669 12.7293C7.25356 12.7668 7.23138 12.8174 7.19896 12.8807C7.1343 13.007 7.04001 13.1623 6.92783 13.328C6.70154 13.6621 6.42538 14.0048 6.21909 14.2032C6.01561 14.3989 5.68172 14.6422 5.33262 14.8358C5.1595 14.9318 4.9902 15.0114 4.83875 15.066C4.68242 15.1225 4.56785 15.144 4.49706 15.144C4.44102 15.144 4.39252 15.1555 4.37135 15.1608C4.3416 15.1682 4.31081 15.178 4.28034 15.1895C4.21993 15.2122 4.14792 15.2463 4.0766 15.2942C3.94033 15.386 3.75 15.5709 3.75 15.8626C3.75 16.0149 3.78575 16.1438 3.84754 16.2556C3.90163 16.3535 3.97115 16.4278 4.01117 16.4706L4.01711 16.4769L4.02818 16.4888C4.24826 16.7256 4.61256 16.8903 4.96621 17.0034C5.27009 17.1005 5.60985 17.1729 5.94091 17.2163C5.94559 17.2377 5.95048 17.2607 5.95583 17.2859L5.95755 17.294C5.97839 17.3923 6.006 17.5225 6.04666 17.6425C6.08502 17.7558 6.15449 17.9233 6.29673 18.0426C6.47788 18.1945 6.71481 18.2099 6.8694 18.2092C7.03535 18.2086 7.22911 18.1852 7.41296 18.163L7.42861 18.1612C7.68731 18.13 7.95793 18.0978 8.23823 18.0978C8.74976 18.0978 9.07762 18.3115 9.59206 18.6628L9.59554 18.6652C9.77372 18.7869 9.97323 18.9231 10.2 19.0571C10.9591 19.5057 11.5759 19.5018 11.9255 19.4996C11.9486 19.4995 11.9705 19.4994 11.9912 19.4994C12.0119 19.4994 12.0339 19.4995 12.0571 19.4997C12.4072 19.5019 13.0405 19.506 13.8 19.0571C14.0268 18.9231 14.2263 18.7869 14.4045 18.6652L14.4079 18.6628C14.9224 18.3115 15.2502 18.0978 15.7618 18.0978C16.0421 18.0978 16.3127 18.13 16.5714 18.1612L16.587 18.163C16.7709 18.1852 16.9646 18.2086 17.1306 18.2092C17.2852 18.2099 17.5221 18.1945 17.7033 18.0426C17.8455 17.9233 17.915 17.7558 17.9533 17.6425C17.994 17.5225 18.0216 17.3923 18.0424 17.294L18.0442 17.2859C18.0495 17.2607 18.0544 17.2377 18.0591 17.2163C18.3902 17.1729 18.7299 17.1005 19.0338 17.0034C19.3874 16.8903 19.7518 16.7255 19.9719 16.4888L19.9829 16.4769L19.9888 16.4706C20.0288 16.4278 20.0984 16.3535 20.1525 16.2556C20.2143 16.1438 20.25 16.0149 20.25 15.8626C20.25 15.5709 20.0597 15.386 19.9234 15.2942C19.8521 15.2463 19.7801 15.2122 19.7197 15.1895C19.6892 15.178 19.6584 15.1682 19.6287 15.1608C19.6075 15.1555 19.559 15.144 19.5029 15.144C19.4322 15.144 19.3176 15.1225 19.1612 15.066C19.0098 15.0114 18.8405 14.9318 18.6674 14.8358C18.3183 14.6422 17.9844 14.3989 17.7809 14.2032C17.5746 14.0048 17.2985 13.6621 17.0722 13.328C16.96 13.1623 16.8657 13.0071 16.801 12.8807C16.7686 12.8174 16.7464 12.7668 16.7331 12.7293C16.7266 12.7112 16.7237 12.7 16.7224 12.6948C16.7242 12.6583 16.739 12.62 16.8362 12.5594C16.9612 12.4815 17.1424 12.4197 17.3896 12.3386L17.4125 12.3311C17.6435 12.2554 17.9353 12.1598 18.1667 12.0101C18.4272 11.8416 18.65 11.5788 18.65 11.1829C18.65 10.8664 18.4702 10.6046 18.2597 10.4343C18.0479 10.2629 17.7627 10.1474 17.4676 10.1474C17.1756 10.1474 16.9656 10.2482 16.8275 10.3145L16.8167 10.3197C16.7386 10.3571 16.6893 10.3789 16.6492 10.3906C16.6832 9.90561 16.7222 9.24706 16.7222 8.75533C16.7222 8.08777 16.4795 7.03428 15.7692 6.13913ZM8.83742 6.57955C8.23662 7.33162 8.03078 8.22462 8.03078 8.75533C8.03078 9.2474 8.07246 9.93099 8.10764 10.4212C8.11932 10.584 8.08594 10.7737 7.94377 10.9244C7.79986 11.0768 7.60409 11.1263 7.4292 11.1263C7.17667 11.1263 6.9846 11.0339 6.86174 10.9748L6.84747 10.968C6.71038 10.9023 6.63831 10.8717 6.53235 10.8717C6.43596 10.8717 6.31828 10.9131 6.22496 10.9886C6.13036 11.0651 6.10294 11.14 6.10294 11.1829C6.10294 11.2702 6.13514 11.3325 6.25346 11.4091C6.3932 11.4995 6.59232 11.5674 6.85335 11.653L6.87607 11.6605C7.09284 11.7315 7.36133 11.8195 7.57321 11.9515C7.81104 12.0998 8.03078 12.338 8.03078 12.7051C8.03078 12.8013 8.00418 12.8939 7.9792 12.9641C7.9521 13.0402 7.91547 13.1206 7.87443 13.2007C7.79218 13.3614 7.68095 13.5428 7.55869 13.7234C7.31612 14.0815 7.00778 14.4688 6.7515 14.7154C6.49241 14.9646 6.10278 15.2447 5.70869 15.4633C5.51022 15.5734 5.30301 15.6721 5.10321 15.7442C4.92436 15.8087 4.7316 15.8593 4.54668 15.8672C4.54207 15.8691 4.53698 15.8715 4.53165 15.8741C4.52312 15.8784 4.51515 15.8831 4.50819 15.8878L4.50463 15.8902C4.50533 15.8952 4.50613 15.8989 4.50679 15.9015C4.50827 15.9073 4.51003 15.9114 4.51239 15.9157C4.51964 15.9288 4.53107 15.9434 4.57733 15.993L4.58946 16.006C4.67278 16.0957 4.87812 16.212 5.20361 16.316C5.51361 16.4151 5.88018 16.4867 6.2265 16.5195C6.39978 16.5359 6.49966 16.6442 6.54193 16.7025C6.58544 16.7626 6.61033 16.826 6.62487 16.8681C6.653 16.9495 6.67425 17.0499 6.69101 17.129L6.69356 17.141C6.71644 17.2489 6.73646 17.3411 6.76256 17.4182C6.77179 17.4454 6.7803 17.4662 6.78763 17.4814C6.80415 17.4833 6.82949 17.4851 6.8662 17.4849C7.02544 17.4843 7.18488 17.4606 7.34266 17.4415C7.5951 17.4111 7.90749 17.3735 8.23823 17.3735C9.00532 17.3735 9.5115 17.7193 10.0005 18.0534L10.0279 18.0722C10.2089 18.1958 10.3902 18.3195 10.5941 18.44C11.1688 18.7795 11.606 18.7771 11.9255 18.7753C11.948 18.7752 11.9699 18.7751 11.9912 18.7751C12.0123 18.7751 12.0341 18.7752 12.0565 18.7753C12.3794 18.777 12.8313 18.7795 13.4059 18.44C13.6098 18.3195 13.7911 18.1958 13.9721 18.0722L13.9995 18.0534C14.4885 17.7193 14.9947 17.3735 15.7618 17.3735C16.0925 17.3735 16.4049 17.4111 16.6573 17.4415L16.665 17.4425C16.8691 17.4671 17.0185 17.4845 17.1338 17.4849C17.1705 17.4851 17.1958 17.4833 17.2124 17.4814C17.2197 17.4662 17.2282 17.4454 17.2374 17.4182C17.2635 17.3411 17.2836 17.2489 17.3064 17.141L17.309 17.129C17.3258 17.0499 17.347 16.9495 17.3751 16.8681C17.3897 16.826 17.4146 16.7626 17.4581 16.7025C17.5003 16.6442 17.6002 16.5359 17.7735 16.5195C18.1198 16.4867 18.4864 16.4151 18.7964 16.316C19.1219 16.212 19.3272 16.0957 19.4105 16.006L19.4227 15.993C19.4689 15.9435 19.4804 15.9288 19.4876 15.9157C19.49 15.9114 19.4917 15.9073 19.4932 15.9015C19.4939 15.8989 19.4947 15.8952 19.4954 15.8902L19.4918 15.8878C19.4849 15.8831 19.4769 15.8784 19.4684 15.8741C19.463 15.8715 19.4579 15.8691 19.4533 15.8672C19.2684 15.8593 19.0756 15.8087 18.8968 15.7442C18.697 15.6721 18.4898 15.5734 18.2913 15.4633C17.8972 15.2447 17.5076 14.9646 17.2485 14.7154C16.9922 14.4688 16.6839 14.0815 16.4413 13.7234C16.319 13.5428 16.2078 13.3614 16.1256 13.2007C16.0845 13.1206 16.0479 13.0402 16.0208 12.9641C15.9958 12.8939 15.9692 12.8013 15.9692 12.7051C15.9692 12.338 16.189 12.0998 16.4268 11.9515C16.6387 11.8195 16.9072 11.7315 17.1239 11.6605L17.1467 11.653C17.4077 11.5674 17.6068 11.4995 17.7465 11.4091C17.8649 11.3325 17.8971 11.2702 17.8971 11.1829C17.8971 11.14 17.8696 11.0651 17.775 10.9886C17.6817 10.9131 17.564 10.8717 17.4676 10.8717C17.3617 10.8717 17.2896 10.9023 17.1525 10.968L17.1383 10.9748C17.0154 11.0339 16.8233 11.1263 16.5708 11.1263C16.3959 11.1263 16.2001 11.0768 16.0562 10.9244C15.9141 10.7737 15.8807 10.584 15.8924 10.4212C15.9275 9.93099 15.9692 9.2474 15.9692 8.75533C15.9692 8.22324 15.767 7.33014 15.1707 6.57862C14.5881 5.84448 13.6143 5.22431 12.0088 5.22431C10.4032 5.22431 9.42451 5.84466 8.83742 6.57955Z" fill="black"/>
<path fill-rule="evenodd" clip-rule="evenodd" d="M8.83719 6.57955C8.23638 7.33161 8.03054 8.22461 8.03054 8.75532C8.03054 9.2474 8.07222 9.93098 8.1074 10.4212C8.11908 10.584 8.0857 10.7737 7.94353 10.9243C7.79963 11.0768 7.60385 11.1263 7.42897 11.1263C7.17643 11.1263 6.98436 11.0339 6.8615 10.9748L6.84723 10.968C6.71015 10.9022 6.63807 10.8717 6.53212 10.8717C6.43573 10.8717 6.31804 10.9131 6.22472 10.9886C6.13012 11.0651 6.1027 11.14 6.1027 11.1829C6.1027 11.2702 6.1349 11.3325 6.25322 11.4091C6.39296 11.4995 6.59208 11.5674 6.85311 11.653L6.87583 11.6605C7.0926 11.7315 7.36109 11.8195 7.57297 11.9515C7.8108 12.0998 8.03054 12.338 8.03054 12.7051C8.03054 12.8013 8.00394 12.8939 7.97896 12.9641C7.95186 13.0402 7.91524 13.1206 7.87419 13.2007C7.79194 13.3614 7.68072 13.5428 7.55846 13.7233C7.31588 14.0815 7.00754 14.4688 6.75126 14.7154C6.49217 14.9646 6.10254 15.2447 5.70845 15.4633C5.50998 15.5734 5.30278 15.6721 5.10297 15.7442C4.92412 15.8087 4.73136 15.8593 4.54644 15.8672C4.54183 15.8691 4.53674 15.8715 4.53141 15.8741C4.52288 15.8784 4.51491 15.8831 4.50795 15.8877L4.50439 15.8902C4.50509 15.8952 4.50589 15.8989 4.50655 15.9015C4.50803 15.9073 4.50979 15.9114 4.51215 15.9157C4.5194 15.9288 4.53084 15.9434 4.57709 15.993L4.58922 16.006C4.67255 16.0956 4.87788 16.212 5.20338 16.316C5.51337 16.4151 5.87994 16.4866 6.22627 16.5195C6.39955 16.5359 6.49942 16.6442 6.54169 16.7025C6.58521 16.7626 6.61009 16.826 6.62463 16.8681C6.65276 16.9495 6.67401 17.0499 6.69077 17.129L6.69332 17.141C6.7162 17.2489 6.73622 17.3411 6.76232 17.4182C6.77155 17.4454 6.78007 17.4661 6.78739 17.4814C6.80392 17.4833 6.82925 17.4851 6.86596 17.4849C7.02521 17.4843 7.18464 17.4606 7.34243 17.4415C7.59486 17.4111 7.90725 17.3735 8.238 17.3735C9.00509 17.3735 9.51126 17.7193 10.0002 18.0534L10.0277 18.0722C10.2086 18.1958 10.3899 18.3194 10.5939 18.4399C11.1685 18.7795 11.6058 18.7771 11.9253 18.7753C11.9477 18.7752 11.9696 18.775 11.9909 18.775C12.0121 18.775 12.0338 18.7752 12.0562 18.7753C12.3792 18.777 12.8311 18.7795 13.4057 18.4399C13.6096 18.3194 13.7909 18.1958 13.9718 18.0722L13.9993 18.0534C14.4883 17.7193 14.9944 17.3735 15.7615 17.3735C16.0923 17.3735 16.4047 17.4111 16.6571 17.4415L16.6647 17.4425C16.8689 17.467 17.0182 17.4845 17.1336 17.4849C17.1703 17.4851 17.1956 17.4833 17.2121 17.4814C17.2195 17.4661 17.228 17.4454 17.2372 17.4182C17.2633 17.3411 17.2833 17.2489 17.3062 17.141L17.3088 17.129C17.3255 17.0499 17.3468 16.9495 17.3749 16.8681C17.3894 16.826 17.4143 16.7626 17.4578 16.7025C17.5001 16.6442 17.6 16.5359 17.7733 16.5195C18.1196 16.4866 18.4862 16.4151 18.7961 16.316C19.1216 16.212 19.327 16.0957 19.4103 16.006L19.4224 15.993C19.4687 15.9434 19.4801 15.9288 19.4874 15.9157C19.4897 15.9114 19.4915 15.9073 19.493 15.9015C19.4936 15.8989 19.4944 15.8952 19.4951 15.8902L19.4916 15.8877C19.4846 15.8831 19.4766 15.8784 19.4681 15.8741C19.4628 15.8715 19.4577 15.8691 19.4531 15.8672C19.2682 15.8593 19.0754 15.8087 18.8966 15.7442C18.6967 15.6721 18.4895 15.5734 18.2911 15.4633C17.897 15.2447 17.5074 14.9646 17.2483 14.7154C16.992 14.4688 16.6836 14.0815 16.4411 13.7233C16.3188 13.5428 16.2076 13.3614 16.1253 13.2007C16.0843 13.1206 16.0477 13.0402 16.0206 12.9641C15.9956 12.8939 15.969 12.8013 15.969 12.7051C15.969 12.338 16.1887 12.0998 16.4266 11.9515C16.6384 11.8195 16.9069 11.7315 17.1237 11.6605L17.1464 11.653C17.4074 11.5674 17.6066 11.4995 17.7463 11.4091C17.8646 11.3325 17.8968 11.2702 17.8968 11.1829C17.8968 11.14 17.8694 11.0651 17.7748 10.9886C17.6815 10.9131 17.5638 10.8717 17.4674 10.8717C17.3615 10.8717 17.2894 10.9022 17.1523 10.968L17.138 10.9748C17.0152 11.0339 16.8231 11.1263 16.5706 11.1263C16.3957 11.1263 16.1999 11.0768 16.056 10.9243C15.9138 10.7737 15.8804 10.5839 15.8921 10.4212C15.9273 9.93098 15.969 9.2474 15.969 8.75532C15.969 8.22323 15.7668 7.33014 15.1704 6.57861C14.5879 5.84447 13.614 5.2243 12.0086 5.2243C10.403 5.2243 9.42427 5.84466 8.83719 6.57955Z" fill="white"/>
</svg>
