<svg width="333" height="145" viewBox="0 0 333 145" fill="none" xmlns="http://www.w3.org/2000/svg">
<path d="M321.482 144.427L321.543 144.118L38.0534 144.149C38.0534 144.149 37.826 143.668 37.7717 143.577C37.7536 143.545 37.7312 143.507 37.7057 143.463C37.6696 143.401 37.6272 143.326 37.5783 143.241C37.5622 143.212 37.5442 143.181 37.525 143.148C37.4602 143.032 37.3868 142.902 37.305 142.752C37.2049 142.57 37.0933 142.363 36.9701 142.133V142.131C36.5108 141.271 35.9017 140.078 35.2095 138.596C34.9819 138.11 34.7471 137.592 34.5035 137.044C34.4069 136.825 34.3101 136.603 34.2112 136.376V136.374C34.1155 136.154 34.0197 135.93 33.9242 135.701C33.9209 135.694 33.9178 135.686 33.9145 135.679C33.8487 135.522 33.7816 135.362 33.7146 135.2C33.6445 135.034 33.5755 134.866 33.5052 134.696C33.148 133.819 32.7824 132.888 32.4186 131.905C32.4091 131.879 32.3995 131.853 32.39 131.828C32.39 131.828 32.39 131.828 32.39 131.826C32.1519 131.184 31.9148 130.52 31.6798 129.836C31.5501 129.46 31.4225 129.079 31.2949 128.691C31.2875 128.668 31.2789 128.644 31.2716 128.619C31.2153 128.447 31.16 128.275 31.1036 128.101C31.0569 127.954 31.0101 127.807 30.9644 127.66C30.8688 127.356 30.773 127.049 30.6784 126.739C30.5573 126.341 30.4372 125.936 30.3191 125.527C30.1597 124.971 30.0034 124.406 29.8514 123.832C29.8056 123.66 29.76 123.486 29.7153 123.313C29.5814 122.794 29.4496 122.268 29.3219 121.736C29.2805 121.565 29.24 121.394 29.2007 121.222C29.1752 121.116 29.1507 121.01 29.1263 120.903C28.9339 120.061 28.751 119.203 28.5808 118.329C28.3927 117.366 28.2194 116.385 28.0641 115.388C27.9207 114.467 27.791 113.531 27.6792 112.582C27.573 111.687 27.4826 110.781 27.4092 109.864C27.2348 107.72 27.1551 105.518 27.1891 103.276C27.2486 99.3714 27.658 95.3427 28.5383 91.264C28.5701 91.1154 28.6031 90.9677 28.6361 90.819C28.854 89.8482 29.0975 88.8763 29.3708 87.9023C29.578 87.1599 29.8023 86.4164 30.0437 85.6729C30.2192 85.1344 30.4031 84.5948 30.5965 84.0553C31.0345 82.8337 31.5203 81.6124 32.0583 80.3918C32.2061 80.0541 32.358 79.7163 32.5154 79.3786C35.4348 73.0854 39.7384 66.8516 45.8632 60.9544C45.9778 60.844 46.0928 60.7346 46.2065 60.6253C49.246 57.7245 52.2494 55.1996 55.2114 53.0084C55.3209 52.9278 55.4293 52.848 55.5377 52.7683C88.0612 28.9451 115.553 45.1113 130.141 44.2159C133.012 44.0406 135.533 42.9009 138.011 41.0974C142.551 37.7908 146.944 32.2485 153.073 26.2994C162.262 17.3826 175.348 7.55022 198.67 2.95529C227.529 -2.73035 267.175 -1.13616 284.326 15.9519C294.701 26.2888 296.846 42.2944 283.392 65.7891C282.574 67.2168 281.698 68.6739 280.763 70.159C279.977 71.406 279.292 72.5965 278.703 73.7321C277.223 76.5871 276.347 79.1044 275.977 81.3477C275.09 86.7382 277.129 90.5555 280.783 93.6943C281.773 94.544 282.878 95.3438 284.077 96.1127C284.154 96.1616 284.231 96.2105 284.307 96.2593C288.577 98.955 293.972 101.27 299.352 103.983C302.321 105.483 305.286 107.102 308.054 108.976C310.625 110.716 313.026 112.674 315.103 114.954C316.461 116.443 317.679 118.072 318.716 119.866C318.775 119.967 318.833 120.068 318.889 120.169C320.227 122.556 321.25 125.237 321.855 128.277C321.886 128.431 321.916 128.586 321.943 128.742C322.752 133.156 322.696 138.319 321.482 144.427Z" fill="#EBF3FA"/>
<path d="M283.392 65.7885L121.289 93.3275L109.659 79.395L284.326 15.9509C294.702 26.2878 296.845 42.2942 283.392 65.7885Z" fill="#F8FBFF"/>
<path d="M222.499 13.248L138.011 41.0966C142.551 37.79 146.944 32.2483 153.074 26.2994L222.499 13.248Z" fill="#F8FBFF"/>
<path d="M219.891 22.5388C217.84 22.5388 216.177 24.2003 216.177 26.2499C216.177 28.2997 217.84 29.9613 219.891 29.9613C221.943 29.9613 223.606 28.2997 223.606 26.2499C223.606 24.2003 221.943 22.5388 219.891 22.5388Z" fill="#F8FBFF"/>
<path d="M173.025 36.3218H153.734V130.043H173.025V36.3218Z" fill="#C4D9ED"/>
<path d="M177.358 36.3215H158.068V130.043H177.358V36.3215Z" fill="#D5E7F7"/>
<path d="M158.072 41.7124H177.357V36.2965H158.072V41.7124Z" fill="#C4D9ED"/>
<path d="M158.072 53.4585H177.357V48.0427H158.072V53.4585Z" fill="#C4D9ED"/>
<path d="M158.072 65.2051H177.357V59.7892H158.072V65.2051Z" fill="#C4D9ED"/>
<path d="M158.072 76.9509H177.357V71.5353H158.072V76.9509Z" fill="#C4D9ED"/>
<path d="M158.072 88.6968H177.357V83.2809H158.072V88.6968Z" fill="#C4D9ED"/>
<path d="M158.072 100.443H177.357V95.0269H158.072V100.443Z" fill="#C4D9ED"/>
<path d="M158.072 112.189H177.357V106.773H158.072V112.189Z" fill="#C4D9ED"/>
<path d="M158.072 123.935H177.357V118.519H158.072V123.935Z" fill="#C4D9ED"/>
<path d="M203.862 49.5835H184.572V130.043H203.862V49.5835Z" fill="#C4D9ED"/>
<path d="M208.194 49.5833H188.904V130.043H208.194V49.5833Z" fill="#D5E7F7"/>
<path d="M188.909 54.2114H208.195V49.5619H188.909V54.2114Z" fill="#C4D9ED"/>
<path d="M188.909 64.2952H208.195V59.6459H188.909V64.2952Z" fill="#C4D9ED"/>
<path d="M188.909 74.3792H208.195V69.7299H188.909V74.3792Z" fill="#C4D9ED"/>
<path d="M188.909 84.4629H208.195V79.8134H188.909V84.4629Z" fill="#C4D9ED"/>
<path d="M188.909 94.5469H208.195V89.8975H188.909V94.5469Z" fill="#C4D9ED"/>
<path d="M188.909 104.631H208.195V99.9816H188.909V104.631Z" fill="#C4D9ED"/>
<path d="M188.909 114.715H208.195V110.065H188.909V114.715Z" fill="#C4D9ED"/>
<path d="M188.909 124.799H208.195V120.149H188.909V124.799Z" fill="#C4D9ED"/>
<path d="M143.293 138.937H151.371V127.168H143.293V138.937Z" fill="#DCEAF9"/>
<path d="M145.76 111.113V143.787H60.1914L59.6088 143.782L37.771 143.577C37.7529 143.545 37.7305 143.507 37.705 143.463C37.6688 143.4 37.6264 143.326 37.5775 143.241C37.5614 143.212 37.5434 143.181 37.5243 143.148C37.4595 143.032 37.3861 142.901 37.3043 142.752C37.2042 142.57 37.0926 142.363 36.9693 142.132V142.131C36.5101 141.271 35.901 140.078 35.2087 138.596C34.9812 138.11 34.7463 137.592 34.5028 137.044C34.4062 136.825 34.3094 136.603 34.2105 136.375V136.374C34.1148 136.154 34.0189 135.93 33.9234 135.701C33.9202 135.694 33.917 135.686 33.9138 135.679C33.8479 135.521 33.7809 135.362 33.7139 135.2C33.6437 135.034 33.5748 134.866 33.5045 134.696C33.1473 133.819 32.7817 132.887 32.4179 131.905C32.4083 131.879 32.3988 131.853 32.3893 131.827C32.3893 131.827 32.3893 131.827 32.3893 131.826C32.1512 131.184 31.9141 130.52 31.6791 129.836C31.5494 129.46 31.4218 129.078 31.2942 128.691C31.2867 128.668 31.2782 128.644 31.2708 128.619C31.2146 128.447 31.1592 128.275 31.1029 128.1C31.0562 127.954 31.0094 127.807 30.9637 127.66C30.8681 127.356 30.7723 127.049 30.6777 126.739C30.5565 126.34 30.4364 125.936 30.3184 125.527C30.1589 124.971 30.0026 124.406 29.8506 123.832C29.8049 123.659 29.7592 123.486 29.7145 123.313C29.5806 122.794 29.4488 122.268 29.3211 121.736C29.2798 121.565 29.2393 121.394 29.1999 121.222C29.1745 121.116 29.15 121.009 29.1256 120.903C28.9332 120.061 28.7503 119.203 28.5801 118.329C28.392 117.366 28.2187 116.385 28.0634 115.388C27.9199 114.467 27.7902 113.531 27.6785 112.582C27.5723 111.687 27.4818 110.781 27.4085 109.864C27.2341 107.72 27.1544 105.518 27.1883 103.276C27.2479 99.3712 27.6573 95.3425 28.5376 91.2638C28.5693 91.1152 28.6024 90.9676 28.6354 90.8189C28.8532 89.848 29.0967 88.8762 29.37 87.9021C29.5772 87.1598 29.8016 86.4162 30.043 85.6727C30.2185 85.1343 30.4023 84.5946 30.5958 84.0551C31.0338 82.8335 31.5196 81.6122 32.0575 80.3917H32.5147V79.3784C35.434 73.0853 39.7376 66.8515 45.8624 60.9543C45.9771 60.8438 46.0921 60.7344 46.2058 60.6251H46.564V73.1234H57.6357V52.7574H69.852V65.978H72.6375V50.1943H84.8538V79.787H100.305V97.0429H106.077V101.39H119.338V93.904H126.951V73.5628H136.356V111.113H145.76Z" fill="#D5E7F7"/>
<path d="M72.638 55.2078H84.8613V52.1926H72.638V55.2078Z" fill="#C4D9ED"/>
<path d="M72.638 60.8718H84.8613V57.8565H72.638V60.8718Z" fill="#C4D9ED"/>
<path d="M72.638 65.9678H84.8613V62.9525H72.638V65.9678Z" fill="#C4D9ED"/>
<path d="M57.6388 65.9678H69.8621V62.9525H57.6388V65.9678Z" fill="#C4D9ED"/>
<path d="M57.6388 60.8718H69.8621V57.8565H57.6388V60.8718Z" fill="#C4D9ED"/>
<path d="M57.6388 55.7832H69.8621V52.7679H57.6388V55.7832Z" fill="#C4D9ED"/>
<path d="M57.6355 70.9084H84.8613V67.8934H57.6355V70.9084Z" fill="#C4D9ED"/>
<path d="M57.6355 75.8503H84.8613V72.8351H57.6355V75.8503Z" fill="#C4D9ED"/>
<path d="M126.864 78.2197H136.351V73.5655H126.864V78.2197Z" fill="#C4D9ED"/>
<path d="M126.864 85.1411H136.351V80.4869H126.864V85.1411Z" fill="#C4D9ED"/>
<path d="M126.864 92.0627H136.351V87.4086H126.864V92.0627Z" fill="#C4D9ED"/>
<path d="M126.864 99.3181H136.351V94.6639H126.864V99.3181Z" fill="#C4D9ED"/>
<path d="M126.864 106.349H136.351V101.695H126.864V106.349Z" fill="#C4D9ED"/>
<path d="M126.864 113.38H136.351V108.725H126.864V113.38Z" fill="#C4D9ED"/>
<path d="M126.864 120.735H136.351V116.081H126.864V120.735Z" fill="#C4D9ED"/>
<path d="M57.6355 79.5784H84.8613V77.6643H57.6355V79.5784Z" fill="#C4D9ED"/>
<path d="M126.996 73.5657H123.498V93.9051H126.996V73.5657Z" fill="#C4D9ED"/>
<path d="M119.338 93.9045H112.302V101.39H119.338V93.9045Z" fill="#C4D9ED"/>
<path d="M57.6389 52.7681V55.7836L57.6368 67.8933L57.6359 70.9087V73.1232H55.2109V53.0082C55.3204 52.9276 55.4288 52.8478 55.5372 52.7681H57.6389Z" fill="#C4D9ED"/>
<path d="M72.6376 50.1943H71.147V65.9676H72.6376V50.1943Z" fill="#C4D9ED"/>
<g opacity="0.8">
<path d="M95.7088 85.6733H97.7798V82.7569H95.7088V85.6733Z" fill="#C4D9ED"/>
<path d="M91.8357 85.6733H93.9067V82.7569H91.8357V85.6733Z" fill="#C4D9ED"/>
<path d="M88.0501 85.6733H90.1211V82.7569H88.0501V85.6733Z" fill="#C4D9ED"/>
<path d="M84.4601 85.6733H86.531V82.7569H84.4601V85.6733Z" fill="#C4D9ED"/>
<path d="M80.8019 85.6733H82.8728V82.7569H80.8019V85.6733Z" fill="#C4D9ED"/>
<path d="M77.1011 85.6731H79.1721V82.7567H77.1011V85.6731Z" fill="#C4D9ED"/>
<path d="M73.2282 85.6731H75.2993V82.7567H73.2282V85.6731Z" fill="#C4D9ED"/>
<path d="M69.4417 85.6731H71.5127V82.7567H69.4417V85.6731Z" fill="#C4D9ED"/>
<path d="M65.8523 85.6731H67.9233V82.7567H65.8523V85.6731Z" fill="#C4D9ED"/>
<path d="M62.1935 85.6731H64.2644V82.7567H62.1935V85.6731Z" fill="#C4D9ED"/>
<path d="M58.3809 85.6733H60.4519V82.7569H58.3809V85.6733Z" fill="#C4D9ED"/>
<path d="M54.5082 85.6733H56.5791V82.7569H54.5082V85.6733Z" fill="#C4D9ED"/>
<path d="M50.7223 85.6733H52.7932V82.7569H50.7223V85.6733Z" fill="#C4D9ED"/>
<path d="M47.1324 85.6733H49.2034V82.7569H47.1324V85.6733Z" fill="#C4D9ED"/>
<path d="M43.4734 85.6733H45.5444V82.7569H43.4734V85.6733Z" fill="#C4D9ED"/>
<path d="M39.7733 85.6733H41.8442V82.7569H39.7733V85.6733Z" fill="#C4D9ED"/>
<path d="M35.8999 85.6733H37.9709V82.7569H35.8999V85.6733Z" fill="#C4D9ED"/>
<path d="M32.114 85.6733H34.1851V82.7569H32.114V85.6733Z" fill="#C4D9ED"/>
<path d="M30.5957 84.0557V85.6733H30.043C30.2184 85.1348 30.4023 84.5952 30.5957 84.0557Z" fill="#C4D9ED"/>
<path d="M95.7093 90.8188H97.7803V87.9024H95.7093V90.8188Z" fill="#C4D9ED"/>
<path d="M91.8369 90.8188H93.908V87.9024H91.8369V90.8188Z" fill="#C4D9ED"/>
<path d="M88.0506 90.8188H90.1216V87.9024H88.0506V90.8188Z" fill="#C4D9ED"/>
<path d="M84.4606 90.8188H86.5315V87.9024H84.4606V90.8188Z" fill="#C4D9ED"/>
<path d="M80.8021 90.8188H82.873V87.9024H80.8021V90.8188Z" fill="#C4D9ED"/>
<path d="M77.1011 90.8188H79.1721V87.9024H77.1011V90.8188Z" fill="#C4D9ED"/>
<path d="M73.2284 90.8188H75.2996V87.9024H73.2284V90.8188Z" fill="#C4D9ED"/>
<path d="M69.4422 90.8188H71.5132V87.9024H69.4422V90.8188Z" fill="#C4D9ED"/>
<path d="M65.8526 90.8188H67.9236V87.9024H65.8526V90.8188Z" fill="#C4D9ED"/>
<path d="M62.1935 90.8188H64.2644V87.9024H62.1935V90.8188Z" fill="#C4D9ED"/>
<path d="M58.3811 90.8188H60.4521V87.9024H58.3811V90.8188Z" fill="#C4D9ED"/>
<path d="M54.5084 90.8188H56.5793V87.9024H54.5084V90.8188Z" fill="#C4D9ED"/>
<path d="M50.7223 90.8188H52.7932V87.9024H50.7223V90.8188Z" fill="#C4D9ED"/>
<path d="M47.1324 90.8188H49.2034V87.9024H47.1324V90.8188Z" fill="#C4D9ED"/>
<path d="M43.4734 90.8188H45.5444V87.9024H43.4734V90.8188Z" fill="#C4D9ED"/>
<path d="M39.7733 90.8188H41.8442V87.9024H39.7733V90.8188Z" fill="#C4D9ED"/>
<path d="M35.8999 90.8188H37.9709V87.9024H35.8999V90.8188Z" fill="#C4D9ED"/>
<path d="M32.1143 90.8188H34.1853V87.9024H32.1143V90.8188Z" fill="#C4D9ED"/>
<path d="M30.5961 87.9023V90.8191H28.6357C28.8536 89.8483 29.0971 88.8764 29.3704 87.9023H30.5961Z" fill="#C4D9ED"/>
<path d="M95.709 95.8867H97.78V92.9703H95.709V95.8867Z" fill="#C4D9ED"/>
<path d="M91.8362 95.8867H93.9072V92.9703H91.8362V95.8867Z" fill="#C4D9ED"/>
<path d="M88.0503 95.8867H90.1213V92.9703H88.0503V95.8867Z" fill="#C4D9ED"/>
<path d="M84.4603 95.8867H86.5312V92.9703H84.4603V95.8867Z" fill="#C4D9ED"/>
<path d="M80.8019 95.8867H82.8728V92.9703H80.8019V95.8867Z" fill="#C4D9ED"/>
<path d="M77.1009 95.8867H79.1719V92.9703H77.1009V95.8867Z" fill="#C4D9ED"/>
<path d="M73.2282 95.8867H75.2993V92.9703H73.2282V95.8867Z" fill="#C4D9ED"/>
<path d="M69.4417 95.8867H71.5127V92.9703H69.4417V95.8867Z" fill="#C4D9ED"/>
<path d="M65.8521 95.8867H67.9231V92.9703H65.8521V95.8867Z" fill="#C4D9ED"/>
<path d="M62.1933 95.8867H64.2642V92.9703H62.1933V95.8867Z" fill="#C4D9ED"/>
<path d="M58.3806 95.8867H60.4517V92.9703H58.3806V95.8867Z" fill="#C4D9ED"/>
<path d="M54.5082 95.8867H56.5791V92.9703H54.5082V95.8867Z" fill="#C4D9ED"/>
<path d="M50.7223 95.8867H52.7932V92.9703H50.7223V95.8867Z" fill="#C4D9ED"/>
<path d="M47.1324 95.8867H49.2034V92.9703H47.1324V95.8867Z" fill="#C4D9ED"/>
<path d="M43.4732 95.8867H45.5442V92.9703H43.4732V95.8867Z" fill="#C4D9ED"/>
<path d="M39.7726 95.8867H41.8435V92.9703H39.7726V95.8867Z" fill="#C4D9ED"/>
<path d="M35.8999 95.8867H37.9709V92.9703H35.8999V95.8867Z" fill="#C4D9ED"/>
<path d="M32.1138 95.8867H34.1848V92.9703H32.1138V95.8867Z" fill="#C4D9ED"/>
<path d="M28.5237 95.8867H30.5947V92.9703H28.5237V95.8867Z" fill="#C4D9ED"/>
<path d="M95.7093 101.27H97.7803V98.3536H95.7093V101.27Z" fill="#C4D9ED"/>
<path d="M91.8367 101.27H93.9077V98.3536H91.8367V101.27Z" fill="#C4D9ED"/>
<path d="M88.0508 101.27H90.1218V98.3536H88.0508V101.27Z" fill="#C4D9ED"/>
<path d="M84.4606 101.27H86.5315V98.3536H84.4606V101.27Z" fill="#C4D9ED"/>
<path d="M80.8021 101.27H82.873V98.3536H80.8021V101.27Z" fill="#C4D9ED"/>
<path d="M77.1011 101.27H79.1721V98.3536H77.1011V101.27Z" fill="#C4D9ED"/>
<path d="M73.2284 101.27H75.2996V98.3536H73.2284V101.27Z" fill="#C4D9ED"/>
<path d="M69.4419 101.27H71.5129V98.3536H69.4419V101.27Z" fill="#C4D9ED"/>
<path d="M65.8523 101.27H67.9233V98.3536H65.8523V101.27Z" fill="#C4D9ED"/>
<path d="M62.1935 101.27H64.2644V98.3536H62.1935V101.27Z" fill="#C4D9ED"/>
<path d="M58.3809 101.27H60.4519V98.3539H58.3809V101.27Z" fill="#C4D9ED"/>
<path d="M54.5084 101.27H56.5793V98.3539H54.5084V101.27Z" fill="#C4D9ED"/>
<path d="M50.7226 101.27H52.7935V98.3539H50.7226V101.27Z" fill="#C4D9ED"/>
<path d="M47.1326 101.27H49.2036V98.3539H47.1326V101.27Z" fill="#C4D9ED"/>
<path d="M43.4734 101.27H45.5444V98.3539H43.4734V101.27Z" fill="#C4D9ED"/>
<path d="M39.7728 101.27H41.8438V98.3536H39.7728V101.27Z" fill="#C4D9ED"/>
<path d="M35.9002 101.27H37.9712V98.3536H35.9002V101.27Z" fill="#C4D9ED"/>
<path d="M32.114 101.27H34.1851V98.3536H32.114V101.27Z" fill="#C4D9ED"/>
<path d="M28.5239 101.27H30.595V98.3536H28.5239V101.27Z" fill="#C4D9ED"/>
<path d="M95.709 106.417H97.78V103.501H95.709V106.417Z" fill="#C4D9ED"/>
<path d="M91.836 106.417H93.907V103.501H91.836V106.417Z" fill="#C4D9ED"/>
<path d="M88.0503 106.417H90.1213V103.501H88.0503V106.417Z" fill="#C4D9ED"/>
<path d="M84.4606 106.417H86.5315V103.501H84.4606V106.417Z" fill="#C4D9ED"/>
<path d="M80.8019 106.417H82.8728V103.501H80.8019V106.417Z" fill="#C4D9ED"/>
<path d="M77.1006 106.417H79.1716V103.5H77.1006V106.417Z" fill="#C4D9ED"/>
<path d="M73.2279 106.417H75.2991V103.5H73.2279V106.417Z" fill="#C4D9ED"/>
<path d="M69.4419 106.417H71.5129V103.5H69.4419V106.417Z" fill="#C4D9ED"/>
<path d="M65.8521 106.417H67.9231V103.5H65.8521V106.417Z" fill="#C4D9ED"/>
<path d="M62.1935 106.417H64.2644V103.5H62.1935V106.417Z" fill="#C4D9ED"/>
<path d="M58.3806 106.417H60.4517V103.5H58.3806V106.417Z" fill="#C4D9ED"/>
<path d="M54.508 106.417H56.5789V103.5H54.508V106.417Z" fill="#C4D9ED"/>
<path d="M50.7216 106.417H52.7925V103.5H50.7216V106.417Z" fill="#C4D9ED"/>
<path d="M47.1321 106.417H49.2031V103.5H47.1321V106.417Z" fill="#C4D9ED"/>
<path d="M43.4729 106.417H45.5439V103.5H43.4729V106.417Z" fill="#C4D9ED"/>
<path d="M39.7726 106.417H41.8435V103.5H39.7726V106.417Z" fill="#C4D9ED"/>
<path d="M35.8997 106.417H37.9707V103.5H35.8997V106.417Z" fill="#C4D9ED"/>
<path d="M32.1138 106.417H34.1848V103.5H32.1138V106.417Z" fill="#C4D9ED"/>
<path d="M28.5237 106.417H30.5947V103.5H28.5237V106.417Z" fill="#C4D9ED"/>
<path d="M95.7095 111.483H97.7805V108.567H95.7095V111.483Z" fill="#C4D9ED"/>
<path d="M91.8367 111.483H93.9077V108.567H91.8367V111.483Z" fill="#C4D9ED"/>
<path d="M88.0508 111.483H90.1218V108.567H88.0508V111.483Z" fill="#C4D9ED"/>
<path d="M84.4608 111.483H86.5317V108.567H84.4608V111.483Z" fill="#C4D9ED"/>
<path d="M80.8024 111.483H82.8733V108.567H80.8024V111.483Z" fill="#C4D9ED"/>
<path d="M77.1011 111.483H79.1721V108.567H77.1011V111.483Z" fill="#C4D9ED"/>
<path d="M73.2282 111.483H75.2993V108.567H73.2282V111.483Z" fill="#C4D9ED"/>
<path d="M69.4422 111.483H71.5132V108.567H69.4422V111.483Z" fill="#C4D9ED"/>
<path d="M65.8526 111.483H67.9236V108.567H65.8526V111.483Z" fill="#C4D9ED"/>
<path d="M62.1937 111.483H64.2646V108.567H62.1937V111.483Z" fill="#C4D9ED"/>
<path d="M58.3809 111.483H60.4519V108.567H58.3809V111.483Z" fill="#C4D9ED"/>
<path d="M54.5082 111.483H56.5791V108.567H54.5082V111.483Z" fill="#C4D9ED"/>
<path d="M50.7221 111.483H52.793V108.567H50.7221V111.483Z" fill="#C4D9ED"/>
<path d="M47.1324 111.483H49.2034V108.567H47.1324V111.483Z" fill="#C4D9ED"/>
<path d="M43.4732 111.483H45.5442V108.567H43.4732V111.483Z" fill="#C4D9ED"/>
<path d="M39.7728 111.483H41.8438V108.567H39.7728V111.483Z" fill="#C4D9ED"/>
<path d="M35.8999 111.483H37.9709V108.567H35.8999V111.483Z" fill="#C4D9ED"/>
<path d="M32.114 111.483H34.1851V108.567H32.114V111.483Z" fill="#C4D9ED"/>
<path d="M28.5237 111.483H30.5947V108.567H28.5237V111.483Z" fill="#C4D9ED"/>
</g>
<path d="M64.2329 144.118L112.301 144.141V117.705H64.3003L64.2329 144.118Z" fill="#C4D9ED"/>
<path d="M100.698 143.577H148.7V130.641H100.698V143.577Z" fill="#C4D9ED"/>
<path d="M60.4521 121.736V144.117L38.0528 144.149C38.0347 144.117 37.7306 143.507 37.7052 143.463C37.669 143.401 37.6266 143.326 37.5777 143.241C37.5616 143.212 37.5436 143.181 37.5245 143.148C37.4597 143.032 37.3863 142.901 37.3044 142.752C37.2044 142.57 37.0928 142.363 36.9695 142.132V142.131C36.5103 141.271 35.9011 140.078 35.2089 138.596C34.9814 138.11 34.7465 137.592 34.503 137.044C34.4063 136.825 34.3096 136.603 34.2107 136.375V136.374C34.115 136.154 34.0191 135.93 33.9236 135.701C33.9204 135.694 33.9172 135.686 33.9139 135.679C33.8481 135.521 33.7811 135.362 33.7141 135.2C33.6439 135.034 33.5749 134.866 33.5047 134.696C33.1474 133.819 32.7818 132.887 32.4181 131.905C32.4085 131.879 32.3989 131.853 32.3895 131.827C32.3895 131.827 32.3895 131.827 32.3895 131.826C32.1513 131.184 31.9142 130.52 31.6792 129.836C31.5496 129.46 31.422 129.079 31.2944 128.691C31.2869 128.668 31.2784 128.644 31.271 128.619C31.2148 128.447 31.1594 128.275 31.103 128.1C31.0563 127.954 31.0095 127.807 30.9639 127.66C30.8683 127.356 30.7724 127.049 30.6779 126.739C30.5567 126.34 30.4366 125.936 30.3186 125.527C30.1591 124.971 30.0028 124.406 29.8508 123.832C29.805 123.659 29.7594 123.486 29.7147 123.313C29.5808 122.794 29.449 122.268 29.3213 121.736H60.4521V121.736Z" fill="#C4D9ED"/>
<path d="M100.152 125.526H109.095V120.735H100.152V125.526Z" fill="#D5E7F7"/>
<path d="M88.6713 125.526H97.6147V120.735H88.6713V125.526Z" fill="#D5E7F7"/>
<path d="M77.4102 125.526H86.3535V120.735H77.4102V125.526Z" fill="#D5E7F7"/>
<path d="M66.3655 125.526H75.3088V120.735H66.3655V125.526Z" fill="#D5E7F7"/>
<path d="M64.7992 117.705H60.1919V144.118H64.7992V117.705Z" fill="#ADC9E0"/>
<path d="M134.213 73.5657H134.463V71.5403H134.213V73.5657Z" fill="#DCEAF9"/>
<path d="M125.249 73.5657H125.499V71.5403H125.249V73.5657Z" fill="#DCEAF9"/>
<path d="M27.6785 112.582C27.7902 113.531 27.9198 114.467 28.0633 115.388C28.2186 116.385 28.392 117.366 28.58 118.329C28.7502 119.203 28.933 120.061 29.1255 120.903C29.1499 121.009 29.1744 121.116 29.1999 121.222C29.2392 121.394 29.2797 121.565 29.3211 121.736C29.4488 122.268 29.5806 122.794 29.7145 123.313C29.7592 123.486 29.8048 123.66 29.8506 123.832C30.0026 124.406 30.1589 124.971 30.3183 125.527C30.4364 125.936 30.5565 126.34 30.6777 126.739C30.7723 127.049 30.8681 127.356 30.9637 127.66C31.0094 127.807 31.0561 127.954 31.1028 128.101C31.1592 128.275 31.2145 128.447 31.2708 128.619C31.2782 128.644 31.2868 128.668 31.2941 128.691C31.4217 129.079 31.5492 129.46 31.679 129.836C31.914 130.52 32.1511 131.184 32.3892 131.826C32.3892 131.827 32.3892 131.827 32.3892 131.827C32.3987 131.853 32.4083 131.879 32.4178 131.905C32.7815 132.888 33.1472 133.819 33.5044 134.696C33.5747 134.866 33.6437 135.034 33.7139 135.2C33.7809 135.362 33.8479 135.522 33.9137 135.679C33.917 135.686 33.9201 135.694 33.9234 135.701V112.582H27.6785V112.582Z" fill="#D5E7F7"/>
<path d="M33.9237 121.222V135.701C33.9204 135.694 33.9173 135.687 33.914 135.679C33.8482 135.522 33.7812 135.363 33.7142 135.2C33.644 135.034 33.575 134.867 33.5047 134.697C33.1475 133.819 32.7819 132.888 32.4182 131.905C32.4086 131.88 32.399 131.853 32.3896 131.828C32.3896 131.828 32.3896 131.828 32.3896 131.827C32.1514 131.184 31.9143 130.52 31.6793 129.836C31.5496 129.46 31.422 129.079 31.2944 128.691C31.287 128.668 31.2785 128.645 31.2711 128.619C31.2148 128.447 31.1595 128.275 31.1031 128.101C31.0564 127.954 31.0096 127.808 30.964 127.66C30.8684 127.356 30.7725 127.049 30.678 126.739C30.5568 126.341 30.4367 125.936 30.3186 125.527C30.1592 124.972 30.0029 124.407 29.8509 123.832C29.8051 123.66 29.7595 123.487 29.7148 123.314C29.5809 122.794 29.4491 122.269 29.3214 121.737C29.28 121.565 29.2395 121.394 29.2002 121.222H33.9237V121.222Z" fill="#D5E7F7"/>
<path d="M33.9236 118.329V125.527H30.3184C30.1589 124.971 30.0026 124.406 29.8506 123.832C29.8049 123.659 29.7592 123.486 29.7145 123.313C29.5806 122.794 29.4488 122.268 29.3211 121.736C29.2798 121.565 29.2393 121.394 29.2 121.222C29.1745 121.116 29.15 121.01 29.1256 120.903C28.9332 120.061 28.7503 119.203 28.5801 118.329H33.9236V118.329Z" fill="#C4D9ED"/>
<path d="M31.679 127.66V129.837C31.5493 129.46 31.4217 129.079 31.2941 128.692C31.2866 128.668 31.2781 128.645 31.2708 128.619C31.2145 128.447 31.1592 128.275 31.1028 128.101C31.0561 127.954 31.0093 127.808 30.9636 127.66L31.679 127.66Z" fill="#C4D9ED"/>
<path d="M29.987 122.81H31.4094V120.352H29.987V122.81Z" fill="#ADC9E0"/>
<path d="M139.613 143.367H172.571V121.222H139.613V143.367Z" fill="#D5E7F7"/>
<path d="M139.613 125.526H172.571V118.329H139.613V125.526Z" fill="#C4D9ED"/>
<path d="M168.634 130.042H170.327V127.659H168.634V130.042Z" fill="#C4D9ED"/>
<path d="M165.469 130.042H167.162V127.659H165.469V130.042Z" fill="#C4D9ED"/>
<path d="M162.374 130.042H164.067V127.659H162.374V130.042Z" fill="#C4D9ED"/>
<path d="M159.441 130.042H161.133V127.659H159.441V130.042Z" fill="#C4D9ED"/>
<path d="M156.451 130.042H158.143V127.659H156.451V130.042Z" fill="#C4D9ED"/>
<path d="M153.426 130.043H155.119V127.66H153.426V130.043Z" fill="#C4D9ED"/>
<path d="M150.261 130.043H151.954V127.66H150.261V130.043Z" fill="#C4D9ED"/>
<path d="M147.166 130.043H148.859V127.66H147.166V130.043Z" fill="#C4D9ED"/>
<path d="M144.232 130.043H145.925V127.66H144.232V130.043Z" fill="#C4D9ED"/>
<path d="M141.242 130.043H142.935V127.66H141.242V130.043Z" fill="#C4D9ED"/>
<path d="M168.634 134.25H170.327V131.866H168.634V134.25Z" fill="#C4D9ED"/>
<path d="M165.469 134.25H167.161V131.866H165.469V134.25Z" fill="#C4D9ED"/>
<path d="M162.374 134.25H164.067V131.866H162.374V134.25Z" fill="#C4D9ED"/>
<path d="M159.44 134.25H161.133V131.866H159.44V134.25Z" fill="#C4D9ED"/>
<path d="M156.45 134.25H158.143V131.866H156.45V134.25Z" fill="#C4D9ED"/>
<path d="M153.426 134.25H155.118V131.866H153.426V134.25Z" fill="#C4D9ED"/>
<path d="M150.261 134.25H151.953V131.866H150.261V134.25Z" fill="#C4D9ED"/>
<path d="M147.166 134.25H148.859V131.866H147.166V134.25Z" fill="#C4D9ED"/>
<path d="M144.232 134.25H145.925V131.866H144.232V134.25Z" fill="#C4D9ED"/>
<path d="M141.242 134.25H142.935V131.866H141.242V134.25Z" fill="#C4D9ED"/>
<path d="M168.634 138.392H170.327V136.008H168.634V138.392Z" fill="#C4D9ED"/>
<path d="M165.469 138.392H167.161V136.008H165.469V138.392Z" fill="#C4D9ED"/>
<path d="M162.374 138.392H164.067V136.008H162.374V138.392Z" fill="#C4D9ED"/>
<path d="M159.44 138.392H161.133V136.008H159.44V138.392Z" fill="#C4D9ED"/>
<path d="M156.45 138.392H158.143V136.008H156.45V138.392Z" fill="#C4D9ED"/>
<path d="M153.426 138.392H155.118V136.008H153.426V138.392Z" fill="#C4D9ED"/>
<path d="M150.261 138.392H151.953V136.008H150.261V138.392Z" fill="#C4D9ED"/>
<path d="M147.166 138.392H148.859V136.008H147.166V138.392Z" fill="#C4D9ED"/>
<path d="M144.232 138.392H145.925V136.008H144.232V138.392Z" fill="#C4D9ED"/>
<path d="M141.242 138.392H142.935V136.008H141.242V138.392Z" fill="#C4D9ED"/>
<path d="M168.635 122.81H170.057V120.352H168.635V122.81Z" fill="#ADC9E0"/>
<path d="M154.513 122.81H155.936V120.352H154.513V122.81Z" fill="#ADC9E0"/>
<path d="M143.28 122.81H144.702V120.352H143.28V122.81Z" fill="#ADC9E0"/>
<path d="M174.642 143.367H207.6V121.222H174.642V143.367Z" fill="#D5E7F7"/>
<path d="M174.642 125.526H207.6V118.329H174.642V125.526Z" fill="#C4D9ED"/>
<path d="M203.664 130.042H205.357V127.659H203.664V130.042Z" fill="#C4D9ED"/>
<path d="M200.499 130.042H202.192V127.659H200.499V130.042Z" fill="#C4D9ED"/>
<path d="M197.404 130.042H199.097V127.659H197.404V130.042Z" fill="#C4D9ED"/>
<path d="M194.471 130.042H196.163V127.659H194.471V130.042Z" fill="#C4D9ED"/>
<path d="M191.48 130.042H193.173V127.659H191.48V130.042Z" fill="#C4D9ED"/>
<path d="M188.455 130.043H190.148V127.66H188.455V130.043Z" fill="#C4D9ED"/>
<path d="M185.29 130.043H186.983V127.66H185.29V130.043Z" fill="#C4D9ED"/>
<path d="M182.196 130.043H183.888V127.66H182.196V130.043Z" fill="#C4D9ED"/>
<path d="M179.261 130.043H180.954V127.66H179.261V130.043Z" fill="#C4D9ED"/>
<path d="M176.271 130.043H177.964V127.66H176.271V130.043Z" fill="#C4D9ED"/>
<path d="M203.665 134.25H205.357V131.866H203.665V134.25Z" fill="#C4D9ED"/>
<path d="M200.499 134.25H202.192V131.866H200.499V134.25Z" fill="#C4D9ED"/>
<path d="M197.404 134.25H199.097V131.866H197.404V134.25Z" fill="#C4D9ED"/>
<path d="M194.471 134.25H196.164V131.866H194.471V134.25Z" fill="#C4D9ED"/>
<path d="M191.48 134.25H193.173V131.866H191.48V134.25Z" fill="#C4D9ED"/>
<path d="M188.455 134.25H190.148V131.866H188.455V134.25Z" fill="#C4D9ED"/>
<path d="M185.29 134.25H186.983V131.866H185.29V134.25Z" fill="#C4D9ED"/>
<path d="M182.196 134.25H183.888V131.866H182.196V134.25Z" fill="#C4D9ED"/>
<path d="M179.261 134.25H180.954V131.866H179.261V134.25Z" fill="#C4D9ED"/>
<path d="M176.271 134.25H177.964V131.866H176.271V134.25Z" fill="#C4D9ED"/>
<path d="M203.665 138.391H205.357V136.007H203.665V138.391Z" fill="#C4D9ED"/>
<path d="M200.499 138.391H202.192V136.007H200.499V138.391Z" fill="#C4D9ED"/>
<path d="M197.404 138.391H199.097V136.007H197.404V138.391Z" fill="#C4D9ED"/>
<path d="M194.471 138.391H196.164V136.007H194.471V138.391Z" fill="#C4D9ED"/>
<path d="M191.48 138.391H193.173V136.007H191.48V138.391Z" fill="#C4D9ED"/>
<path d="M188.455 138.392H190.148V136.008H188.455V138.392Z" fill="#C4D9ED"/>
<path d="M185.29 138.392H186.983V136.008H185.29V138.392Z" fill="#C4D9ED"/>
<path d="M182.196 138.392H183.888V136.008H182.196V138.392Z" fill="#C4D9ED"/>
<path d="M179.261 138.392H180.954V136.008H179.261V138.392Z" fill="#C4D9ED"/>
<path d="M176.271 138.392H177.964V136.008H176.271V138.392Z" fill="#C4D9ED"/>
<path d="M203.664 122.81H205.086V120.352H203.664V122.81Z" fill="#ADC9E0"/>
<path d="M189.543 122.81H190.965V120.352H189.543V122.81Z" fill="#ADC9E0"/>
<path d="M178.309 122.81H179.731V120.352H178.309V122.81Z" fill="#ADC9E0"/>
<path d="M242.705 121.223H209.746V144.113H242.705V121.223Z" fill="#D5E7F7"/>
<path d="M209.747 125.527H242.705V118.329H209.747V125.527Z" fill="#C4D9ED"/>
<path d="M238.768 130.043H240.461V127.659H238.768V130.043Z" fill="#C4D9ED"/>
<path d="M235.603 130.043H237.296V127.659H235.603V130.043Z" fill="#C4D9ED"/>
<path d="M232.508 130.043H234.201V127.659H232.508V130.043Z" fill="#C4D9ED"/>
<path d="M229.574 130.043H231.267V127.659H229.574V130.043Z" fill="#C4D9ED"/>
<path d="M226.584 130.043H228.276V127.659H226.584V130.043Z" fill="#C4D9ED"/>
<path d="M223.559 130.043H225.252V127.66H223.559V130.043Z" fill="#C4D9ED"/>
<path d="M220.394 130.043H222.087V127.66H220.394V130.043Z" fill="#C4D9ED"/>
<path d="M217.3 130.043H218.992V127.66H217.3V130.043Z" fill="#C4D9ED"/>
<path d="M214.366 130.043H216.058V127.66H214.366V130.043Z" fill="#C4D9ED"/>
<path d="M211.375 130.043H213.068V127.66H211.375V130.043Z" fill="#C4D9ED"/>
<path d="M238.768 134.25H240.461V131.867H238.768V134.25Z" fill="#C4D9ED"/>
<path d="M235.603 134.25H237.295V131.867H235.603V134.25Z" fill="#C4D9ED"/>
<path d="M232.508 134.25H234.201V131.867H232.508V134.25Z" fill="#C4D9ED"/>
<path d="M229.574 134.25H231.267V131.867H229.574V134.25Z" fill="#C4D9ED"/>
<path d="M226.583 134.25H228.276V131.867H226.583V134.25Z" fill="#C4D9ED"/>
<path d="M223.559 134.25H225.252V131.867H223.559V134.25Z" fill="#C4D9ED"/>
<path d="M220.394 134.25H222.087V131.867H220.394V134.25Z" fill="#C4D9ED"/>
<path d="M217.3 134.25H218.992V131.867H217.3V134.25Z" fill="#C4D9ED"/>
<path d="M214.366 134.25H216.058V131.867H214.366V134.25Z" fill="#C4D9ED"/>
<path d="M211.375 134.25H213.068V131.867H211.375V134.25Z" fill="#C4D9ED"/>
<path d="M238.768 138.392H240.461V136.008H238.768V138.392Z" fill="#C4D9ED"/>
<path d="M235.603 138.392H237.296V136.008H235.603V138.392Z" fill="#C4D9ED"/>
<path d="M232.508 138.392H234.201V136.008H232.508V138.392Z" fill="#C4D9ED"/>
<path d="M229.574 138.392H231.267V136.008H229.574V138.392Z" fill="#C4D9ED"/>
<path d="M226.584 138.392H228.276V136.008H226.584V138.392Z" fill="#C4D9ED"/>
<path d="M223.56 138.392H225.252V136.008H223.56V138.392Z" fill="#C4D9ED"/>
<path d="M220.394 138.392H222.087V136.008H220.394V138.392Z" fill="#C4D9ED"/>
<path d="M217.3 138.392H218.992V136.008H217.3V138.392Z" fill="#C4D9ED"/>
<path d="M214.366 138.392H216.059V136.008H214.366V138.392Z" fill="#C4D9ED"/>
<path d="M211.375 138.392H213.068V136.008H211.375V138.392Z" fill="#C4D9ED"/>
<path d="M238.768 122.81H240.191V120.352H238.768V122.81Z" fill="#ADC9E0"/>
<path d="M224.647 122.81H226.069V120.352H224.647V122.81Z" fill="#ADC9E0"/>
<path d="M213.413 122.81H214.836V120.352H213.413V122.81Z" fill="#ADC9E0"/>
<path d="M315.61 144.052H297.886C296.936 143.247 298.543 141.419 300.223 141.296C300.952 141.241 301.874 141.393 302.928 141.616C303.172 138.379 304.565 123.83 309.814 124.415C315.716 125.069 309.814 130.822 308.145 134.228C306.909 136.751 305.605 140.368 305.01 142.076C305.489 142.179 305.985 142.281 306.492 142.374C307.274 139.974 310.185 131.902 313.887 132.372C318.233 132.923 316.486 136.16 313.405 138.081C311.145 139.493 308.37 141.502 307.051 142.471C308.169 142.654 309.335 142.777 310.518 142.749C313.554 142.677 315.036 143.571 315.61 144.052Z" fill="#A8D29F"/>
<path d="M235.805 47.1642C235.805 47.1642 235.235 44.4318 233.811 43.8058C232.387 43.1795 231.532 40.6749 230.962 41.3579C230.392 42.0409 231.133 46.5949 232.215 47.1642C233.298 47.7333 233.811 48.3215 233.811 48.3215L235.805 47.1642Z" fill="#9C5F33"/>
<path d="M260.257 36.2898C260.257 36.2898 251.177 52.1121 247.883 55.0234L235.805 46.0268C235.805 46.0268 234.052 46.5637 233.285 48.3215C233.285 48.3215 240.619 63.2509 247.841 63.8838C255.062 64.5167 265.198 45.9893 265.198 45.9893L260.257 36.2898Z" fill="#E58638"/>
<path d="M288.356 134.187C288.356 134.187 290.455 136.131 290.045 137.512C289.636 138.894 287.741 139.814 287.485 141.502C287.229 143.191 286.205 144.111 285.284 144.111C284.362 144.111 280.89 144.111 280.89 144.111C280.89 144.111 280.211 142.923 281.85 142.565C283.488 142.207 284.106 140.224 284.004 138.382C283.901 136.541 284.157 134.085 284.157 134.085L287.639 133.267L288.356 134.187Z" fill="#233862"/>
<path d="M262.192 144.04C262.13 144.071 262.024 144.099 261.88 144.124H250.292C250.382 143.72 250.738 142.888 252.156 142.658C253.991 142.361 257.172 141.296 257.881 138.951C257.903 138.875 257.924 138.798 257.942 138.72C258.505 136.213 262.601 139.487 262.601 139.487C262.601 139.487 262.613 139.587 262.631 139.757C262.726 140.677 262.97 143.651 262.192 144.04Z" fill="#233862"/>
<path d="M252.644 76.997C252.644 76.997 253.266 84.7515 253.997 94.0728C254.991 106.735 256.186 122.288 256.304 125.235C256.508 130.351 257.328 138.535 257.328 138.535C257.328 138.535 259.273 140.48 263.165 139.66C263.165 139.66 266.634 127.977 267.625 115.616C267.64 115.413 267.655 115.209 267.671 115.005C268.592 102.421 270.026 75.9229 270.026 75.9229L252.644 76.997Z" fill="#2B478B"/>
<path d="M252.644 76.997C252.644 76.997 253.266 84.7515 253.997 94.0728L267.625 115.616C267.64 115.413 267.655 115.209 267.671 115.005C268.592 102.421 270.026 75.9229 270.026 75.9229L252.644 76.997Z" fill="#233862"/>
<path d="M255.485 77.9179C255.485 77.9179 266.698 106.001 274.071 119.199C281.444 132.397 283.748 136.08 283.748 136.08C283.748 136.08 287.972 134.392 288.356 133.241C288.356 133.241 285.537 107.762 280.599 101.551C277.809 98.0413 274.532 87.5093 274.378 83.826C274.224 80.1429 273.38 72.8535 273.38 72.8535L255.485 77.9179Z" fill="#2B478B"/>
<path d="M261.235 34.5678C260.737 31.6269 260.722 29.8838 260.722 29.8838L266.411 25.303C266.199 31.6019 270.239 34.6306 270.239 34.6306C270.239 34.6306 262.658 38.3591 258.276 36.9781C258.276 36.9781 259.354 35.6002 261.235 34.5678Z" fill="#9C5F33"/>
<path d="M259.381 29.78C259.381 29.78 266.619 30.9813 267.299 26.4666C267.978 21.952 269.37 19.0666 264.777 18.1087C260.185 17.1508 259.026 18.7383 258.432 20.1902C257.839 21.642 257.516 29.3511 259.381 29.78Z" fill="#AB7041"/>
<path d="M252.16 77.6428C252.292 77.7522 252.445 77.8181 252.621 77.8181C254.266 77.7959 259.064 78.7089 263.124 78.2925C266.547 77.9641 269.577 76.9512 272.83 75.4942C273.262 75.3007 274.256 74.7705 274.234 74.288C274.219 73.7598 274.167 72.9936 274.101 72.0287C273.871 68.6738 273.469 62.9034 273.86 56.2462C273.931 55.0064 273.968 53.7769 273.972 52.5663C274.006 43.5437 272.215 35.6077 268.617 32.9216C268.309 32.7017 266.422 33.6232 264.689 34.4775C263.087 35.267 261.485 35.3542 259.971 35.0481L258.458 36.3849C256.615 38.0947 254.596 40.4187 253.718 43.9478C252.972 46.951 252.533 52.3663 252.292 57.9782C252.182 60.5212 252.094 63.0866 252.072 65.52V65.6071C252.05 65.8482 252.05 66.1119 252.05 66.3531C251.962 72.6004 252.051 77.5546 252.16 77.6428Z" fill="#EE9849"/>
<path d="M274.101 72.0286C273.87 68.6737 273.469 62.9033 273.86 56.2461C273.931 55.0063 273.968 53.7768 273.972 52.5662C272.473 48.9333 271.248 46.2988 271.248 46.2988H267.47C267.47 46.2988 264.7 65.2017 274.101 72.0286Z" fill="#E58638"/>
<path d="M298.86 88.8733L297.853 81.8155C297.553 79.7126 295.585 78.2369 293.48 78.5367L287.942 79.3251L287.728 77.8203C287.628 77.1245 286.981 76.6391 286.284 76.7382L281.472 77.4234C281.135 77.4712 280.837 77.648 280.632 77.9208C280.427 78.1937 280.34 78.5291 280.388 78.8654L280.603 80.3701L277.395 80.8268C277.267 80.8449 277.142 80.8694 277.02 80.8995L275.259 81.1501C273.162 81.4488 271.69 83.4075 271.989 85.5026L272.984 92.4793C273.283 94.5745 275.244 96.0445 277.341 95.746L278.657 95.5587C278.93 95.5796 279.21 95.5723 279.492 95.5321L295.578 93.2419C297.683 92.9422 299.16 90.9764 298.86 88.8733ZM281.584 78.2142L286.397 77.529C286.446 77.5222 286.494 77.5229 286.54 77.5305C286.74 77.5626 286.906 77.7219 286.936 77.933L287.151 79.4379L281.395 80.2572L281.18 78.7524C281.143 78.4928 281.324 78.2512 281.584 78.2142Z" fill="#233862"/>
<path d="M281.451 73.2039L282.169 74.4389C282.169 74.4389 280.764 77.4119 284.097 78.5225C284.097 78.5225 285.531 78.8842 285.654 77.8909C285.777 76.8975 285.565 77.2881 285.773 75.8857C285.981 74.4834 285.433 73.2343 284.398 72.9006L283.581 72.1191L281.451 73.2039Z" fill="#AB7041"/>
<path d="M283.353 73.5413C281.992 73.8061 280.518 73.699 280.518 73.699C280.518 73.699 276.478 61.2325 275.958 60.0939C275.438 58.955 263.961 45.4766 263.961 45.4766L268.742 33.5215C268.742 33.5215 281.157 54.2394 282.417 57.1505C284.5 61.9611 285.223 72.7467 285.223 72.7467C285.223 72.7467 284.421 73.3331 283.353 73.5413Z" fill="#EE9849"/>
<path d="M267.304 26.0322C267.304 26.0322 266.562 25.9082 266.681 24.8861C266.801 23.864 266.8 22.5281 265.968 22.7771C265.136 23.0261 265.095 23.6913 264.753 23.3029C264.411 22.9144 264.405 21.2775 261.93 21.1634C259.455 21.0495 258.45 21.9101 257.299 21.4045C256.148 20.899 256.087 19.1587 256.087 19.1587C256.087 19.1587 256.414 19.7801 256.909 19.9777C256.909 19.9777 254.989 17.354 257.212 15.5548C259.435 13.7556 261.701 14.9335 262.988 15.0113C265.822 15.1827 267.653 15.3526 268.579 17.2134C269.505 19.0744 269.123 24.2411 267.304 26.0322Z" fill="#2B478B"/>
<path d="M235.321 44.7647L232.377 38.7971C232.32 38.6815 232.178 38.6336 232.063 38.6905L230.424 39.4976C230.308 39.5546 230.26 39.6958 230.318 39.8114L233.262 45.779C233.319 45.8945 233.46 45.9426 233.576 45.8856L235.214 45.0785C235.33 45.0217 235.378 44.8804 235.321 44.7647Z" fill="#2B478B"/>
<path d="M233.795 45.5785L230.801 39.5104C230.758 39.4225 230.65 39.3861 230.562 39.4294L229.601 39.9025C229.513 39.9459 229.477 40.0534 229.52 40.1415L232.514 46.2093C232.558 46.2974 232.665 46.3339 232.753 46.2905L233.714 45.8175C233.802 45.7741 233.839 45.6665 233.795 45.5785Z" fill="#233862"/>
<path d="M222.152 100.602C209.373 103.704 199.153 118.744 193.346 129.433C192.641 128.673 192 127.783 191.38 126.815C193.831 121.275 198.583 109.371 193.982 109.768C189.978 110.114 189.597 118.389 189.785 124.146C186.533 118.508 182.858 111.974 172.441 112.39C155.203 113.078 149.886 130.988 137.915 130.641C125.945 130.293 89.3761 125.724 82.1758 144.117H208.195C207.783 142.988 207.059 138.433 203.691 135.127C204.308 134.918 204.948 134.705 205.613 134.488C216.292 131.014 212.3 127.419 212.3 127.419C207.291 127.419 202.709 129.666 199.054 132.307C198.535 132.133 197.986 131.984 197.403 131.866C196.748 131.732 196.147 131.509 195.589 131.212C201.91 123.956 211.02 114.704 218.147 112.366C223.023 110.767 225.468 108.576 226.632 106.484C228.35 103.393 225.592 99.7669 222.152 100.602Z" fill="#A8D29F"/>
<path d="M74.3017 35.5325C65.1224 35.5325 57.6809 42.967 57.6809 52.1378C57.6809 61.3088 74.3017 81.6978 74.3017 81.6978C74.3017 81.6978 90.9224 61.3088 90.9224 52.1378C90.9224 42.967 83.4811 35.5325 74.3017 35.5325ZM74.3017 59.731C70.0111 59.731 66.5328 56.2558 66.5328 51.9692C66.5328 47.6825 70.0111 44.2075 74.3017 44.2075C78.5923 44.2075 82.0706 47.6825 82.0706 51.9692C82.0705 56.2558 78.5923 59.731 74.3017 59.731Z" fill="#C94C43"/>
<path d="M41.3926 124.887C37.8223 124.887 30.8643 129.264 30.8643 134.665C30.8643 140.064 33.7585 144.442 37.3288 144.442C37.8248 144.442 41.3927 144.442 41.3927 144.442C44.963 144.442 47.8572 140.064 47.8572 134.665C47.8572 129.264 44.9629 124.887 41.3926 124.887Z" fill="#661717"/>
<path d="M118.014 136.618H82.6316C82.8047 135.603 82.8913 134.549 82.8913 133.457C82.8913 125.459 78.0858 118.973 72.1651 118.973C66.2446 118.973 61.4497 125.459 61.4497 133.457C61.4497 134.549 61.5363 135.603 61.7095 136.618H46.632C46.632 136.618 41.9455 124.977 46.632 120.953C51.3187 116.942 77.4795 114.187 77.4795 114.187C77.4795 114.187 87.4047 101.277 93.4769 97.2649C94.516 96.5793 96.4101 96.0847 98.8562 95.7166C111.552 97.3665 112.018 110.696 119.27 112.917C126.846 115.241 118.014 136.618 118.014 136.618Z" fill="#661717"/>
<path d="M84.3102 132.074C84.3102 137.956 81.2733 144.443 81.2733 144.443C81.2733 144.443 76.7597 144.443 76.1324 144.443C71.616 144.443 67.9546 138.905 67.9546 132.074C67.9546 125.242 76.7567 119.705 81.2733 119.705C85.7898 119.705 84.3102 125.242 84.3102 132.074Z" fill="#631818"/>
<path d="M81.2734 144.442C85.7899 144.442 89.4512 138.904 89.4512 132.073C89.4512 125.241 85.7899 119.704 81.2734 119.704C76.757 119.704 73.0957 125.241 73.0957 132.073C73.0957 138.904 76.757 144.442 81.2734 144.442Z" fill="#822121"/>
<path d="M87.33 132.073C87.33 137.218 84.5721 141.39 81.1701 141.39C77.7682 141.39 75.0103 137.218 75.0103 132.073C75.0103 126.927 77.7682 122.756 81.1701 122.756C84.5721 122.756 87.33 126.927 87.33 132.073Z" fill="#661717"/>
<path d="M128.075 136.618H92.6923C92.8656 135.603 92.9522 134.549 92.9522 133.457C92.9522 125.459 88.1466 118.973 82.226 118.973C76.3053 118.973 71.5105 125.459 71.5105 133.457C71.5105 134.549 71.5971 135.603 71.7704 136.618H18.2147C18.2147 136.618 13.5172 124.977 18.2147 120.953C22.9013 116.942 50.1491 113.031 50.1491 113.031C50.1491 113.031 62.5699 103.824 68.6528 99.8122C74.7357 95.7881 107.142 95.564 107.142 95.564C107.759 95.5894 108.354 95.6402 108.917 95.7165C121.613 97.3665 122.079 110.696 129.331 112.917C136.907 115.24 128.075 136.618 128.075 136.618Z" fill="#C94C43"/>
<path d="M128.075 136.618H92.6923C92.8656 135.603 92.9522 134.549 92.9522 133.457C92.9522 125.459 88.1466 118.973 82.226 118.973C76.3053 118.973 71.5105 125.459 71.5105 133.457C71.5105 134.549 71.5971 135.603 71.7704 136.618H56.6928C56.6928 136.618 52.0062 124.977 56.6928 120.953C61.3794 116.942 87.5403 114.187 87.5403 114.187C87.5403 114.187 97.4656 101.277 103.538 97.2649C104.577 96.5793 106.471 96.0847 108.917 95.7166C121.613 97.3665 122.079 110.696 129.331 112.917C136.907 115.241 128.075 136.618 128.075 136.618Z" fill="#A8302D"/>
<path d="M92.7817 112.917C92.7817 112.917 103.071 97.4037 109.457 98.2791C119.875 99.7072 123.258 110.985 123.258 110.985C123.258 110.985 114.159 111.569 92.7817 112.917Z" fill="#A2C2DD"/>
<path d="M100.829 97.6423C100.829 97.6423 100.803 97.6678 100.752 97.7061C99.9265 98.3534 92.4299 104.307 87.2075 111.124L54.616 111.682C55.5434 110.946 56.6744 110.057 57.8942 109.093C62.786 105.259 69.19 100.346 70.3971 99.9526C71.7947 99.5087 77.1567 98.6323 82.1757 98.2393C82.595 98.2009 83.0271 98.1754 83.4591 98.1376C88.0968 97.8203 92.8871 97.7062 96.2541 97.6679H96.5719C99.1514 97.63 100.829 97.6423 100.829 97.6423Z" fill="#C4D9ED"/>
<path d="M51.874 125.836V126.242C51.874 127.588 50.798 128.68 49.472 128.68H37.2244C35.9108 128.68 34.8225 127.588 34.8225 126.242V125.836C34.8225 124.49 35.9108 123.399 37.2244 123.399H49.4719C50.798 123.399 51.874 124.49 51.874 125.836Z" fill="#A2C2DD"/>
<path d="M51.8743 125.836V126.242C51.8743 127.588 50.7983 128.68 49.4723 128.68H38.6134C37.2874 128.68 36.2114 127.588 36.2114 126.242V125.836C36.2114 124.49 37.2874 123.399 38.6134 123.399H49.4722C50.7983 123.399 51.8743 124.49 51.8743 125.836Z" fill="#C4D9ED"/>
<path d="M27.1808 125.836V126.242C27.1808 127.588 26.5822 128.68 25.8444 128.68H19.0304C18.2996 128.68 17.6941 127.588 17.6941 126.242V125.836C17.6941 124.49 18.2997 123.399 19.0304 123.399H25.8444C26.5822 123.399 27.1808 124.49 27.1808 125.836Z" fill="#A2C2DD"/>
<path d="M27.1807 125.836V126.242C27.1807 127.588 26.5821 128.68 25.8443 128.68H19.8028C19.0651 128.68 18.4666 127.588 18.4666 126.242V125.836C18.4666 124.49 19.0651 123.399 19.8028 123.399H25.8443C26.5821 123.399 27.1807 124.49 27.1807 125.836Z" fill="#C4D9ED"/>
<path d="M100.752 97.706C99.9265 98.3533 92.4299 104.307 87.2075 111.124L54.616 111.682C55.5434 110.946 56.6744 110.057 57.8942 109.093C65.2892 107.239 77.2205 103.583 83.4592 98.1374C88.0969 97.82 92.8872 97.706 96.2542 97.6677H96.572C98.0333 97.68 99.4308 97.6931 100.752 97.706Z" fill="#A2C2DD"/>
<path d="M174.163 144.112H108.896C106.85 144.112 105.176 142.44 105.176 140.395V9.99759C105.176 7.9532 106.85 6.28052 108.896 6.28052H174.163C176.209 6.28052 177.884 7.9532 177.884 9.99759V140.395C177.884 142.44 176.209 144.112 174.163 144.112Z" fill="#D3671E"/>
<path d="M181.211 144.112H115.945C113.898 144.112 112.224 142.44 112.224 140.395V9.99759C112.224 7.9532 113.898 6.28052 115.945 6.28052H181.211C183.257 6.28052 184.932 7.9532 184.932 9.99759V140.395C184.932 142.44 183.257 144.112 181.211 144.112Z" fill="#F99746"/>
<path opacity="0.4" d="M159.234 11.4976H140.333C139.929 11.4976 139.598 11.8282 139.598 12.2323C139.598 12.6363 139.929 12.967 140.333 12.967H159.234C159.638 12.967 159.969 12.6363 159.969 12.2323C159.969 11.8282 159.638 11.4976 159.234 11.4976Z" fill="#D3671E"/>
<path opacity="0.4" d="M136.976 11.4976C136.572 11.4976 136.241 11.8282 136.241 12.2323C136.241 12.6363 136.572 12.967 136.976 12.967C137.381 12.967 137.712 12.6363 137.712 12.2323C137.712 11.8282 137.381 11.4976 136.976 11.4976Z" fill="#D3671E"/>
<path opacity="0.4" d="M144.736 136.497C144.736 133.88 146.859 131.758 149.478 131.758C152.098 131.758 154.221 133.88 154.221 136.497C154.221 139.114 152.098 141.235 149.478 141.235C146.859 141.235 144.736 139.114 144.736 136.497Z" fill="#D86713"/>
<path d="M178.726 17.2097H118.276V128.694H178.726V17.2097Z" fill="#D5E7F7"/>
<path d="M178.726 115.76H118.276V128.702H178.726V115.76Z" fill="#D5E7F7"/>
<path d="M180.531 93.7989L167.982 73.2523C170.788 71.3304 172.61 68.7021 173.408 65.4173C175.714 55.9207 168.577 43.7147 166.205 40.0093C167.795 38.4674 168.785 36.3107 168.785 33.9271C168.785 29.2517 164.978 25.448 160.298 25.448C155.618 25.448 151.811 29.2517 151.811 33.9271C151.811 34.8001 151.944 35.6426 152.19 36.4358C143.061 41.7212 133.206 47.2814 129.723 49.0162L119.282 31.6122C118.782 30.7791 117.701 30.5085 116.867 31.0078C116.033 31.5071 115.762 32.5872 116.262 33.4203L131.907 59.4989C133.64 62.3865 137.321 63.3979 140.287 61.8013L150.243 56.4441C151.656 55.6835 153.419 56.16 154.255 57.5294L163.083 71.9832C145.327 81.3862 119.819 94.7972 117.853 95.5627C116.968 95.8282 116.433 96.74 116.648 97.65C116.839 98.4596 117.562 99.0054 118.359 99.0054C118.493 99.0054 118.629 98.9899 118.765 98.958C119.212 98.8527 119.888 98.6934 143.323 86.3827C152.404 81.6119 161.465 76.8192 164.92 74.9906L177.526 95.631C177.858 96.1739 178.437 96.4738 179.03 96.4738C179.343 96.4736 179.659 96.3904 179.945 96.216C180.775 95.71 181.038 94.6278 180.531 93.7989ZM160.298 28.9649C163.037 28.9649 165.265 31.1909 165.265 33.9271C165.265 36.6633 163.037 38.8893 160.298 38.8893C157.559 38.8893 155.331 36.6633 155.331 33.9271C155.331 31.1909 157.559 28.9649 160.298 28.9649ZM148.573 53.3478L138.618 58.705C137.311 59.4081 135.69 58.9627 134.927 57.6908L131.534 52.0353C133.308 51.1427 136.661 49.3376 143.226 45.6203C147.605 43.1408 151.894 40.6692 153.91 39.5037C155.467 41.2815 157.753 42.4063 160.298 42.4063C161.326 42.4063 162.311 42.2228 163.223 41.887C164.103 43.2671 165.753 46.0083 167.238 49.3196C169.149 53.5837 171.178 59.6947 169.986 64.5928C169.409 66.9659 168.146 68.827 166.145 70.2451L157.26 55.6978C155.45 52.733 151.634 51.7011 148.573 53.3478Z" fill="#F99746"/>
<path d="M165.829 31.2109C165.647 31.2109 165.471 31.1154 165.376 30.9458C165.237 30.6964 165.326 30.3813 165.576 30.2421L179.554 22.441C179.803 22.3017 180.119 22.3909 180.258 22.6403C180.397 22.8897 180.308 23.2048 180.059 23.3441L166.08 31.1451C166.001 31.1898 165.914 31.2109 165.829 31.2109Z" fill="#F99746"/>
<path d="M156.725 28.8921C156.559 28.8921 156.395 28.8121 156.295 28.6637L151.182 21.0781C151.022 20.8412 151.085 20.5198 151.322 20.3602C151.559 20.2007 151.881 20.2634 152.041 20.5003L157.154 28.0859C157.314 28.3228 157.251 28.6442 157.014 28.8038C156.925 28.8635 156.825 28.8921 156.725 28.8921Z" fill="#F99746"/>
<path d="M155.395 116.779C155.221 116.779 155.051 116.691 154.953 116.531L137.474 87.984C137.325 87.7402 137.402 87.422 137.646 87.2728C137.89 87.1239 138.208 87.2005 138.357 87.4441L155.836 115.991C155.985 116.235 155.909 116.553 155.665 116.702C155.58 116.754 155.487 116.779 155.395 116.779Z" fill="#F99746"/>
<path d="M160.298 36.3779C161.653 36.3779 162.751 35.2805 162.751 33.9268C162.751 32.573 161.653 31.4756 160.298 31.4756C158.943 31.4756 157.844 32.573 157.844 33.9268C157.844 35.2805 158.943 36.3779 160.298 36.3779Z" fill="#F99746"/>
<path d="M148.4 115.626L140.599 102.852C138.559 99.5123 134.279 98.3207 130.804 100.125L118.361 106.588V115.811L148.4 115.626Z" fill="#C4D9ED"/>
<path d="M118.361 89.2681C118.292 88.645 142.704 76.056 151.45 71.5668C153.092 70.724 153.644 68.6476 152.637 67.1016L152.167 66.3805C151.536 65.4106 150.275 65.0706 149.24 65.5913L137.472 71.5155C135.15 72.6843 132.32 71.9037 130.927 69.7102L118.277 48.7888L118.361 89.2681Z" fill="#C4D9ED"/>
<path d="M124.686 27.9091L130.528 37.878C131.726 39.924 134.343 40.6363 136.415 39.4805L142.566 36.0494C143.829 35.3446 144.655 34.0594 144.784 32.6194C144.909 31.2118 145.249 29.3667 146.12 27.7959C146.876 26.4328 146.825 24.7658 146.011 23.437L146.009 23.4344C145.217 22.1416 143.808 21.3533 142.291 21.3533H128.449C125.081 21.3534 122.985 25.0055 124.686 27.9091Z" fill="#C4D9ED"/>
<path d="M178.727 31.8394V55.8049C177.36 50.7892 174.969 46.272 173.464 43.7265C172.719 42.4655 172.62 40.9367 173.155 39.5735C173.661 38.2805 173.911 36.941 174.031 35.8353C174.199 34.2733 175.279 32.9597 176.774 32.4735L178.727 31.8394Z" fill="#C4D9ED"/>
<path d="M176.468 72.8463C177.465 71.6527 178.204 70.3639 178.727 69.0107V82.4641L175.98 76.7171C175.372 75.4426 175.563 73.9304 176.468 72.8463Z" fill="#C4D9ED"/>
<path d="M178.727 105.025V115.811H165.926L152.299 94.9076C150.549 92.2233 151.438 88.6217 154.234 87.0567L158.072 84.9083C161.411 83.0392 165.63 84.118 167.66 87.3587L178.727 105.025Z" fill="#C4D9ED"/>
<path d="M138.154 51.81L150.941 44.9224C151.571 44.583 152.322 44.5515 152.979 44.8368C154.623 45.551 157.95 46.835 160.589 46.821C161.488 46.8163 162.308 47.3265 162.701 48.1337C163.658 50.1018 165.311 53.754 166.212 57.2116C166.862 59.7069 163.565 61.2474 162.059 59.1534L156.323 51.18C155.688 50.2975 154.527 49.9707 153.524 50.3922L140.165 56.0094C139.073 56.4686 137.809 56.0364 137.228 55.005C136.588 53.8688 137.005 52.4288 138.154 51.81Z" fill="#C4D9ED"/>
<path d="M164.177 119.015H132.979C132.618 119.015 132.323 119.309 132.323 119.67C132.323 120.03 132.618 120.325 132.979 120.325H164.177C164.538 120.325 164.833 120.03 164.833 119.67C164.833 119.309 164.538 119.015 164.177 119.015Z" fill="#699FF0"/>
<path d="M164.177 121.884H132.978C132.618 121.884 132.323 122.179 132.323 122.539C132.323 122.9 132.618 123.194 132.978 123.194H164.177C164.537 123.194 164.832 122.9 164.832 122.539C164.832 122.179 164.537 121.884 164.177 121.884Z" fill="#699FF0"/>
<path d="M124.572 117.151C123.031 117.151 121.782 118.4 121.782 119.939C121.782 121.479 124.572 124.903 124.572 124.903C124.572 124.903 127.363 121.479 127.363 119.939C127.363 118.4 126.114 117.151 124.572 117.151ZM124.572 121.214C123.852 121.214 123.268 120.631 123.268 119.911C123.268 119.191 123.852 118.608 124.572 118.608C125.293 118.608 125.877 119.191 125.877 119.911C125.877 120.631 125.293 121.214 124.572 121.214Z" fill="#D3671E"/>
<path d="M145.231 64.707C143.689 64.707 142.44 65.9553 142.44 67.495C142.44 69.0349 145.231 72.4583 145.231 72.4583C145.231 72.4583 148.021 69.035 148.021 67.495C148.021 65.9553 146.772 64.707 145.231 64.707ZM145.231 68.7698C144.51 68.7698 143.926 68.1864 143.926 67.4667C143.926 66.7469 144.51 66.1634 145.231 66.1634C145.951 66.1634 146.535 66.7469 146.535 67.4667C146.535 68.1864 145.951 68.7698 145.231 68.7698Z" fill="#D3671E"/>
<path d="M148.021 62.8069C147.947 62.8069 147.873 62.7807 147.814 62.7276C147.686 62.6133 147.675 62.417 147.79 62.2893C147.892 62.1751 147.995 62.0614 148.097 61.948C148.212 61.8209 148.409 61.811 148.536 61.926C148.663 62.041 148.673 62.2371 148.558 62.3643C148.456 62.477 148.354 62.5899 148.252 62.7038C148.191 62.7721 148.106 62.8069 148.021 62.8069ZM149.384 61.3152C149.308 61.3152 149.232 61.2878 149.172 61.2321C149.047 61.1153 149.04 60.9191 149.156 60.7935C149.513 60.411 149.875 60.0277 150.233 59.6546C150.351 59.531 150.548 59.5267 150.672 59.6454C150.796 59.7639 150.8 59.9602 150.681 60.0841C150.325 60.455 149.966 60.8358 149.611 61.2163C149.55 61.2821 149.467 61.3152 149.384 61.3152ZM151.547 59.0606C151.468 59.0606 151.389 59.0307 151.328 58.9711C151.206 58.8507 151.205 58.6543 151.326 58.5322C151.693 58.1601 152.067 57.7881 152.436 57.4262C152.558 57.3062 152.755 57.3079 152.875 57.4302C152.995 57.5525 152.994 57.7489 152.871 57.869C152.504 58.2287 152.133 58.5987 151.768 58.9683C151.707 59.0297 151.627 59.0606 151.547 59.0606ZM153.777 56.8728C153.695 56.8728 153.613 56.8405 153.552 56.7764C153.434 56.6523 153.439 56.4557 153.563 56.3376C153.942 55.9772 154.328 55.6171 154.708 55.2672C154.834 55.1509 155.031 55.1591 155.147 55.2851C155.263 55.4112 155.255 55.6076 155.129 55.7237C154.751 56.0713 154.368 56.4291 153.991 56.7872C153.931 56.8445 153.854 56.8728 153.777 56.8728ZM156.077 54.7575C155.991 54.7575 155.906 54.7225 155.845 54.6536C155.731 54.5257 155.742 54.3295 155.87 54.2154C156.26 53.8682 156.657 53.5211 157.05 53.1833C157.18 53.0715 157.376 53.0861 157.488 53.216C157.6 53.346 157.585 53.5419 157.455 53.6536C157.065 53.989 156.671 54.334 156.283 54.6788C156.224 54.7316 156.15 54.7575 156.077 54.7575ZM158.446 52.7205C158.357 52.7205 158.269 52.6825 158.207 52.6085C158.098 52.4766 158.115 52.281 158.247 52.1715C158.649 51.8382 159.058 51.5049 159.463 51.1809C159.596 51.0737 159.792 51.0953 159.899 51.2289C160.006 51.3626 159.985 51.5578 159.851 51.6651C159.449 51.9869 159.043 52.318 158.644 52.6489C158.586 52.697 158.516 52.7205 158.446 52.7205ZM160.885 50.7679C160.792 50.7679 160.7 50.7264 160.639 50.6471C160.535 50.5115 160.56 50.3166 160.695 50.2118C161.11 49.8925 161.53 49.574 161.946 49.2657C162.083 49.1635 162.278 49.1921 162.38 49.3297C162.483 49.4674 162.454 49.6618 162.316 49.7641C161.904 50.0701 161.486 50.3862 161.075 50.7033C161.019 50.7467 160.952 50.7679 160.885 50.7679ZM163.395 48.9059C163.298 48.9059 163.202 48.8607 163.142 48.7759C163.042 48.6365 163.074 48.4427 163.214 48.3431C163.639 48.0401 164.071 47.7378 164.5 47.4447C164.641 47.348 164.834 47.3838 164.931 47.5253C165.028 47.6665 164.992 47.8596 164.851 47.9566C164.426 48.2473 163.996 48.5473 163.575 48.8481C163.52 48.8871 163.457 48.9059 163.395 48.9059ZM165.973 47.1411C165.872 47.1411 165.773 47.0919 165.713 47.0011C165.619 46.8578 165.659 46.6655 165.802 46.5714C166.239 46.2851 166.683 45.9999 167.123 45.7239C167.268 45.6328 167.46 45.6765 167.551 45.8217C167.642 45.9666 167.598 46.1583 167.453 46.2496C167.017 46.5233 166.576 46.806 166.144 47.09C166.091 47.1246 166.032 47.1411 165.973 47.1411ZM168.62 45.4801C168.515 45.4801 168.412 45.4263 168.354 45.3294C168.265 45.1824 168.313 44.9919 168.46 44.9037C168.908 44.6352 169.363 44.3685 169.814 44.1107C169.963 44.0256 170.153 44.0773 170.238 44.226C170.323 44.3748 170.271 44.5643 170.122 44.6494C169.676 44.9049 169.224 45.1695 168.78 45.4357C168.73 45.4657 168.674 45.4801 168.62 45.4801ZM171.333 43.9294C171.223 43.9294 171.116 43.8707 171.06 43.7673C170.978 43.6168 171.033 43.4283 171.184 43.3465C171.643 43.097 172.109 42.8496 172.571 42.6114C172.723 42.5325 172.91 42.5923 172.989 42.7445C173.068 42.8967 173.008 43.0839 172.856 43.1627C172.398 43.3989 171.936 43.6442 171.481 43.8916C171.434 43.9171 171.383 43.9294 171.333 43.9294ZM174.11 42.4955C173.995 42.4955 173.884 42.4316 173.83 42.3216C173.755 42.1677 173.819 41.9818 173.973 41.9064C174.441 41.6774 174.918 41.4505 175.39 41.2323C175.546 41.1606 175.731 41.2281 175.803 41.3837C175.875 41.5393 175.807 41.7237 175.651 41.7957C175.183 42.0119 174.71 42.2369 174.246 42.4638C174.202 42.4853 174.156 42.4955 174.11 42.4955ZM176.947 41.1847C176.827 41.1847 176.713 41.115 176.662 40.9981C176.593 40.841 176.665 40.6583 176.822 40.5898C177.302 40.3813 177.788 40.1761 178.269 39.9797C178.428 39.9149 178.609 39.9909 178.674 40.1496C178.739 40.3081 178.663 40.4893 178.504 40.5541C178.028 40.7488 177.545 40.9522 177.071 41.159C177.03 41.1765 176.988 41.1847 176.947 41.1847ZM227.157 40.3444C227.111 40.3444 227.065 40.3344 227.022 40.3132C227.017 40.3107 226.518 40.0702 225.602 39.7052C225.443 39.6419 225.365 39.4613 225.429 39.3021C225.492 39.1431 225.673 39.0654 225.832 39.1289C226.772 39.5032 227.272 39.7447 227.293 39.7549C227.447 39.8298 227.512 40.0152 227.437 40.1695C227.383 40.2801 227.272 40.3444 227.157 40.3444ZM179.84 40.0028C179.715 40.0028 179.597 39.9269 179.55 39.8033C179.488 39.6433 179.569 39.4638 179.729 39.4027C180.217 39.2162 180.713 39.0334 181.202 38.8593C181.363 38.8018 181.541 38.8861 181.598 39.0475C181.656 39.2089 181.572 39.3863 181.41 39.4441C180.925 39.6166 180.434 39.7977 179.95 39.9823C179.914 39.9964 179.877 40.0028 179.84 40.0028ZM224.253 39.1757C224.218 39.1757 224.183 39.1699 224.149 39.1576C223.672 38.9874 223.177 38.8192 222.677 38.6574C222.514 38.6046 222.424 38.4296 222.477 38.2665C222.53 38.1034 222.705 38.0137 222.868 38.0668C223.374 38.2304 223.876 38.4008 224.358 38.5731C224.52 38.6308 224.604 38.8084 224.546 38.9699C224.5 39.0968 224.381 39.1757 224.253 39.1757ZM182.784 38.9554C182.654 38.9554 182.532 38.8727 182.489 38.7422C182.436 38.5795 182.524 38.4041 182.687 38.3504C183.183 38.1869 183.687 38.0273 184.184 37.8762C184.348 37.8264 184.522 37.9188 184.571 38.0828C184.621 38.2468 184.529 38.4202 184.365 38.47C183.872 38.6196 183.373 38.7777 182.881 38.9396C182.849 38.9504 182.816 38.9554 182.784 38.9554ZM221.278 38.2124C221.249 38.2124 221.219 38.2083 221.19 38.1998C220.697 38.0555 220.193 37.9151 219.692 37.7825C219.526 37.7386 219.427 37.5687 219.471 37.4031C219.515 37.2375 219.684 37.1386 219.85 37.1823C220.357 37.3164 220.867 37.4584 221.365 37.6041C221.53 37.6524 221.624 37.8248 221.576 37.9892C221.536 38.1245 221.412 38.2124 221.278 38.2124ZM185.775 38.0466C185.639 38.0466 185.514 37.9567 185.475 37.8197C185.429 37.6545 185.526 37.4834 185.691 37.4375C186.193 37.2979 186.704 37.1623 187.209 37.0346C187.376 36.9922 187.544 37.0931 187.587 37.2594C187.629 37.4255 187.528 37.5942 187.361 37.6361C186.861 37.7628 186.355 37.897 185.858 38.0353C185.83 38.043 185.802 38.0466 185.775 38.0466ZM218.254 37.4121C218.23 37.4121 218.206 37.4094 218.182 37.4037C217.681 37.2846 217.17 37.1699 216.664 37.0629C216.496 37.0273 216.389 36.8627 216.424 36.6951C216.46 36.5274 216.624 36.4199 216.792 36.4557C217.303 36.5637 217.819 36.6795 218.326 36.7998C218.493 36.8395 218.596 37.0068 218.556 37.1735C218.522 37.3161 218.395 37.4121 218.254 37.4121ZM188.805 37.2806C188.663 37.2806 188.535 37.1831 188.502 37.0392C188.465 36.8721 188.569 36.7059 188.736 36.6678C189.245 36.5522 189.761 36.441 190.272 36.3378C190.439 36.304 190.604 36.4123 190.638 36.5804C190.672 36.7483 190.563 36.9121 190.395 36.9461C189.89 37.0483 189.378 37.1583 188.874 37.2729C188.851 37.2782 188.828 37.2806 188.805 37.2806ZM215.195 36.7649C215.176 36.7649 215.157 36.7631 215.138 36.7596C214.631 36.6653 214.115 36.5758 213.604 36.4934C213.435 36.4661 213.32 36.3066 213.347 36.1375C213.374 35.9684 213.533 35.8531 213.703 35.8806C214.219 35.9639 214.74 36.0543 215.251 36.1495C215.42 36.1808 215.531 36.3429 215.5 36.5116C215.472 36.6607 215.341 36.7649 215.195 36.7649ZM191.869 36.6607C191.721 36.6607 191.59 36.5551 191.563 36.4047C191.533 36.2361 191.646 36.0749 191.815 36.0449C192.328 35.9537 192.85 35.8677 193.364 35.7892C193.533 35.7629 193.692 35.8796 193.718 36.0489C193.744 36.2184 193.628 36.3767 193.458 36.4026C192.948 36.4804 192.432 36.5657 191.923 36.6561C191.905 36.6592 191.887 36.6607 191.869 36.6607ZM212.108 36.267C212.094 36.267 212.079 36.2659 212.065 36.2641C211.553 36.1941 211.034 36.1294 210.521 36.0716C210.35 36.0525 210.228 35.899 210.247 35.7286C210.266 35.5584 210.42 35.4355 210.59 35.4549C211.108 35.5131 211.633 35.5786 212.149 35.6492C212.319 35.6724 212.438 35.8289 212.415 35.9987C212.394 36.1541 212.26 36.267 212.108 36.267ZM194.959 36.1887C194.805 36.1887 194.671 36.0746 194.651 35.9178C194.629 35.7479 194.75 35.5923 194.92 35.5706C195.438 35.5044 195.962 35.4434 196.48 35.3896C196.652 35.3721 196.803 35.4958 196.821 35.6662C196.839 35.8368 196.715 35.9894 196.544 36.007C196.031 36.0601 195.512 36.1204 194.999 36.1862C194.985 36.1878 194.972 36.1887 194.959 36.1887ZM209 35.9171C208.991 35.9171 208.982 35.9166 208.973 35.9159C208.458 35.8702 207.935 35.8305 207.421 35.7972C207.25 35.7861 207.12 35.6386 207.131 35.4675C207.142 35.2965 207.29 35.167 207.461 35.1779C207.98 35.2114 208.507 35.2517 209.027 35.2976C209.198 35.3127 209.324 35.4634 209.309 35.6342C209.295 35.7955 209.159 35.9171 209 35.9171ZM198.068 35.8661C197.908 35.8661 197.772 35.7427 197.759 35.5804C197.746 35.4095 197.873 35.2601 198.044 35.2465C198.564 35.2053 199.092 35.1697 199.611 35.1409C199.783 35.1317 199.929 35.2626 199.939 35.4338C199.948 35.6049 199.817 35.7514 199.646 35.7608C199.131 35.7892 198.609 35.8244 198.093 35.8653C198.085 35.8659 198.077 35.8661 198.068 35.8661ZM205.88 35.7158C205.876 35.7158 205.871 35.7157 205.867 35.7155C205.352 35.6945 204.828 35.6795 204.311 35.6709C204.14 35.6681 204.003 35.5269 204.006 35.3554C204.009 35.1858 204.148 35.0503 204.317 35.0503C204.318 35.0503 204.32 35.0503 204.322 35.0504C204.844 35.0591 205.372 35.0742 205.892 35.0953C206.064 35.1025 206.197 35.2468 206.19 35.4182C206.183 35.5849 206.045 35.7158 205.88 35.7158ZM201.19 35.6936C201.023 35.6936 200.885 35.5609 200.88 35.393C200.875 35.2217 201.009 35.0784 201.181 35.0732C201.7 35.057 202.229 35.0467 202.751 35.043C202.921 35.0419 203.063 35.1795 203.064 35.3511C203.065 35.5224 202.927 35.6624 202.756 35.6637C202.238 35.6674 201.715 35.6776 201.2 35.6935C201.197 35.6935 201.193 35.6936 201.19 35.6936Z" fill="#699FF0"/>
<path d="M78.8598 81.1317C78.7671 81.1317 78.6754 81.0904 78.6142 81.0115C78.5091 80.8761 78.5338 80.6811 78.6695 80.5762C78.6877 80.5621 79.1247 80.2244 79.9532 79.6442C80.0937 79.5458 80.2871 79.58 80.3858 79.7203C80.4842 79.8606 80.4502 80.0541 80.3098 80.1525C79.4952 80.7231 79.0544 81.0634 79.05 81.0668C78.9932 81.1105 78.9262 81.1317 78.8598 81.1317ZM81.4256 79.3257C81.3253 79.3257 81.2268 79.2772 81.167 79.1875C81.0717 79.0449 81.1105 78.8523 81.2531 78.7572C81.6795 78.4733 82.1227 78.1849 82.5709 77.8992C82.7155 77.8073 82.9074 77.8494 82.9996 77.9942C83.092 78.1387 83.0495 78.3305 82.9047 78.4227C82.4601 78.706 82.0203 78.9922 81.5975 79.2737C81.5447 79.3089 81.4849 79.3257 81.4256 79.3257ZM84.0663 77.6425C83.9617 77.6425 83.8598 77.5899 83.8011 77.4943C83.7115 77.3481 83.7576 77.157 83.904 77.0676C84.3463 76.7971 84.7996 76.5254 85.251 76.26C85.3988 76.1731 85.5892 76.2224 85.6762 76.37C85.7631 76.5178 85.7139 76.7079 85.5661 76.7948C85.1177 77.0582 84.6676 77.3281 84.2283 77.5968C84.1775 77.6277 84.1216 77.6425 84.0663 77.6425ZM86.7644 76.056C86.6562 76.056 86.551 75.9995 86.4939 75.8985C86.4094 75.7493 86.4622 75.56 86.6112 75.4756C87.0631 75.2204 87.525 74.9642 87.9844 74.7146C88.1351 74.6328 88.3236 74.6882 88.4056 74.8388C88.4876 74.9894 88.4321 75.1778 88.2813 75.2597C87.8251 75.5078 87.366 75.762 86.9172 76.0157C86.8689 76.0432 86.8163 76.056 86.7644 76.056ZM89.5138 74.5618C89.4018 74.5618 89.2937 74.5012 89.2383 74.3953C89.1589 74.2433 89.2176 74.0559 89.3696 73.9764C89.8298 73.7362 90.2999 73.4955 90.7668 73.2612C90.9201 73.184 91.1065 73.2459 91.1837 73.3991C91.2606 73.5523 91.1989 73.7389 91.0453 73.8157C90.5815 74.0485 90.1146 74.2876 89.6573 74.5265C89.6115 74.5505 89.5623 74.5618 89.5138 74.5618ZM92.3102 73.1589C92.1946 73.1589 92.0837 73.0942 92.0302 72.9832C91.9558 72.8289 92.0208 72.6434 92.1752 72.569C92.6435 72.3435 93.121 72.1187 93.5949 71.9001C93.7508 71.8285 93.9352 71.8963 94.0071 72.0518C94.0789 72.2075 94.0109 72.3918 93.8552 72.4637C93.3845 72.6806 92.9099 72.9042 92.4448 73.1281C92.4015 73.1491 92.3555 73.1589 92.3102 73.1589ZM95.1511 71.8495C95.0317 71.8495 94.9181 71.7803 94.8667 71.6643C94.7975 71.5075 94.8685 71.3243 95.0255 71.255C95.5012 71.0453 95.9861 70.8363 96.4667 70.6341C96.6248 70.568 96.8069 70.6417 96.8734 70.7996C96.9401 70.9575 96.8659 71.1395 96.7079 71.2059C96.2304 71.407 95.7488 71.6145 95.2762 71.8229C95.2356 71.841 95.1931 71.8495 95.1511 71.8495ZM98.034 70.6361C97.9108 70.6361 97.7943 70.5624 97.7457 70.4412C97.6818 70.2822 97.759 70.1015 97.9181 70.0377C98.4006 69.8443 98.8924 69.652 99.38 69.4664C99.54 69.4055 99.7197 69.4857 99.781 69.6459C99.842 69.8059 99.7616 69.9853 99.6013 70.0464C99.1171 70.2308 98.6287 70.4217 98.1497 70.6137C98.1119 70.629 98.0726 70.6361 98.034 70.6361ZM100.957 69.5232C100.83 69.5232 100.711 69.4445 100.665 69.3182C100.607 69.1569 100.69 68.979 100.852 68.921C101.341 68.7443 101.84 68.5695 102.333 68.4017C102.495 68.3463 102.672 68.4332 102.727 68.5953C102.782 68.7576 102.695 68.9338 102.533 68.9891C102.044 69.1558 101.549 69.3293 101.062 69.5047C101.028 69.5173 100.992 69.5232 100.957 69.5232ZM103.918 68.5155C103.786 68.5155 103.664 68.4316 103.622 68.2998C103.57 68.1366 103.66 67.9619 103.823 67.9095C104.321 67.7502 104.825 67.5941 105.323 67.4452C105.487 67.3958 105.66 67.4892 105.709 67.6533C105.758 67.8175 105.665 67.9905 105.501 68.0397C105.007 68.1876 104.507 68.3426 104.013 68.5007C103.981 68.5108 103.949 68.5155 103.918 68.5155ZM106.914 67.6186C106.778 67.6186 106.653 67.5286 106.615 67.3915C106.568 67.2265 106.665 67.0552 106.83 67.0093C107.334 66.8689 107.844 66.7321 108.346 66.6027C108.512 66.5595 108.682 66.6595 108.725 66.8255C108.768 66.9916 108.668 67.1608 108.502 67.2035C108.003 67.332 107.497 67.4679 106.997 67.6071C106.969 67.6149 106.941 67.6186 106.914 67.6186ZM109.942 66.8382C109.801 66.8382 109.673 66.7421 109.64 66.5992C109.6 66.4324 109.703 66.2653 109.87 66.2258C110.379 66.1055 110.894 65.9891 111.402 65.8799C111.57 65.8437 111.735 65.9503 111.771 66.1179C111.807 66.2855 111.7 66.4505 111.532 66.4866C111.029 66.5949 110.518 66.7104 110.013 66.8296C109.99 66.8354 109.965 66.8382 109.942 66.8382ZM139.376 66.4221C139.353 66.4221 139.329 66.4194 139.306 66.414C138.804 66.2979 138.293 66.1868 137.787 66.0841C137.619 66.05 137.51 65.8862 137.544 65.7181C137.578 65.5503 137.742 65.4416 137.91 65.476C138.422 65.5799 138.939 65.692 139.446 65.8093C139.613 65.848 139.717 66.0147 139.678 66.1817C139.645 66.3251 139.517 66.4221 139.376 66.4221ZM112.999 66.1806C112.853 66.1806 112.723 66.0775 112.694 65.9293C112.662 65.7611 112.772 65.5981 112.94 65.5657C113.454 65.4661 113.974 65.3712 114.485 65.2838C114.654 65.2546 114.814 65.3683 114.843 65.5371C114.872 65.7061 114.758 65.8664 114.59 65.8955C114.083 65.9823 113.568 66.0764 113.058 66.1749C113.038 66.1788 113.018 66.1806 112.999 66.1806ZM136.314 65.8001C136.296 65.8001 136.278 65.7985 136.259 65.7954C135.752 65.7063 135.235 65.6229 134.725 65.5476C134.555 65.5225 134.438 65.3648 134.463 65.1953C134.488 65.0256 134.646 64.9082 134.816 64.9335C135.332 65.0098 135.854 65.0941 136.367 65.1839C136.536 65.2136 136.649 65.3744 136.619 65.5432C136.593 65.6938 136.461 65.8001 136.314 65.8001ZM116.08 65.6526C115.929 65.6526 115.797 65.5421 115.774 65.388C115.748 65.2186 115.865 65.0604 116.035 65.0352C116.552 64.9581 117.076 64.8861 117.591 64.8209C117.761 64.7995 117.916 64.9199 117.938 65.0898C117.959 65.2599 117.839 65.4151 117.668 65.4368C117.158 65.5012 116.639 65.5727 116.127 65.6492C116.111 65.6514 116.096 65.6526 116.08 65.6526ZM133.222 65.343C133.209 65.343 133.197 65.3423 133.184 65.3407C132.672 65.279 132.152 65.2231 131.638 65.1746C131.467 65.1585 131.342 65.0071 131.358 64.8366C131.374 64.6661 131.526 64.5403 131.696 64.5569C132.216 64.6058 132.741 64.6623 133.259 64.7248C133.429 64.7453 133.55 64.8998 133.53 65.07C133.511 65.2273 133.376 65.343 133.222 65.343ZM119.182 65.2606C119.025 65.2606 118.89 65.1417 118.874 64.9822C118.856 64.8117 118.98 64.6591 119.151 64.6415C119.67 64.5876 120.197 64.5393 120.714 64.4978C120.885 64.4851 121.035 64.6115 121.049 64.7824C121.063 64.9532 120.935 65.1029 120.764 65.1165C120.251 65.1576 119.73 65.2056 119.215 65.2588C119.204 65.26 119.193 65.2606 119.182 65.2606ZM130.11 65.0498C130.103 65.0498 130.096 65.0495 130.088 65.0491C129.574 65.014 129.052 64.9853 128.536 64.9635C128.364 64.9562 128.231 64.8114 128.238 64.6403C128.246 64.469 128.389 64.3335 128.562 64.3434C129.084 64.3654 129.611 64.3945 130.13 64.4299C130.302 64.4416 130.431 64.5895 130.419 64.7606C130.408 64.9243 130.272 65.0498 130.11 65.0498ZM122.299 65.011C122.135 65.011 121.998 64.8833 121.989 64.7181C121.979 64.547 122.11 64.4004 122.282 64.3907C122.803 64.3615 123.331 64.3379 123.851 64.3211C124.024 64.3169 124.166 64.4499 124.171 64.6212C124.177 64.7925 124.042 64.9357 123.871 64.9415C123.356 64.958 122.833 64.9812 122.317 65.0104C122.311 65.0109 122.305 65.011 122.299 65.011ZM126.987 64.9174C126.985 64.9174 126.983 64.9173 126.981 64.9173C126.466 64.9086 125.943 64.9064 125.426 64.9101C125.425 64.9101 125.424 64.9101 125.424 64.9101C125.253 64.9101 125.114 64.7728 125.113 64.6022C125.112 64.4307 125.25 64.2909 125.421 64.2895C125.943 64.2855 126.471 64.2876 126.992 64.2966C127.163 64.2994 127.3 64.4407 127.297 64.6122C127.294 64.7819 127.156 64.9173 126.987 64.9174Z" fill="#699FF0"/>
<path d="M231.369 45.8101C231.369 45.8101 233.438 43.1922 232.36 41.6775C232.122 41.3434 230.764 42.8597 230.764 42.8597C230.764 42.8597 231.161 45.2952 231.369 45.8101Z" fill="#9C5F33"/>
<path d="M332.623 145H0.377292C0.169852 145 0 144.831 0 144.623V144.494C0 144.287 0.169852 144.118 0.377292 144.118H332.623C332.83 144.118 333 144.287 333 144.494V144.623C333 144.831 332.83 145 332.623 145Z" fill="#2E3552"/>
</svg>
