<svg width="25" height="23" viewBox="0 0 25 23" fill="none" xmlns="http://www.w3.org/2000/svg">
<path d="M18 10C14.416 10 11.5 12.916 11.5 16.5C11.5 20.084 14.417 23 18 23C21.583 23 24.5 20.084 24.5 16.5C24.5 12.916 21.584 10 18 10ZM18 22C14.967 22 12.5 19.533 12.5 16.5C12.5 13.467 14.967 11 18 11C21.033 11 23.5 13.467 23.5 16.5C23.5 19.533 21.032 22 18 22ZM9.525 17H1.5V15.532C1.5 14.002 1.655 12.486 1.963 11H4.5V14H5.5V11H11.526C11.832 10.64 12.167 10.305 12.529 10H2.194C2.376 9.28605 2.594 8.57905 2.848 7.88205L4.991 1.98705C5.206 1.39605 5.772 1.00005 6.401 1.00005H18.599C19.228 1.00005 19.794 1.39605 20.009 1.98705L22.151 7.87605L22.153 7.88105C22.332 8.37405 22.488 8.87405 22.632 9.37705C23.098 9.68005 23.531 10.027 23.928 10.413C23.709 9.43905 23.434 8.47805 23.092 7.53905L20.948 1.64405C20.591 0.660047 19.646 -0.00195312 18.598 -0.00195312H6.401C5.353 -0.00195312 4.409 0.659047 4.052 1.64405L1.908 7.54005C0.973 10.109 0.5 12.797 0.5 15.532V18H2.5V22H7.5V18H9.64C9.582 17.673 9.545 17.339 9.525 17ZM6.5 21H3.5V18H6.5V21ZM20.364 16.601C20.561 16.969 20.544 17.411 20.316 17.754L18.424 20.766L17.576 20.234L19.474 17.212C19.515 17.15 19.493 17.095 19.482 17.074C19.467 17.047 19.44 17.015 19.395 17.015H16.615C16.253 17.015 15.924 16.852 15.713 16.568C15.507 16.291 15.446 15.939 15.548 15.603L15.599 15.488L17.573 12.24L18.428 12.76L16.511 15.914C16.532 15.993 16.562 16.016 16.615 16.016H19.395C19.797 16.016 20.169 16.241 20.364 16.601Z" fill="white"/>
</svg>
