<svg width="375" height="337" viewBox="0 0 375 337" fill="none" xmlns="http://www.w3.org/2000/svg">
<g clip-path="url(#clip0_508_13620)">
<path d="M406 0H-31V337H406V0Z" fill="#A2C3F2"/>
<path d="M359.976 68.1687H278.653V263.855H359.976V68.1687Z" fill="#ADCFF7"/>
<path d="M285.653 76.8952V257.644H295.18V76.8952H285.653Z" fill="#B9DAFC"/>
<path d="M304.918 76.8952V257.644H314.445V76.8952H304.918Z" fill="#B9DAFC"/>
<path d="M324.184 76.8951V257.644H333.71V76.8951H324.184Z" fill="#B9DAFC"/>
<path d="M343.449 76.8951V257.644H352.976V76.8951H343.449Z" fill="#B9DAFC"/>
<path d="M405.498 99.0552H347.065V294.742H405.498V99.0552Z" fill="#ADCFF7"/>
<path d="M354.065 107.782V288.53H363.592V107.782H354.065Z" fill="#B9DAFC"/>
<path d="M373.331 107.782V288.53H382.857V107.782H373.331Z" fill="#B9DAFC"/>
<path d="M15.739 70.4448H-31V266.132H15.739V70.4448Z" fill="#ADCFF7"/>
<path d="M-0.787598 79.1711L-0.787598 259.92H8.73918L8.73918 79.1711H-0.787598Z" fill="#B9DAFC"/>
<path d="M202.847 56.2903H121.525V251.977H202.847V56.2903Z" fill="#ADCFF7"/>
<path d="M128.525 65.0169V245.766H138.052V65.0169H128.525Z" fill="#B9DAFC"/>
<path d="M147.79 65.0169V245.766H157.317V65.0169H147.79Z" fill="#B9DAFC"/>
<path d="M167.056 65.0168V245.765H176.582V65.0168H167.056Z" fill="#B9DAFC"/>
<path d="M186.321 65.0168V245.765H195.848V65.0168H186.321Z" fill="#B9DAFC"/>
<path d="M111.441 99.7559H30.1187V295.443H111.441V99.7559Z" fill="#ADCFF7"/>
<path d="M104.763 106.496H36.7969V116.047H104.763V106.496Z" fill="#B9DAFC"/>
<path d="M104.763 122.666H36.7969V132.217H104.763V122.666Z" fill="#B9DAFC"/>
<path d="M104.763 138.837H36.7969V148.387H104.763V138.837Z" fill="#B9DAFC"/>
<path d="M104.763 155.007H36.7969V164.558H104.763V155.007Z" fill="#B9DAFC"/>
<path d="M104.763 171.177H36.7969V180.728H104.763V171.177Z" fill="#B9DAFC"/>
<path d="M104.763 187.348H36.7969V196.899H104.763V187.348Z" fill="#B9DAFC"/>
<path d="M104.763 203.518H36.7969V213.069H104.763V203.518Z" fill="#B9DAFC"/>
<path d="M104.763 219.689H36.7969V229.239H104.763V219.689Z" fill="#B9DAFC"/>
<path d="M104.763 235.859H36.7969V245.41H104.763V235.859Z" fill="#B9DAFC"/>
<path d="M269.853 95.7339H188.53V291.421H269.853V95.7339Z" fill="#ADCFF7"/>
<path d="M263.175 102.474H195.208V112.025H263.175V102.474Z" fill="#B9DAFC"/>
<path d="M263.175 118.644H195.208V128.195H263.175V118.644Z" fill="#B9DAFC"/>
<path d="M263.175 134.815H195.208V144.366H263.175V134.815Z" fill="#B9DAFC"/>
<path d="M263.175 150.985H195.208V160.536H263.175V150.985Z" fill="#B9DAFC"/>
<path d="M263.175 167.156H195.208V176.706H263.175V167.156Z" fill="#B9DAFC"/>
<path d="M263.175 183.326H195.208V192.877H263.175V183.326Z" fill="#B9DAFC"/>
<path d="M263.175 199.496H195.208V209.047H263.175V199.496Z" fill="#B9DAFC"/>
<path d="M263.175 215.667H195.208V225.217H263.175V215.667Z" fill="#B9DAFC"/>
<path d="M263.175 231.837H195.208V241.388H263.175V231.837Z" fill="#B9DAFC"/>
<path d="M96.2102 140.649C98.6695 137.193 100.117 132.962 100.117 128.393C100.117 119.59 94.7468 112.046 87.1126 108.869C91.5856 104.994 94.4164 99.2657 94.4164 92.8742C94.4164 81.2039 84.9795 71.7433 73.3385 71.7433C64.5679 71.7433 57.0497 77.1139 53.8745 84.7533C51.7757 84.3678 49.6133 84.1648 47.4032 84.1648C27.7007 84.1648 11.7286 100.177 11.7286 119.929C11.7286 122.848 12.08 125.684 12.738 128.4C12.5478 128.396 12.3573 128.393 12.1661 128.393C-1.87895 128.393 -13.2646 139.807 -13.2646 153.888C-13.2646 166.631 -3.93806 177.191 8.24533 179.081C10.668 196.47 25.5599 209.854 43.5724 209.854C54.5547 209.854 64.3761 204.877 70.9204 197.053C75.0082 199.057 79.6026 200.184 84.46 200.184C101.499 200.184 115.312 186.337 115.312 169.254C115.312 156.344 107.42 145.282 96.2102 140.649Z" fill="#5AA85A"/>
<path d="M82.2679 154.445C81.5803 153.82 80.5174 153.872 79.8938 154.561L55.2511 181.801L55.3217 123.378C55.3228 122.448 54.5712 121.692 53.6429 121.691H53.6407C52.7134 121.691 51.9611 122.444 51.9599 123.374L51.9226 154.196L40.6188 146.277L42.0256 129.569C42.1038 128.642 41.4172 127.827 40.4922 127.749C39.5685 127.669 38.7541 128.359 38.676 129.286L37.4332 144.046L27.295 136.943C26.5339 136.411 25.4862 136.597 24.9545 137.359C24.4229 138.122 24.6086 139.173 25.3695 139.706L51.9178 158.304L51.7697 280.729C51.7685 281.659 52.5201 282.415 53.4484 282.416H53.4506C54.3779 282.416 55.1302 281.663 55.1312 280.733L55.2448 186.824L82.3837 156.826C83.0073 156.136 82.9555 155.07 82.2679 154.445Z" fill="#6D4738"/>
<path d="M399.173 156.023C399.173 143.94 391.081 133.751 380.034 130.606C386.677 126.85 391.164 119.71 391.164 111.519C391.164 100.324 382.784 91.0923 371.97 89.7818C373.228 86.6245 373.922 83.1792 373.922 79.5712C373.922 64.3692 361.629 52.0456 346.465 52.0456C332.719 52.0456 321.332 62.1729 319.323 75.3911C316.527 74.0874 313.411 73.3583 310.124 73.3583C298.061 73.3583 288.281 83.1623 288.281 95.2562C288.281 96.1503 288.336 97.0312 288.44 97.8971C275.75 101.186 269.044 112.323 269.044 124.173C269.044 137.505 278.653 145.743 286.672 148.46C277.966 152.904 270.908 162.672 270.296 171.931C269.044 190.871 281.805 204.272 297.901 204C302.934 203.915 307.696 202.833 311.932 200.755C318.714 208.863 328.892 214.021 340.273 214.021C358.939 214.021 374.372 200.151 376.882 182.131C389.508 180.172 399.173 169.229 399.173 156.023Z" fill="#5AA85A"/>
<path d="M359.516 138.93C358.985 138.167 357.936 137.981 357.176 138.514L346.583 145.935L345.762 136.188C345.684 135.26 344.868 134.572 343.946 134.651C343.021 134.729 342.334 135.544 342.412 136.471L343.397 148.167L331.558 156.46L331.52 124.402C331.518 123.472 330.766 122.719 329.839 122.719H329.837C328.908 122.721 328.157 123.476 328.158 124.406L328.231 185.108L302.588 156.763C301.964 156.073 300.901 156.021 300.214 156.647C299.526 157.272 299.474 158.337 300.098 159.027L328.238 190.131L328.355 287.472C328.357 288.403 329.109 289.155 330.036 289.155H330.038C330.966 289.154 331.718 288.399 331.717 287.468L331.563 160.567L359.101 141.276C359.862 140.744 360.048 139.693 359.516 138.93Z" fill="#6D4738"/>
<path d="M396.509 199.349C382.277 199.349 369.986 207.682 364.228 219.749C350.217 215.673 334.474 223.185 328.559 235.881C322.45 233.656 314.833 234.85 309.781 238.67C307.218 233.428 302.528 229.421 296.839 227.779C297.894 211.504 274.489 206.606 268.812 221.613C262.015 219.027 253.449 219.863 247.361 223.603C241.768 211.587 222.407 212.296 217.706 224.686C212.785 207.364 186.721 212.817 189.329 230.837C189.327 230.839 189.326 230.84 189.324 230.841C186.234 220.447 170.928 217.681 164.398 226.369C153.624 213.536 130.554 214.803 121.231 228.647C115.843 222.939 105.235 223.329 100.276 229.379C89.5819 212.101 60.3389 216.535 55.2628 236.222C50.8963 234.415 45.3916 234.279 40.9201 235.881C35.0068 223.186 19.2594 215.672 5.25049 219.748C-0.915745 206.497 -15.7008 197.743 -31 199.568V270.837C-24.3744 271.606 -17.3417 270.36 -11.593 267.554C-1.84336 282.429 22.548 284.626 34.7945 271.565C44.1559 279.68 60.5755 276.131 65.8316 265.101C73.8175 270.53 86.0279 270.293 93.7855 264.588C99.6272 275.807 117.647 276.496 124.324 265.735C132.405 274.016 147.165 276.073 157.304 270.082C166.222 279.761 184.255 277.002 189.926 265.249C195.856 270.258 205.434 271.638 212.651 268.348C219.068 282.466 241.128 281.216 245.918 266.467C255.103 273.217 269.82 271.939 277.689 263.854C284.44 269.936 296.271 270.329 303.421 264.663C308.493 275.999 325.172 279.81 334.684 271.565C346.933 284.628 371.323 282.427 381.072 267.553C388.424 271.194 397.961 272.082 406 269.778V200.626C402.978 199.794 399.795 199.349 396.509 199.349Z" fill="#5AA85A"/>
<path d="M402.03 214.514C387.798 214.514 375.507 222.848 369.749 234.914C355.738 230.838 339.995 238.351 334.08 251.046C327.798 248.755 319.966 250.092 314.881 254.149C310.352 237.819 286.615 232.915 275.987 246.173C271.541 238.802 259.713 237.495 253.769 243.812C244.446 229.967 221.375 228.703 210.602 241.535C208.075 238.475 204.324 236.469 200.102 236.267C201.134 217.737 173.977 215.018 171.207 233.211C164.957 226.831 152.83 228.684 148.729 236.521C142.806 231.939 133.043 233.464 128.776 239.481C122.549 235.169 113.419 234.018 106.188 236.778C100.503 221.766 77.1071 226.675 78.1611 242.945C72.4717 244.587 67.7823 248.593 65.2192 253.836C60.1678 250.016 52.5483 248.822 46.4413 251.047C40.528 238.352 24.7805 230.838 10.7718 234.914C3.99261 219.887 -14.5359 210.953 -31 215.791V284.944C-22.9595 287.248 -13.425 286.36 -6.07218 282.718C3.67729 297.594 28.069 299.791 40.3157 286.73C49.83 294.976 66.5065 291.163 71.5789 279.828C78.7299 285.494 90.5601 285.101 97.3111 279.019C105.18 287.105 119.898 288.382 129.082 281.632C133.875 296.387 155.935 297.626 162.349 283.513C169.567 286.803 179.143 285.423 185.074 280.414C190.745 292.169 208.78 294.924 217.696 285.247C227.837 291.238 242.594 289.181 250.676 280.9C257.141 291.316 274.501 291.108 280.718 280.552C288.757 286.147 301.292 285.147 308.322 278.467C312.774 290.725 330.224 295.375 340.205 286.73C352.454 299.792 376.843 297.592 386.593 282.719C392.341 285.524 399.376 286.771 406 286.002V214.733C404.697 214.588 403.371 214.514 402.03 214.514Z" fill="#60BF60"/>
<path d="M406 273.606H-31V337H406V273.606Z" fill="#E8CFAC"/>
<path d="M69.6417 37.9777C69.1591 38.0011 68.6885 38.0653 68.2312 38.1639C68.2581 37.807 68.2661 37.4453 68.2483 37.0786C68.0172 32.2851 63.9536 28.5869 59.172 28.8186C56.1577 28.9647 53.5787 30.6384 52.1413 33.056C51.3062 28.9197 47.5621 25.9012 43.2282 26.1113C38.4466 26.343 34.7578 30.4168 34.9889 35.2105C35.0311 36.086 35.2024 36.9243 35.4814 37.7093C35.358 37.7101 35.2343 37.7118 35.1099 37.7179C30.3283 37.9496 26.6395 42.0234 26.8706 46.8171C27.1017 51.6106 31.1653 55.3088 35.947 55.0771C37.8138 54.9866 39.5124 54.3086 40.8778 53.2327C42.9914 57.1667 47.2256 59.7505 51.9744 59.5203C57.0547 59.2741 61.2368 55.8787 62.7401 51.3094C64.3562 53.8597 67.253 55.4931 70.4785 55.3369C75.2602 55.1052 78.9489 51.0314 78.7178 46.2378C78.4869 41.4441 74.4233 37.7459 69.6417 37.9777Z" fill="white"/>
<path d="M327.224 31.8307C327.122 31.8271 327.022 31.8271 326.922 31.828C327.139 31.1883 327.269 30.5066 327.293 29.7964C327.425 25.9075 324.388 22.6474 320.509 22.5148C316.993 22.3945 313.992 24.8848 313.363 28.2478C312.169 26.3044 310.06 24.9773 307.614 24.8937C303.735 24.7611 300.483 27.806 300.351 31.6948C300.341 31.9923 300.351 32.2854 300.377 32.5744C300.005 32.4999 299.623 32.4533 299.231 32.4398C295.352 32.307 292.1 35.3521 291.968 39.241C291.836 43.1298 294.873 46.3899 298.752 46.5225C301.369 46.612 303.699 45.2544 304.98 43.1682C306.251 46.8551 309.68 49.5596 313.802 49.7004C317.654 49.8322 321.057 47.6887 322.725 44.4749C323.845 45.3314 325.23 45.8615 326.744 45.9134C330.623 46.046 333.875 43.001 334.008 39.1122C334.14 35.2234 331.103 31.9633 327.224 31.8307Z" fill="white"/>
<path d="M203.259 28.1717C203.202 28.1648 203.144 28.1599 203.087 28.1555C203.242 27.8018 203.349 27.4202 203.397 27.017C203.661 24.8093 202.091 22.8048 199.888 22.5399C197.892 22.2996 196.063 23.571 195.541 25.455C194.956 24.2901 193.819 23.4316 192.431 23.2645C190.229 22.9994 188.23 24.5742 187.965 26.7819C187.945 26.9507 187.937 27.1182 187.938 27.284C187.73 27.2234 187.514 27.1782 187.292 27.1514C185.09 26.8864 183.09 28.4612 182.826 30.6689C182.562 32.8765 184.132 34.881 186.335 35.1459C187.82 35.3247 189.213 34.6655 190.043 33.5403C190.588 35.7015 192.409 37.4087 194.748 37.6903C196.935 37.9535 198.977 36.8993 200.083 35.151C200.679 35.6934 201.442 36.0627 202.301 36.1662C204.503 36.4312 206.503 34.8564 206.767 32.6487C207.031 30.441 205.461 28.4367 203.259 28.1717Z" fill="white"/>
<path d="M110.202 305.645H11.9242C11.228 305.645 10.6636 305.079 10.6636 304.381C10.6636 303.683 11.228 303.117 11.9242 303.117H110.202C110.898 303.117 111.463 303.683 111.463 304.381C111.463 305.079 110.898 305.645 110.202 305.645Z" fill="#F1F3F2"/>
<path d="M95.7953 300.776H47.7137C47.0175 300.776 46.4531 300.211 46.4531 299.513C46.4531 298.815 47.0175 298.249 47.7137 298.249H95.7951C96.4913 298.249 97.0557 298.815 97.0557 299.513C97.0557 300.211 96.4915 300.776 95.7953 300.776Z" fill="#F1F3F2"/>
<path d="M245.283 305.645H178.284C177.588 305.645 177.023 305.079 177.023 304.381C177.023 303.683 177.588 303.117 178.284 303.117H245.283C245.979 303.117 246.544 303.683 246.544 304.381C246.544 305.079 245.979 305.645 245.283 305.645Z" fill="#F1F3F2"/>
<path d="M233.649 300.776H205.296C204.6 300.776 204.036 300.211 204.036 299.513C204.036 298.815 204.6 298.249 205.296 298.249H233.649C234.345 298.249 234.909 298.815 234.909 299.513C234.909 300.211 234.345 300.776 233.649 300.776Z" fill="#F1F3F2"/>
<path d="M336.852 293.79H308.5C307.803 293.79 307.239 293.224 307.239 292.526C307.239 291.828 307.803 291.262 308.5 291.262H336.852C337.549 291.262 338.113 291.828 338.113 292.526C338.113 293.224 337.549 293.79 336.852 293.79Z" fill="#F1F3F2"/>
<path d="M68.862 285.781H40.5096C39.8134 285.781 39.249 285.215 39.249 284.517C39.249 283.819 39.8134 283.254 40.5096 283.254H68.862C69.5582 283.254 70.1226 283.819 70.1226 284.517C70.1226 285.215 69.5582 285.781 68.862 285.781Z" fill="#F1F3F2"/>
<path d="M348.585 289.151H320.232C319.536 289.151 318.972 288.585 318.972 287.887C318.972 287.189 319.536 286.624 320.232 286.624H348.585C349.281 286.624 349.845 287.189 349.845 287.887C349.845 288.585 349.281 289.151 348.585 289.151Z" fill="#F1F3F2"/>
<path d="M140.948 316.147H112.596C111.9 316.147 111.335 315.582 111.335 314.884C111.335 314.185 111.9 313.62 112.596 313.62H140.948C141.645 313.62 142.209 314.185 142.209 314.884C142.209 315.582 141.645 316.147 140.948 316.147Z" fill="#F1F3F2"/>
<path d="M266.999 316.147H238.646C237.95 316.147 237.386 315.582 237.386 314.884C237.386 314.185 237.95 313.62 238.646 313.62H266.999C267.695 313.62 268.259 314.185 268.259 314.884C268.259 315.582 267.695 316.147 266.999 316.147Z" fill="#F1F3F2"/>
<path d="M276.878 230.113C279.211 234.358 277.67 239.696 273.436 242.035L264.987 226.662C269.221 224.323 274.545 225.868 276.878 230.113Z" fill="#FFB12A"/>
<path d="M230.443 198.199C230.443 198.199 231.516 205.018 228.059 208.927C228.059 208.927 224.526 202.491 230.443 198.199Z" fill="#818496"/>
<path d="M230.971 200.185C236.2 200.014 243.23 202.837 242.11 204.749C241.2 205.674 239.595 204.713 237.283 204.327C235.697 204.062 231.618 205.151 231.472 202.935C231.463 201.941 230.971 200.185 230.971 200.185Z" fill="#F69D85"/>
<path d="M143.185 149.015C143.185 149.015 131.573 140.042 115.513 154.959C107.992 161.944 100.879 158.762 91.8709 162.915C80.944 167.954 84.3214 185.054 113.999 184.924C128.548 184.861 135.016 190.494 147.654 179.63C153.604 174.514 154.642 167.177 152.308 159.28C152.308 159.28 148.923 152.368 144.319 151.946C139.716 151.524 143.185 149.015 143.185 149.015Z" fill="#B74F2A"/>
<path d="M150.007 178.269L171.45 180.894L196.639 169.073C198.346 168.272 200.378 169.01 201.177 170.721C201.909 172.289 201.351 174.131 199.939 175.045L176.583 190.183C175.76 190.716 174.822 190.931 173.915 190.857L149.155 188.854C146.239 188.618 144.066 186.058 144.302 183.135C144.537 180.212 147.091 178.034 150.007 178.269Z" fill="#F69D85"/>
<path d="M147.654 176.803C147.654 176.803 158.176 176.225 172.454 178.96C172.454 178.96 185.892 172.647 194.664 169.954C194.664 169.954 197.256 171.812 198.369 175.993C198.369 175.993 181.274 191.92 174.881 192.932C168.487 193.944 152.999 193.525 145.158 192.896L147.654 176.803Z" fill="#3E8EDD"/>
<path d="M196.829 177.491C196.86 177.505 196.896 177.511 196.932 177.503C197.026 177.485 197.087 177.395 197.069 177.301C197.061 177.264 196.311 173.551 192.838 170.453C192.767 170.39 192.659 170.396 192.596 170.467C192.533 170.538 192.539 170.647 192.61 170.71C195.996 173.732 196.724 177.331 196.731 177.367C196.742 177.424 196.78 177.469 196.829 177.491Z" fill="#64656E"/>
<path d="M104.437 271.448H90.3975C88.786 271.448 87.4795 270.139 87.4795 268.523C87.4795 266.907 88.7858 265.598 90.3975 265.598H104.437C106.048 265.598 107.355 266.907 107.355 268.523C107.355 270.139 106.048 271.448 104.437 271.448Z" fill="#FF593A"/>
<path d="M184.18 221.658L222.931 222.603C225.737 222.237 228.308 224.221 228.672 227.035C228.739 227.544 228.728 228.045 228.649 228.527L228.616 228.716L236.219 272.516L230.178 274.78L222.501 271.953L218.566 226.682L224.252 232.795L185.501 231.85L184.18 221.658Z" fill="#F69D85"/>
<path d="M178.524 212.008C178.524 212.008 171.393 225.348 179.297 235.245C185.364 242.842 212.429 237.824 212.429 237.824L222.502 271.953C222.502 271.953 229.776 276.122 236.264 271.953C236.264 271.953 238.87 239.681 236.943 226.481C234.152 207.354 205.724 213.594 199.877 214.375C199.877 214.375 188.344 213.642 178.524 212.008Z" fill="#30313C"/>
<path d="M221.771 279.174C221.849 279.456 221.977 279.716 222.145 279.943C222.562 280.507 223.222 280.871 223.965 280.862L240.955 280.628C241.801 280.617 242.436 280.119 242.749 279.46C242.845 279.261 242.911 279.045 242.942 278.823C243.039 278.156 242.836 277.438 242.245 276.917L236.264 271.953C228.42 273.266 222.501 271.953 222.501 271.953L222.335 272.798C221.967 274.66 221.749 276.549 221.685 278.446C221.676 278.7 221.706 278.944 221.771 279.174Z" fill="#404D7F"/>
<path d="M221.771 279.174C222.043 280.156 222.924 280.874 223.965 280.862L240.956 280.628C242.059 280.613 242.805 279.771 242.943 278.823L221.771 279.174Z" fill="#606A97"/>
<path d="M233.361 210.977C232.639 210.977 231.941 210.587 231.578 209.903C231.056 208.917 231.43 207.693 232.414 207.169L257.189 193.975C258.173 193.452 259.394 193.826 259.916 194.813C260.439 195.799 260.065 197.023 259.081 197.547L234.306 210.74C234.004 210.901 233.681 210.977 233.361 210.977Z" fill="#30313C"/>
<path d="M286.008 263.856L250.802 200.76L244.453 203.825C244.453 203.825 251.26 223.225 250.487 240.858C249.928 253.619 246.625 271.937 234.234 274.911C218.734 278.632 193.668 274.911 194.23 255.862C194.391 250.428 196.938 243.09 203.524 233.253L131.573 237.449C122.549 238.836 113.605 243.464 106.917 249.927C100.228 256.39 95.7949 264.689 95.7949 273.419C95.7949 277.845 99.373 281.432 103.787 281.432L110.382 281.519C111.857 269.362 122.189 259.942 134.715 259.942C147.464 259.942 157.937 269.697 159.117 282.165L239.849 283.235L240.508 283.244H253.568C253.568 283.244 252.569 270.356 268.245 263.856C276.265 260.529 286.008 263.856 286.008 263.856Z" fill="#FF593A"/>
<path d="M117.571 245.13C116.582 245.13 115.618 244.624 115.07 243.712C114.238 242.328 114.687 240.527 116.068 239.693C116.801 239.25 134.48 228.885 175.044 232.01C176.651 232.134 177.854 233.54 177.73 235.151C177.607 236.762 176.206 237.971 174.597 237.843C154.489 236.294 140.453 238.248 132.219 240.16C123.323 242.225 119.111 244.685 119.07 244.71C118.599 244.994 118.082 245.13 117.571 245.13Z" fill="#30313C"/>
<path d="M252.307 151.113C252.307 151.113 256.917 153.149 258.7 159.395C258.7 159.395 253.069 157.563 252.307 151.113Z" fill="#818496"/>
<path d="M260.775 155.769L239.293 173.466C238.666 173.984 237.879 174.319 237.008 174.384L236.644 174.411L203.042 176.908C202.985 176.913 202.904 176.917 202.846 176.92C199.762 177.04 197.165 174.631 197.045 171.539C196.925 168.448 199.328 165.844 202.412 165.724L234.838 164.461L256.898 150.405C258.29 149.516 260.157 149.788 261.231 151.098C262.392 152.514 262.188 154.605 260.775 155.769Z" fill="#F69D85"/>
<path d="M192.684 171.193C192.684 171.193 197.438 178.409 207.006 179.032C216.573 179.655 233.869 179.328 239.717 176.155C245.565 172.981 258.7 159.395 258.7 159.395C258.7 159.395 253.974 156.503 252.307 151.113L234.267 161.957C234.267 161.957 209.229 161.358 202.752 163.335C195.364 165.59 192.684 171.193 192.684 171.193Z" fill="#F1F3F2"/>
<path d="M176.399 221.658L215.149 222.603C217.956 222.237 220.527 224.221 220.891 227.035C220.957 227.544 220.947 228.045 220.868 228.527L220.835 228.716L220.047 272.381L213.993 274.78L206.284 272.061L210.785 226.682L216.471 232.795L177.72 231.85L176.399 221.658Z" fill="#F69D85"/>
<path d="M170.743 212.008C170.743 212.008 163.612 225.348 171.515 235.245C177.583 242.842 207.307 238.593 207.307 238.593C205.296 250.81 206.285 272.061 206.285 272.061C206.285 272.061 213.709 275.83 220.048 272.38C220.048 272.38 231.088 239.681 229.162 226.48C226.37 207.354 197.943 213.594 192.096 214.375C192.096 214.375 180.563 213.642 170.743 212.008Z" fill="#30313C"/>
<path d="M197.049 152.008L194.856 165.306L203.318 166.708L205.511 153.41L197.049 152.008Z" fill="#F69D85"/>
<path d="M197.523 158.907C200.787 161.306 204.17 161.487 204.17 161.487L204.595 158.911L197.523 158.907Z" fill="#D1836B"/>
<path d="M191.151 212.499L191.664 212.584C199.48 213.879 206.863 208.576 208.155 200.741L211.325 181.513C212.617 173.678 207.739 163.78 199.923 162.485L199.41 162.4C191.594 161.105 184.211 166.407 182.919 174.243L179.338 195.966C178.046 203.802 183.335 211.203 191.151 212.499Z" fill="#F69D85"/>
<path d="M203.828 163.342C203.828 163.342 203.676 168.336 195.435 161.522C195.435 161.522 184.622 160.197 179.719 172.959C171.842 193.461 167.838 209.536 170.743 212.008C173.462 214.323 180.83 218.3 191.939 215.628C203.065 212.953 210.268 212.855 210.268 212.855C212.195 201.162 212.05 203.47 212.787 185.446C213.204 175.251 209.081 165.808 203.828 163.342Z" fill="#F1F3F2"/>
<path d="M189.585 148.919C189.596 150.246 190.677 151.312 192 151.301C193.324 151.29 194.387 150.206 194.376 148.88C194.365 147.553 193.284 146.487 191.961 146.498C190.638 146.509 189.574 147.593 189.585 148.919Z" fill="#F69D85"/>
<path d="M191.919 150.457C191.927 150.46 191.935 150.461 191.944 150.462C192.021 150.469 192.089 150.411 192.096 150.334C192.174 149.416 191.576 149.191 191.18 149.041C191.003 148.974 190.836 148.911 190.793 148.817C190.77 148.764 190.778 148.686 190.818 148.583C191.128 147.778 192.129 147.808 192.172 147.809C192.249 147.812 192.314 147.752 192.318 147.675C192.321 147.597 192.26 147.532 192.184 147.528C192.133 147.526 190.939 147.487 190.556 148.482C190.487 148.66 190.481 148.807 190.537 148.932C190.627 149.133 190.848 149.217 191.081 149.305C191.472 149.452 191.877 149.605 191.816 150.31C191.81 150.378 191.855 150.44 191.919 150.457Z" fill="#AF5945"/>
<path d="M209.339 149.06C209.35 150.386 210.431 151.453 211.754 151.442C213.077 151.431 214.141 150.346 214.13 149.02C214.119 147.694 213.038 146.627 211.715 146.638C210.392 146.649 209.328 147.733 209.339 149.06Z" fill="#F69D85"/>
<path d="M211.973 150.6C211.989 150.604 212.005 150.606 212.022 150.604C212.1 150.598 212.157 150.53 212.15 150.452C212.089 149.747 212.493 149.595 212.884 149.447C213.118 149.359 213.338 149.276 213.428 149.074C213.484 148.949 213.478 148.802 213.41 148.624C213.026 147.629 211.832 147.669 211.782 147.671C211.704 147.674 211.644 147.74 211.648 147.817C211.651 147.895 211.716 147.955 211.793 147.952C211.836 147.95 212.838 147.92 213.148 148.726C213.188 148.828 213.196 148.907 213.172 148.959C213.13 149.053 212.963 149.117 212.785 149.184C212.39 149.333 211.791 149.559 211.87 150.476C211.875 150.537 211.918 150.585 211.973 150.6Z" fill="#AF5945"/>
<path d="M201.859 159.402C206.839 159.36 210.843 155.279 210.802 150.286L210.763 145.593C210.722 140.6 206.651 136.586 201.67 136.627C196.69 136.669 192.686 140.75 192.727 145.743L192.766 150.436C192.807 155.429 196.878 159.443 201.859 159.402Z" fill="#F69D85"/>
<path d="M198.958 152.75C198.979 153.291 199.369 154.018 200.21 154.539C201.35 155.246 203.583 155.27 204.581 154.678C205.118 154.36 205.467 153.843 205.574 153.386C205.665 152.993 205.577 152.645 205.274 152.508C204.618 152.212 202.83 152.72 201.62 152.346C200.316 151.945 199.383 151.766 199.071 152.259C198.989 152.388 198.95 152.557 198.958 152.75Z" fill="#D1836B"/>
<path d="M198.958 152.75C201.65 153.899 205.182 153.441 205.574 153.386C205.665 152.993 205.577 152.645 205.274 152.508C204.618 152.212 202.83 152.72 201.62 152.346C200.316 151.945 199.383 151.766 199.071 152.259C198.989 152.388 198.95 152.557 198.958 152.75Z" fill="white"/>
<path d="M200.136 154.659C199.196 154.076 198.839 153.294 198.818 152.756C198.808 152.536 198.854 152.338 198.952 152.184C199.308 151.622 200.252 151.778 201.66 152.212C202.285 152.405 203.085 152.352 203.792 152.306C204.437 152.264 204.995 152.228 205.332 152.379C205.678 152.536 205.823 152.934 205.711 153.418C205.584 153.958 205.178 154.487 204.652 154.799C203.81 155.298 202.25 155.368 201.055 155.041C200.709 154.947 200.394 154.819 200.136 154.659ZM203.81 152.587C203.08 152.635 202.252 152.689 201.578 152.481C200.499 152.149 199.464 151.901 199.189 152.335C199.122 152.44 199.091 152.581 199.098 152.744V152.745C199.115 153.189 199.436 153.894 200.283 154.42C201.342 155.076 203.515 155.147 204.51 154.557C205.063 154.229 205.351 153.721 205.438 153.354C205.468 153.223 205.542 152.783 205.217 152.636C205.187 152.623 205.154 152.611 205.118 152.601C204.824 152.521 204.33 152.553 203.81 152.587Z" fill="#AF5945"/>
<path d="M196.831 149.246C196.759 149.723 197.123 150.174 197.645 150.254C198.166 150.334 198.648 150.011 198.72 149.534C198.793 149.057 198.429 148.606 197.907 148.526C197.385 148.447 196.904 148.769 196.831 149.246Z" fill="#D1836B"/>
<path d="M206.683 149.984C206.61 150.461 206.974 150.912 207.496 150.991C208.017 151.071 208.499 150.749 208.571 150.272C208.644 149.794 208.28 149.343 207.758 149.264C207.236 149.184 206.755 149.506 206.683 149.984Z" fill="#D1836B"/>
<path d="M195.727 136.115C195.727 136.115 194.531 133.112 196.075 131.768C197.651 130.396 200.047 131.89 201.097 133.194C201.097 133.194 201.476 131.798 202.345 130.511C203.86 128.268 208.2 129.461 205.725 133.977C205.725 133.977 206.957 131.798 210.11 132.445C213.262 133.093 211.897 136.734 209.232 137.505C209.232 137.505 212.512 136.635 213.642 139.352C214.178 140.642 213.6 141.603 212.43 142.126C212.398 143.241 212.144 145.358 210.774 146.84C210.774 146.84 210.35 144.094 209.098 142.526C208.443 142.46 207.76 142.323 207.073 142.107C203.187 140.884 201.113 138.872 201.113 138.872C201.113 138.872 200.488 140.895 198.472 141.683C197.464 142.076 196.375 142.187 195.341 142.035L195.389 142.082C195.389 142.082 193.71 143.721 192.734 146.674C192.734 146.674 190.067 143.454 192.523 140.789C190.854 139.348 191.681 135.223 195.727 136.115Z" fill="#5E3628"/>
<path d="M202.712 150.804C202.733 150.81 202.755 150.811 202.778 150.806C202.907 150.778 204.035 150.517 203.989 149.914C203.951 149.405 203.195 147.122 203.163 147.025C203.138 146.952 203.059 146.912 202.985 146.936C202.912 146.961 202.872 147.041 202.896 147.114C203.112 147.766 203.68 149.542 203.71 149.936C203.731 150.219 203.052 150.459 202.719 150.531C202.643 150.548 202.595 150.623 202.612 150.699C202.623 150.751 202.663 150.791 202.712 150.804Z" fill="#AF5945"/>
<path d="M206.167 147.039C206.131 147.712 205.825 148.243 205.482 148.225C205.14 148.207 204.891 147.646 204.927 146.973C204.962 146.299 205.269 145.768 205.611 145.787C205.954 145.805 206.202 146.366 206.167 147.039Z" fill="#30313C"/>
<path d="M201.118 146.932C201.082 147.606 200.776 148.137 200.434 148.119C200.091 148.1 199.842 147.54 199.878 146.866C199.913 146.193 200.22 145.662 200.562 145.68C200.905 145.698 201.154 146.259 201.118 146.932Z" fill="#30313C"/>
<path d="M204.487 144.147C204.521 144.156 204.558 144.158 204.595 144.15C206.06 143.854 207.444 144.756 207.458 144.765C207.566 144.836 207.712 144.807 207.784 144.698C207.856 144.589 207.826 144.443 207.717 144.371C207.654 144.33 206.156 143.353 204.502 143.687C204.374 143.713 204.292 143.838 204.318 143.965C204.336 144.056 204.404 144.124 204.487 144.147Z" fill="#AF5945"/>
<path d="M198.014 144.526C198.073 144.542 198.138 144.536 198.194 144.503C199.903 143.511 200.948 144.144 200.959 144.151C201.069 144.22 201.214 144.187 201.283 144.076C201.352 143.966 201.319 143.82 201.209 143.751C201.157 143.718 199.911 142.961 197.958 144.094C197.846 144.16 197.807 144.304 197.873 144.417C197.905 144.473 197.957 144.51 198.014 144.526Z" fill="#AF5945"/>
<path d="M194.106 148.306C193.738 146.982 192.727 145.743 192.727 145.743C192.727 145.743 191.453 154.964 196.588 158.484C200.403 161.098 207.759 160.587 210.196 154.839C211.875 150.88 210.622 146.09 210.622 146.09C210.622 146.09 210.257 147.511 209.981 148.56C209.708 149.597 209.682 151.004 208.926 152.438L207.883 151.665C207.111 151.223 206.22 151 205.336 151.096C205.329 151.097 205.323 151.098 205.316 151.099C204.258 151.218 202.417 151.275 200.472 150.639C200.112 150.521 199.739 150.458 199.365 150.445C198.711 150.423 198.064 150.584 197.468 150.855L195.963 151.728C195.963 151.728 194.957 151.373 194.106 148.306ZM198.832 151.331C199.116 151.191 199.444 151.177 199.747 151.267C202.407 152.054 204.41 151.983 205.376 151.869C205.998 151.796 206.616 152.165 206.76 152.775C206.802 152.952 206.806 153.146 206.75 153.354C206.43 154.531 205.397 155.795 202.25 155.671C199.286 155.554 197.838 153.252 197.972 152.335C198.048 151.819 198.474 151.506 198.832 151.331Z" fill="#5E3628"/>
<path d="M205.613 279.071C205.693 279.353 205.821 279.612 205.99 279.839C206.407 280.402 207.069 280.764 207.812 280.754L224.801 280.482C225.647 280.469 226.281 279.969 226.592 279.31C226.688 279.11 226.753 278.894 226.784 278.672C226.88 278.005 226.675 277.288 226.083 276.768L220.048 272.381C212.207 273.711 206.285 272.061 206.285 272.061L206.163 272.694C205.8 274.557 205.586 276.446 205.526 278.343C205.517 278.596 205.548 278.841 205.613 279.071Z" fill="#404D7F"/>
<path d="M205.613 279.071C205.887 280.052 206.769 280.769 207.812 280.754L224.801 280.482C225.904 280.464 226.649 279.621 226.784 278.672L205.613 279.071Z" fill="#606A97"/>
<path d="M232.805 200.524L203.07 195.031L196.76 171.242C197.644 164.049 186.869 162.946 186.281 170.166L195.337 195.61C195.124 197.637 198.616 202.256 200.671 202.605L234.526 208.549C239.351 209.302 237.614 201.495 232.805 200.524Z" fill="#F69D85"/>
<path d="M237.592 209.214C238.014 209.552 238.636 209.54 239.039 209.163C239.259 208.957 239.369 208.682 239.37 208.407C239.767 208.586 240.252 208.524 240.585 208.211C240.82 207.991 240.926 207.693 240.912 207.399C241.316 207.603 241.824 207.55 242.17 207.226C242.603 206.821 242.609 206.2 242.341 205.67C242.035 205.067 241.084 203.898 240.26 203.454C239.738 203.172 238.858 203.059 238.425 203.464C238.19 203.685 237.638 203.537 237.653 203.831C237.248 203.627 237.186 204.125 236.84 204.449C236.62 204.655 236.51 204.93 236.509 205.205C236.112 205.026 235.627 205.089 235.294 205.401C235.121 205.562 235.019 205.766 234.981 205.979C234.558 205.641 233.936 205.653 233.534 206.03C233.101 206.436 233.09 207.106 233.508 207.526L235.737 209.765C236.156 210.186 236.846 210.198 237.279 209.792C237.451 209.631 237.554 209.427 237.592 209.214Z" fill="#F69D85"/>
<path d="M195.635 160.528L192.873 161.592L200.923 167.954L202.379 165.301L204.595 167.497L205.609 162.778L204.102 161.902C204.102 161.902 202.562 166.839 195.635 160.528Z" fill="#FF593A"/>
<path d="M269.259 143.715C266.496 144.534 263.78 145.54 261.215 146.868C259.126 147.847 260.988 150.443 262.68 148.853C264.922 147.427 267.328 146.258 269.788 145.255C270.745 144.904 270.224 143.401 269.259 143.715Z" fill="#F69D85"/>
<path d="M255.764 151.082L259.275 156.738C263.967 156.666 267.543 152.681 267.843 151.544L264.335 145.425C258.996 146.902 255.764 151.082 255.764 151.082Z" fill="#F69D85"/>
<path d="M262.857 149.712C263.087 149.816 263.359 149.826 263.608 149.715C264.918 149.132 266.275 148.812 266.289 148.809C267.45 148.556 267.028 146.731 265.873 147.019C265.98 147.067 260.545 147.983 262.857 149.712Z" fill="#F69D85"/>
<path d="M263.533 151.531C263.763 151.636 264.034 151.645 264.283 151.534C265.603 150.947 266.935 150.604 266.948 150.601C268.104 150.323 267.644 148.508 266.495 148.82C266.435 148.835 264.999 149.206 263.54 149.855C262.822 150.145 262.829 151.24 263.533 151.531Z" fill="#F69D85"/>
<path d="M264.19 153.25C264.415 153.366 264.686 153.388 264.94 153.289C266.307 152.758 267.355 152.468 267.366 152.466C268.516 152.168 268.025 150.362 266.883 150.693C266.836 150.706 265.738 151.008 264.278 151.576C263.547 151.831 263.502 152.925 264.19 153.25Z" fill="#F69D85"/>
<path d="M262.807 147.906C264.286 147.248 265.779 146.896 265.841 146.881C265.917 146.864 265.993 146.911 266.011 146.987C266.028 147.063 265.981 147.139 265.905 147.157C265.844 147.171 264.376 147.517 262.921 148.165C262.732 148.249 262.587 148.402 262.512 148.596C262.438 148.79 262.443 149.001 262.527 149.191C262.615 149.389 262.753 149.543 262.905 149.612C263.029 149.668 263.344 149.788 263.581 149.682L263.582 149.682C265.059 149.035 266.451 148.652 266.464 148.649C266.539 148.629 266.616 148.675 266.635 148.751C266.654 148.827 266.609 148.903 266.533 148.923C266.52 148.926 265.081 149.327 263.622 149.973C263.448 150.05 263.299 150.18 263.215 150.351C263.113 150.562 263.109 150.799 263.202 151.01C263.314 151.263 263.553 151.442 263.841 151.47C263.981 151.483 264.12 151.452 264.248 151.396C265.365 150.902 266.712 150.552 267.112 150.453C267.172 150.438 267.234 150.466 267.263 150.521C267.305 150.599 267.263 150.695 267.178 150.717C266.706 150.838 265.405 151.193 264.361 151.654C264.339 151.664 264.316 151.672 264.293 151.681C264.289 151.683 264.287 151.686 264.283 151.687C264.096 151.76 263.953 151.907 263.879 152.102C263.807 152.293 263.809 152.516 263.885 152.714C263.954 152.892 264.085 153.038 264.255 153.125C264.453 153.226 264.683 153.238 264.891 153.157L265.912 152.781C265.985 152.754 266.066 152.792 266.093 152.865C266.12 152.938 266.082 153.02 266.009 153.046L264.991 153.421C264.725 153.524 264.43 153.515 264.172 153.398C264.156 153.391 264.141 153.384 264.126 153.376C263.895 153.258 263.716 153.059 263.623 152.816C263.52 152.55 263.517 152.261 263.616 152.001C263.652 151.906 263.701 151.82 263.76 151.742C263.392 151.687 263.09 151.452 262.945 151.125C262.821 150.846 262.822 150.534 262.95 150.253C262.996 150.153 263.059 150.062 263.133 149.982C262.997 149.954 262.875 149.909 262.789 149.87C262.571 149.771 262.387 149.571 262.269 149.306C262.155 149.047 262.148 148.759 262.249 148.495C262.35 148.23 262.549 148.021 262.807 147.906Z" fill="#AF5945"/>
<path d="M259.703 151.483C259.946 150.705 260.228 149.613 260.647 149.142C261.587 148.084 264.037 150.228 264.412 148.534C264.531 147.708 263.634 147.442 263.046 147.161C261.803 146.614 260.005 146.254 258.898 147.267C257.978 148.066 257.367 149.057 256.771 150.083C255.149 152.486 259.023 154.279 259.703 151.483Z" fill="#F69D85"/>
<path d="M259.707 151.414C259.729 151.424 259.753 151.428 259.778 151.426C259.787 151.425 260.746 151.355 262.002 152.12C262.069 152.16 262.155 152.139 262.195 152.072C262.236 152.005 262.215 151.918 262.148 151.878C261.145 151.268 260.326 151.158 259.96 151.143C260.189 150.444 260.515 149.564 260.883 149.173C261.247 148.786 261.915 148.971 262.561 149.15C263.159 149.315 263.725 149.472 264.131 149.227C264.339 149.101 264.48 148.878 264.55 148.565C264.671 147.73 263.905 147.39 263.346 147.142C263.263 147.106 263.182 147.07 263.107 147.034C262.614 146.817 262.155 146.632 261.502 146.548C261.425 146.538 261.354 146.593 261.344 146.67C261.334 146.748 261.389 146.819 261.466 146.828C262.082 146.907 262.521 147.084 262.989 147.291C263.063 147.326 263.146 147.363 263.232 147.401C263.893 147.694 264.355 147.945 264.273 148.514C264.222 148.742 264.127 148.899 263.985 148.984C263.683 149.167 263.174 149.026 262.635 148.877C261.943 148.686 261.158 148.469 260.678 148.979C260.237 149.448 259.869 150.495 259.631 151.242C259.616 151.287 259.625 151.336 259.655 151.373C259.669 151.391 259.687 151.404 259.707 151.414Z" fill="#AF5945"/>
<path d="M188.772 162.717C194.156 161.353 198.466 165.934 200.498 173.701C202.53 181.469 204.923 192.375 204.923 192.375L230.443 198.199C230.443 198.199 227.364 201.929 228.059 208.927C228.059 208.927 202.847 208.129 195.338 203.164C187.828 198.199 175.686 166.033 188.772 162.717Z" fill="#F1F3F2"/>
<path d="M147.655 166.151H139.078V179.63H147.655V166.151Z" fill="#F69D85"/>
<path d="M141.633 174.121C141.633 174.121 144.598 175.316 147.654 174.735V170.348L141.633 174.121Z" fill="#D1836B"/>
<path d="M145.464 173.907C150.271 172.6 153.112 167.634 151.808 162.815L150.584 158.285C149.28 153.466 144.327 150.618 139.52 151.924C134.712 153.231 131.872 158.197 133.175 163.016L134.4 167.546C135.703 172.365 140.657 175.213 145.464 173.907Z" fill="#F69D85"/>
<path d="M141.845 228.512C149.767 228.512 161.543 226.341 158.46 215.439C156.877 209.84 154.898 202.269 156.507 192.243C157.765 184.402 151.679 176.28 143.627 176.027H143.106C135.375 176.151 131.579 183.88 132.395 191.78C133.447 201.961 131.083 209.042 128.971 214.15C123.179 228.152 141.845 228.512 141.845 228.512Z" fill="#F69D85"/>
<path d="M140.979 162.501C141.155 163.152 141.029 163.752 140.698 163.842C140.367 163.932 139.956 163.477 139.78 162.826C139.605 162.175 139.731 161.575 140.062 161.485C140.393 161.395 140.804 161.85 140.979 162.501Z" fill="#30313C"/>
<path d="M146.236 161.075C146.411 161.726 146.285 162.327 145.954 162.416C145.623 162.506 145.213 162.051 145.037 161.4C144.861 160.749 144.987 160.149 145.318 160.059C145.649 159.969 146.06 160.424 146.236 161.075Z" fill="#30313C"/>
<path d="M137.853 165.847C137.903 166.327 138.37 166.671 138.894 166.615C139.419 166.56 139.803 166.126 139.753 165.646C139.702 165.166 139.236 164.822 138.711 164.877C138.186 164.933 137.802 165.367 137.853 165.847Z" fill="#D1836B"/>
<path d="M147.747 163.57C147.797 164.05 148.264 164.394 148.788 164.338C149.313 164.282 149.697 163.848 149.647 163.368C149.596 162.888 149.13 162.544 148.605 162.6C148.08 162.656 147.696 163.09 147.747 163.57Z" fill="#D1836B"/>
<path d="M147.655 176.803C147.655 176.803 151.935 177.76 156.121 184.146C157.269 185.897 159.888 190.572 159.888 193.307C159.888 196.28 156.863 197.967 156.863 203.351C156.863 208.689 160.758 212.113 158.46 215.439C157.109 217.394 137.151 220.06 128.788 214.658C124.136 211.652 132.797 205.441 130.346 190.828C129.28 184.473 135.615 178.28 139.072 176.803C139.072 176.803 143.558 180.514 146.509 180.363C149.538 180.209 147.655 176.803 147.655 176.803Z" fill="#3E8EDD"/>
<path d="M131.129 166.463C131.476 167.743 132.791 168.5 134.068 168.153C135.346 167.806 136.1 166.487 135.754 165.206C135.408 163.926 134.092 163.17 132.815 163.517C131.538 163.864 130.783 165.183 131.129 166.463Z" fill="#F69D85"/>
<path d="M142.515 149.331C142.515 149.331 146.258 147.062 149.903 150.244C153.091 153.027 152.881 156.897 152.111 160.627C152.111 160.627 144.868 154.45 142.515 149.331Z" fill="#B74F2A"/>
<path d="M149.104 161.991C149.45 163.271 150.766 164.028 152.043 163.681C153.32 163.334 154.074 162.015 153.728 160.734C153.382 159.454 152.066 158.698 150.789 159.045C149.512 159.392 148.757 160.711 149.104 161.991Z" fill="#F69D85"/>
<path d="M151.756 162.716C151.702 162.71 151.654 162.671 151.638 162.615C151.388 161.729 151.934 161.394 152.294 161.173C152.456 161.074 152.608 160.98 152.632 160.879C152.646 160.824 152.623 160.748 152.565 160.655C152.109 159.922 151.131 160.141 151.089 160.15C151.014 160.168 150.938 160.121 150.921 160.045C150.903 159.97 150.95 159.894 151.025 159.876C151.074 159.865 152.239 159.601 152.803 160.506C152.903 160.667 152.937 160.81 152.905 160.944C152.855 161.159 152.654 161.282 152.441 161.413C152.085 161.631 151.716 161.857 151.908 162.539C151.929 162.613 151.886 162.691 151.811 162.712C151.793 162.717 151.774 162.719 151.756 162.716Z" fill="#AF5945"/>
<path d="M133.748 167.176C133.686 167.168 133.634 167.118 133.627 167.053C133.54 166.351 133.113 166.285 132.7 166.222C132.454 166.185 132.221 166.149 132.091 165.97C132.01 165.859 131.986 165.714 132.017 165.527C132.186 164.474 133.362 164.264 133.412 164.256C133.489 164.243 133.561 164.295 133.574 164.371C133.587 164.448 133.535 164.52 133.459 164.533C133.417 164.541 132.431 164.719 132.294 165.571C132.276 165.68 132.284 165.758 132.318 165.805C132.379 165.889 132.556 165.916 132.743 165.944C133.161 166.008 133.793 166.105 133.905 167.019C133.915 167.096 133.86 167.166 133.783 167.176C133.771 167.177 133.76 167.177 133.748 167.176Z" fill="#AF5945"/>
<path d="M146.239 151.233C146.239 151.233 145.464 156.447 140.68 157.616C135.062 158.988 134.308 166.7 134.308 166.7C134.308 166.7 129.862 161.984 129.955 157.889C130.167 148.518 138.857 144.31 146.239 151.233Z" fill="#B74F2A"/>
<path d="M143.685 158.752C143.646 158.747 143.607 158.732 143.573 158.707C143.469 158.629 143.448 158.481 143.525 158.377C143.908 157.863 144.361 157.581 144.872 157.537C145.735 157.464 146.427 158.11 146.456 158.138C146.55 158.228 146.554 158.377 146.465 158.472C146.376 158.566 146.227 158.57 146.132 158.481C146.127 158.476 145.56 157.951 144.909 158.008C144.539 158.041 144.2 158.26 143.903 158.659C143.85 158.729 143.766 158.762 143.685 158.752Z" fill="#AF5945"/>
<path d="M138.561 160.366C138.534 160.363 138.508 160.355 138.482 160.342C138.367 160.282 138.321 160.14 138.38 160.024C138.72 159.361 139.161 158.959 139.691 158.828C140.438 158.644 141.069 159.083 141.095 159.101C141.202 159.177 141.227 159.324 141.152 159.43C141.077 159.536 140.931 159.562 140.824 159.487C140.817 159.482 140.334 159.153 139.799 159.287C139.409 159.385 139.073 159.706 138.799 160.239C138.753 160.33 138.656 160.378 138.561 160.366Z" fill="#AF5945"/>
<path d="M144.092 165.639C144.052 165.634 144.014 165.611 143.991 165.575C143.949 165.509 143.968 165.422 144.033 165.38C144.32 165.197 144.874 164.735 144.756 164.477C144.591 164.118 143.444 162.65 143.015 162.114C142.967 162.054 142.976 161.965 143.037 161.917C143.098 161.868 143.186 161.878 143.234 161.938C143.298 162.018 144.798 163.895 145.011 164.359C145.263 164.908 144.295 165.547 144.184 165.617C144.156 165.636 144.123 165.642 144.092 165.639Z" fill="#AF5945"/>
<path d="M141.239 167.96C141.394 168.479 141.953 169.086 142.896 169.38C144.177 169.78 146.345 169.244 147.164 168.421C147.605 167.979 147.814 167.391 147.805 166.922C147.795 166.518 147.623 166.203 147.295 166.146C146.586 166.024 144.982 166.963 143.716 166.904C142.353 166.841 141.405 166.901 141.226 167.457C141.179 167.602 141.183 167.776 141.239 167.96Z" fill="#D1836B"/>
<path d="M141.239 167.96C144.132 168.4 147.438 167.073 147.805 166.922C147.795 166.518 147.623 166.203 147.296 166.146C146.587 166.024 144.982 166.963 143.716 166.904C142.353 166.841 141.406 166.901 141.226 167.457C141.179 167.602 141.183 167.776 141.239 167.96Z" fill="white"/>
<path d="M143.38 169.624C143.194 169.601 143.017 169.565 142.855 169.514C141.8 169.185 141.26 168.517 141.105 168.001C141.041 167.79 141.037 167.587 141.093 167.414C141.297 166.78 142.251 166.695 143.723 166.764C144.375 166.794 145.137 166.543 145.81 166.322C146.425 166.12 146.955 165.946 147.32 166.008C147.694 166.073 147.933 166.422 147.945 166.918C147.957 167.474 147.696 168.087 147.264 168.521C146.484 169.304 144.684 169.785 143.38 169.624ZM147.246 166.281C146.947 166.244 146.437 166.412 145.898 166.589C145.202 166.818 144.414 167.077 143.71 167.045C142.583 166.992 141.518 167.011 141.36 167.501C141.322 167.619 141.326 167.764 141.374 167.919L141.374 167.92C141.501 168.346 141.987 168.949 142.938 169.246C144.128 169.616 146.248 169.142 147.065 168.322C147.519 167.867 147.673 167.302 147.665 166.925C147.662 166.791 147.624 166.346 147.272 166.285C147.263 166.284 147.255 166.282 147.246 166.281Z" fill="#AF5945"/>
<path d="M136.326 227.321L172.388 221.65C173.975 221.182 175.689 221.51 176.992 222.531C178.295 223.552 179.027 225.14 178.957 226.797L182.217 272.58L171.973 272.146L164.915 234.062L141.771 233.421L136.326 227.321Z" fill="#F69D85"/>
<path d="M190.453 273.174L180.563 268.523L172.111 271.543C172.111 271.543 185.596 275.874 190.453 273.174Z" fill="#F69D85"/>
<path d="M176.561 280.585C181.206 279.857 190.063 278.468 193.15 277.984C194.007 277.85 194.501 277.167 194.551 276.451L194.552 276.45C194.591 276.261 194.568 276.073 194.494 275.889C193.916 274.434 190.285 273.173 190.285 273.173L173.644 270.935L171.689 270.611C171.612 273.118 171.659 276.217 172.859 278.808C173.512 280.217 175.299 280.783 176.561 280.585Z" fill="#404D7F"/>
<path d="M176.561 280.585C181.206 279.857 190.063 278.468 193.15 277.984C194.007 277.85 194.501 277.167 194.551 276.451L194.552 276.45C194.591 276.261 194.568 276.073 194.494 275.889L172.859 278.808C173.511 280.217 175.299 280.783 176.561 280.585Z" fill="#606A97"/>
<path d="M128.789 214.658C128.789 214.658 121.259 225.781 129.479 235.687C136.011 243.559 162.796 239.095 162.796 239.095L169.527 267.764C169.527 267.764 179.194 268.523 186.282 265.253C186.282 265.253 187.215 239.696 185.494 226.467C183.523 211.323 154.757 214.658 148.91 215.439C148.91 215.439 138.609 216.291 128.789 214.658Z" fill="#FFB12A"/>
<path d="M134.739 180.08C137.202 178.523 140.458 179.262 142.011 181.732L155.271 202.817L174.997 196.247C176.933 195.603 179.037 196.633 179.713 198.571C180.396 200.528 179.367 202.67 177.414 203.355L154.862 211.262C153.329 211.797 151.557 211.328 150.509 209.97L150.371 209.791L133.381 187.787C133.281 187.656 133.18 187.513 133.091 187.37C131.537 184.901 132.275 181.637 134.739 180.08Z" fill="#F69D85"/>
<path d="M176.178 199.575L176.192 199.501L176.21 199.413L176.249 199.231C176.277 199.108 176.307 198.985 176.338 198.861C176.399 198.613 176.468 198.364 176.539 198.117C176.684 197.622 176.85 197.133 177.034 196.653C177.214 196.171 177.421 195.704 177.645 195.249C177.865 194.791 178.121 194.362 178.385 193.942L178.412 193.898C178.765 193.336 178.596 192.593 178.035 192.238C177.5 191.901 176.799 192.042 176.429 192.543C176.071 193.03 175.729 193.529 175.434 194.045C175.136 194.559 174.86 195.084 174.615 195.618C174.368 196.153 174.141 196.694 173.938 197.244C173.837 197.52 173.739 197.797 173.648 198.079C173.603 198.219 173.558 198.361 173.515 198.505L173.452 198.723L173.42 198.836L173.387 198.962C173.187 199.728 173.643 200.512 174.407 200.712C175.171 200.913 175.952 200.455 176.153 199.69C176.161 199.658 176.168 199.626 176.175 199.594L176.178 199.575Z" fill="#F69D85"/>
<path d="M172.208 201.141C172.208 201.141 173.33 199.051 176.074 197.463C178.818 195.876 180.255 195.875 181.506 196.372C182.756 196.869 181.78 201.13 178.302 203.005C176.446 204.005 174.267 203.397 172.208 201.141Z" fill="#F69D85"/>
<path d="M180.601 200.996C182.18 199.173 184.12 197.633 186.28 196.558C187.093 196.167 186.567 194.871 185.717 195.154C184.753 195.434 183.797 195.803 182.89 196.237C181.302 197.019 179.767 197.946 178.424 199.111C176.86 200.581 179.377 202.764 180.601 200.996Z" fill="#F69D85"/>
<path d="M180.078 199.213C181.109 197.905 182.336 196.742 183.66 195.733C183.749 195.662 183.937 195.525 184.032 195.46C184.635 194.821 186.399 194.566 185.896 193.416C185.434 192.372 182.941 194.016 182.191 194.32C180.637 195.182 179.143 196.182 177.841 197.402C176.346 198.92 178.911 201 180.078 199.213Z" fill="#F69D85"/>
<path d="M179.302 198.588C180.445 196.382 182.089 194.376 184.159 192.987C184.911 192.485 184.203 191.275 183.402 191.681C182.952 191.884 182.402 192.166 181.976 192.415C179.932 193.666 178.123 195.331 176.733 197.287C175.573 199.093 178.54 200.598 179.302 198.588Z" fill="#F69D85"/>
<path d="M177.012 199.335C177.893 196.521 179.614 193.88 182.063 192.201C182.812 191.675 182.051 190.473 181.26 190.923C180.73 191.191 180.09 191.566 179.599 191.903C177.367 193.504 175.593 195.726 174.397 198.197C173.187 200.246 176.445 201.651 177.012 199.335Z" fill="#F69D85"/>
<path d="M180.835 193.133C180.792 193.073 180.71 193.056 180.646 193.095C180.63 193.105 178.967 194.148 177.757 195.653C177.709 195.714 177.718 195.803 177.779 195.851C177.839 195.9 177.927 195.89 177.976 195.83C179.154 194.362 180.778 193.344 180.794 193.334C180.86 193.293 180.88 193.206 180.839 193.14C180.838 193.138 180.836 193.136 180.835 193.133Z" fill="#AF5945"/>
<path d="M183.018 194.01C182.978 193.952 182.9 193.933 182.837 193.967C182.821 193.976 181.183 194.87 179.452 196.377C179.393 196.428 179.387 196.515 179.438 196.575C179.489 196.634 179.577 196.64 179.636 196.589C181.344 195.103 182.955 194.224 182.971 194.215C183.039 194.178 183.064 194.093 183.027 194.025C183.025 194.019 183.022 194.014 183.018 194.01Z" fill="#AF5945"/>
<path d="M183.24 196.195C183.2 196.139 183.125 196.119 183.062 196.151C182.991 196.187 181.291 197.051 180.193 197.977C180.134 198.027 180.126 198.115 180.176 198.175C180.226 198.234 180.314 198.242 180.374 198.192C181.446 197.288 183.171 196.411 183.189 196.402C183.258 196.367 183.286 196.282 183.251 196.213C183.247 196.207 183.244 196.201 183.24 196.195Z" fill="#AF5945"/>
<path d="M140.005 178.557C144.497 180.096 151.552 192.814 155.638 200.771C155.638 200.771 167.015 197.911 172.437 197.1C172.437 197.1 175.408 200.394 175.805 203.919C175.805 203.919 158.953 215.829 151.512 213.122C144.07 210.415 133.883 196.24 130.717 189.842C127.95 184.253 133.081 176.186 140.005 178.557Z" fill="#3E8EDD"/>
<path d="M290.207 298.458C297.944 290.701 297.944 278.124 290.207 270.367C282.469 262.61 269.924 262.61 262.186 270.367C254.449 278.124 254.449 290.701 262.186 298.458C269.924 306.215 282.469 306.215 290.207 298.458Z" fill="#30313C"/>
<path d="M252.335 286.061C252.288 286.061 252.242 286.06 252.195 286.057C250.65 285.981 249.459 284.664 249.535 283.114C249.776 278.209 251.357 273.463 254.108 269.39C256.937 265.201 260.888 261.913 265.533 259.883C274.569 255.933 284.995 257.283 292.742 263.405C293.957 264.365 294.166 266.131 293.208 267.349C292.251 268.567 290.489 268.776 289.274 267.816C283.151 262.978 274.912 261.91 267.772 265.031C260.372 268.266 255.528 275.301 255.131 283.39C255.057 284.893 253.819 286.061 252.335 286.061Z" fill="#9B453A"/>
<path d="M283.099 296.513C289.768 292.683 292.078 284.159 288.258 277.474C284.438 270.788 275.936 268.473 269.267 272.302C262.598 276.132 260.288 284.656 264.108 291.341C267.928 298.027 276.43 300.342 283.099 296.513Z" fill="#F1F3F2"/>
<path d="M279.024 289.326C281.732 287.776 282.674 284.319 281.128 281.604C279.582 278.889 276.134 277.944 273.425 279.494C270.717 281.044 269.775 284.501 271.321 287.216C272.867 289.931 276.316 290.876 279.024 289.326Z" fill="#30313C"/>
<path d="M110.202 287.443C108.591 287.443 107.284 286.133 107.284 284.517C107.284 283.396 107.352 282.268 107.486 281.166C109.156 267.399 120.862 257.017 134.716 257.017C141.585 257.017 148.158 259.575 153.224 264.22C157.97 268.571 161.019 274.401 161.889 280.738L252.319 280.327C252.324 280.327 252.329 280.327 252.333 280.327C253.938 280.327 255.243 281.628 255.25 283.239C255.258 284.855 253.957 286.171 252.346 286.178L159.242 286.6C159.238 286.6 159.233 286.6 159.229 286.6C158.458 286.6 157.717 286.294 157.17 285.748C156.62 285.199 156.311 284.453 156.311 283.675C156.311 283.31 156.306 283.271 156.28 283.057C156.262 282.907 156.239 282.723 156.213 282.444C155.156 271.282 145.914 262.867 134.716 262.867C123.809 262.867 114.593 271.037 113.279 281.872C113.173 282.741 113.12 283.631 113.12 284.517C113.12 286.133 111.814 287.443 110.202 287.443Z" fill="#9B453A"/>
<path d="M148.723 298.562C156.46 290.805 156.46 278.228 148.723 270.471C140.985 262.714 128.44 262.714 120.702 270.471C112.965 278.228 112.965 290.805 120.703 298.562C128.44 306.319 140.985 306.319 148.723 298.562Z" fill="#30313C"/>
<path d="M135.832 298.423C143.494 297.814 149.213 291.094 148.606 283.413C147.999 275.732 141.295 269.999 133.634 270.608C125.972 271.216 120.253 277.937 120.86 285.618C121.467 293.299 128.171 299.032 135.832 298.423Z" fill="#F1F3F2"/>
<path d="M221.35 268.453C221.333 268.453 221.315 268.45 221.297 268.444C221.209 268.414 221.161 268.319 221.191 268.23C221.281 267.961 230.172 241.154 229.274 228.936C228.808 222.591 226.347 219.157 224.364 217.393C222.225 215.489 220.181 215.073 220.161 215.07C220.07 215.052 220.01 214.963 220.028 214.872C220.046 214.78 220.134 214.72 220.225 214.739C220.312 214.756 222.38 215.177 224.587 217.141C226.616 218.946 229.135 222.453 229.609 228.911C230.512 241.196 221.6 268.067 221.51 268.337C221.486 268.408 221.421 268.453 221.35 268.453Z" fill="#64656E"/>
<path d="M170.663 264.591C169.466 264.591 168.746 264.546 168.72 264.544C168.628 264.538 168.558 264.458 168.564 264.365C168.57 264.272 168.65 264.203 168.743 264.208C168.838 264.215 178.389 264.807 186.321 261.553C186.407 261.518 186.505 261.559 186.54 261.645C186.575 261.731 186.534 261.83 186.448 261.865C180.604 264.262 173.896 264.591 170.663 264.591Z" fill="#997243"/>
<path d="M174.82 264.429C174.734 264.429 174.661 264.363 174.653 264.276C174.626 263.981 171.9 234.733 167.669 230.335C165.905 228.5 161.061 228.619 155.452 228.757C151.232 228.86 146.448 228.978 141.927 228.319C138.893 227.878 136.694 226.612 135.392 224.556C132.96 220.716 134.538 215.375 134.555 215.321C134.582 215.232 134.676 215.182 134.764 215.209C134.853 215.236 134.903 215.331 134.876 215.42C134.861 215.472 133.327 220.669 135.677 224.377C136.924 226.345 139.043 227.559 141.975 227.986C146.469 228.64 151.237 228.523 155.444 228.42C161.366 228.275 166.045 228.16 167.911 230.101C172.223 234.584 174.877 263.036 174.988 264.245C174.997 264.338 174.929 264.42 174.836 264.428C174.831 264.429 174.825 264.429 174.82 264.429Z" fill="#997243"/>
<path d="M154.676 213.51C153.646 213.51 152.459 213.414 151.136 213.155C144.995 211.952 135.004 197.209 134.582 196.582C134.53 196.505 134.55 196.4 134.627 196.348C134.704 196.296 134.808 196.316 134.86 196.393C134.963 196.546 145.195 211.648 151.2 212.824C156.025 213.769 159.06 212.465 159.09 212.452C159.175 212.414 159.274 212.453 159.311 212.538C159.349 212.623 159.31 212.723 159.225 212.76C159.133 212.801 157.483 213.51 154.676 213.51Z" fill="#305777"/>
<path d="M155.638 200.94C155.571 200.94 155.508 200.899 155.482 200.834C153.407 195.6 146.327 185.123 146.256 185.018C146.204 184.941 146.224 184.836 146.301 184.784C146.378 184.731 146.482 184.751 146.534 184.829C146.605 184.933 153.586 195.263 155.74 200.573L157.171 200.227C157.261 200.204 157.352 200.261 157.374 200.351C157.395 200.442 157.34 200.533 157.25 200.554L155.678 200.935C155.664 200.938 155.651 200.94 155.638 200.94Z" fill="#305777"/>
<path d="M159.888 193.69C159.888 193.69 159.887 193.69 159.887 193.69C159.794 193.689 159.72 193.613 159.72 193.52C159.762 188.903 154.131 181.753 154.074 181.681C154.016 181.608 154.028 181.502 154.101 181.445C154.174 181.387 154.28 181.399 154.337 181.471C154.572 181.768 160.099 188.787 160.057 193.523C160.056 193.616 159.981 193.69 159.888 193.69Z" fill="#305777"/>
<path d="M146.564 181.756C143.09 181.756 137.764 177.93 137.506 177.743C137.431 177.688 137.414 177.583 137.468 177.507C137.522 177.432 137.627 177.415 137.702 177.469C137.774 177.521 144.893 182.638 147.87 181.152C148.696 180.74 149.196 180.186 149.354 179.505C149.653 178.222 148.652 176.882 148.642 176.869C148.585 176.795 148.6 176.689 148.673 176.633C148.747 176.576 148.853 176.591 148.909 176.664C148.954 176.724 150.016 178.141 149.682 179.58C149.5 180.364 148.941 180.994 148.02 181.454C147.597 181.665 147.102 181.756 146.564 181.756Z" fill="#305777"/>
<path d="M211.179 207.544C211.176 207.544 211.173 207.544 211.17 207.543C211.066 207.538 200.71 206.988 195.244 203.304C191.723 200.931 188.597 195.677 185.951 187.687C183.985 181.751 183.036 176.439 183.027 176.386C183.011 176.294 183.072 176.207 183.163 176.191C183.255 176.174 183.342 176.236 183.358 176.327C183.395 176.538 187.174 197.46 195.431 203.024C200.82 206.656 211.084 207.202 211.186 207.207C211.279 207.211 211.351 207.291 211.346 207.383C211.342 207.474 211.267 207.544 211.179 207.544Z" fill="#818496"/>
<path d="M212.428 194.256C212.416 194.256 212.403 194.255 212.39 194.252L204.886 192.54C204.821 192.525 204.772 192.474 204.758 192.409C203.604 186.702 200.17 173.153 200.136 173.016C200.113 172.926 200.167 172.835 200.257 172.812C200.346 172.788 200.439 172.843 200.461 172.934C200.496 173.069 203.889 186.46 205.066 192.235L212.465 193.924C212.556 193.945 212.612 194.035 212.592 194.125C212.574 194.203 212.505 194.256 212.428 194.256Z" fill="#818496"/>
<path d="M212.496 179.461C212.409 179.461 212.335 179.393 212.329 179.304C212.015 174.701 209.205 169.301 209.177 169.247C209.133 169.165 209.165 169.063 209.247 169.02C209.329 168.977 209.431 169.008 209.474 169.09C209.503 169.145 212.345 174.607 212.664 179.281C212.67 179.374 212.6 179.454 212.508 179.46C212.504 179.46 212.5 179.461 212.496 179.461Z" fill="#818496"/>
<path d="M256.377 161.915C256.352 161.915 256.326 161.909 256.302 161.896C249.991 158.699 249.227 152.947 249.219 152.889C249.208 152.797 249.274 152.713 249.366 152.702C249.458 152.689 249.542 152.756 249.553 152.849C249.56 152.905 250.309 158.483 256.453 161.596C256.536 161.638 256.569 161.739 256.527 161.822C256.498 161.881 256.439 161.915 256.377 161.915Z" fill="#818496"/>
<path d="M225.375 208.973C225.294 208.973 225.223 208.914 225.209 208.832C224.068 201.886 227.159 197.434 227.19 197.39C227.244 197.315 227.349 197.297 227.425 197.351C227.5 197.405 227.518 197.51 227.464 197.586C227.434 197.629 224.423 201.975 225.541 208.777C225.556 208.869 225.494 208.956 225.403 208.971C225.393 208.972 225.384 208.973 225.375 208.973Z" fill="#818496"/>
<path d="M95.7948 271.687C95.7036 271.687 95.6288 271.613 95.6268 271.522C95.5654 268.623 96.7759 265.648 96.7882 265.618C96.8235 265.532 96.9218 265.492 97.0077 265.527C97.0936 265.562 97.1342 265.661 97.0989 265.747C97.087 265.776 95.9032 268.688 95.9631 271.515C95.9651 271.608 95.8913 271.685 95.7985 271.687C95.7974 271.687 95.796 271.687 95.7948 271.687Z" fill="#9B453A"/>
<path d="M156.921 249.294H143.918C143.825 249.294 143.75 249.219 143.75 249.125C143.75 249.032 143.825 248.957 143.918 248.957H156.921C157.014 248.957 157.089 249.032 157.089 249.125C157.089 249.219 157.014 249.294 156.921 249.294Z" fill="#9B453A"/>
<path d="M156.921 250.979H143.918C143.825 250.979 143.75 250.904 143.75 250.81C143.75 250.717 143.825 250.642 143.918 250.642H156.921C157.014 250.642 157.089 250.717 157.089 250.81C157.089 250.904 157.014 250.979 156.921 250.979Z" fill="#9B453A"/>
<path d="M156.921 252.664H143.918C143.825 252.664 143.75 252.589 143.75 252.495C143.75 252.402 143.825 252.327 143.918 252.327H156.921C157.014 252.327 157.089 252.402 157.089 252.495C157.089 252.589 157.014 252.664 156.921 252.664Z" fill="#9B453A"/>
<path d="M268.717 243.998H255.714C255.621 243.998 255.546 243.923 255.546 243.829C255.546 243.736 255.621 243.661 255.714 243.661H268.717C268.81 243.661 268.885 243.736 268.885 243.829C268.885 243.923 268.81 243.998 268.717 243.998Z" fill="#9B453A"/>
<path d="M268.717 245.683H255.714C255.621 245.683 255.546 245.608 255.546 245.514C255.546 245.421 255.621 245.346 255.714 245.346H268.717C268.81 245.346 268.885 245.421 268.885 245.514C268.885 245.608 268.81 245.683 268.717 245.683Z" fill="#9B453A"/>
<path d="M268.717 247.368H255.714C255.621 247.368 255.546 247.293 255.546 247.199C255.546 247.106 255.621 247.031 255.714 247.031H268.717C268.81 247.031 268.885 247.106 268.885 247.199C268.885 247.293 268.81 247.368 268.717 247.368Z" fill="#9B453A"/>
<path d="M251.604 202.138L245.47 205.186C244.238 205.798 242.745 205.294 242.134 204.059C241.524 202.824 242.027 201.327 243.259 200.715L249.393 197.667C250.625 197.055 252.118 197.559 252.729 198.794C253.339 200.029 252.836 201.526 251.604 202.138Z" fill="#9B453A"/>
<path d="M237.592 209.383C237.516 209.383 237.448 209.332 237.429 209.255C237.425 209.242 237.077 207.925 235.517 207.196C235.432 207.157 235.396 207.057 235.435 206.972C235.474 206.888 235.574 206.851 235.658 206.891C237.371 207.69 237.74 209.114 237.755 209.174C237.777 209.264 237.722 209.356 237.632 209.378C237.619 209.381 237.605 209.383 237.592 209.383Z" fill="#AF5945"/>
<path d="M239.37 208.576C239.295 208.576 239.227 208.526 239.207 208.45C238.753 206.729 237.3 205.968 237.285 205.961C237.203 205.918 237.17 205.817 237.212 205.734C237.254 205.651 237.355 205.618 237.437 205.66C237.503 205.693 239.038 206.492 239.532 208.364C239.556 208.454 239.503 208.546 239.413 208.57C239.398 208.574 239.384 208.576 239.37 208.576Z" fill="#AF5945"/>
<path d="M240.911 207.568C240.832 207.568 240.762 207.512 240.747 207.431C240.424 205.761 238.778 204.731 238.761 204.72C238.682 204.672 238.658 204.568 238.706 204.489C238.754 204.409 238.858 204.385 238.937 204.433C239.01 204.478 240.726 205.549 241.076 207.367C241.094 207.459 241.035 207.547 240.944 207.565C240.933 207.567 240.922 207.568 240.911 207.568Z" fill="#AF5945"/>
<path d="M139.108 288.053C141.06 285.616 140.672 282.053 138.241 280.096C135.809 278.139 132.256 278.528 130.304 280.966C128.351 283.403 128.739 286.966 131.171 288.923C133.602 290.88 137.155 290.491 139.108 288.053Z" fill="#30313C"/>
</g>
<defs>
<clipPath id="clip0_508_13620">
<rect width="437" height="337" fill="white" transform="translate(-31)"/>
</clipPath>
</defs>
</svg>
