<svg width="313" height="247" viewBox="0 0 313 247" fill="none" xmlns="http://www.w3.org/2000/svg">
<path d="M137.613 215.219C146.556 198.522 143.365 179.394 130.486 172.497C117.607 165.599 99.9175 173.544 90.975 190.241C82.0325 206.938 85.2235 226.066 98.1023 232.963C110.981 239.861 128.671 231.916 137.613 215.219Z" fill="#353659"/>
<path d="M129.241 211.88C134.973 201.178 132.928 188.918 124.673 184.497C116.418 180.076 105.08 185.168 99.348 195.871C93.6163 206.573 95.6616 218.833 103.916 223.254C112.171 227.675 123.51 222.583 129.241 211.88Z" fill="#43466B"/>
<path d="M110.421 225.495C106.072 225.495 102.173 223.688 99.4436 220.407C95.9932 216.258 94.6981 210.191 95.8902 203.761C98.0868 191.905 108.091 182.261 118.193 182.261C122.542 182.261 126.44 184.069 129.169 187.35C132.621 191.5 133.916 197.567 132.724 203.998C130.527 215.851 120.522 225.495 110.421 225.495ZM118.193 183.56C108.688 183.56 99.2568 192.729 97.1693 203.998C96.0474 210.046 97.2409 215.723 100.444 219.576C102.922 222.554 106.465 224.196 110.421 224.196C119.925 224.196 129.357 215.028 131.444 203.761C132.566 197.71 131.371 192.033 128.169 188.18C125.691 185.203 122.148 183.56 118.193 183.56Z" fill="#69709E"/>
<path d="M153.327 185.883L153.452 186.134C155.146 189.529 153.755 193.693 150.36 195.387L114.978 213.042C111.583 214.736 107.419 213.344 105.725 209.949L105.6 209.698C103.906 206.303 105.297 202.139 108.692 200.445L144.074 182.79C147.469 181.096 151.633 182.488 153.327 185.883Z" fill="#5F638B"/>
<path d="M183.035 139.292C184.899 137.302 142.315 140.844 141.096 136.779C138.552 128.3 136.922 114.043 151.379 114.043C172.645 114.043 203.964 113.945 203.33 130.634C202.721 146.647 185.347 161.092 180.759 185.887C180.759 185.887 179.797 195.723 175.322 193.298C172.269 191.644 169.708 186.993 169.708 186.993C175.23 165.203 172.242 150.819 183.035 139.292Z" fill="#F6AE92"/>
<path d="M169.063 191.092C168.96 192.603 168.85 194.075 168.796 195.445C168.765 196.261 169.311 196.992 170.105 197.186C172.114 197.679 174.23 197.743 176.311 197.799C183.067 197.983 189.825 198.166 196.583 198.35C197.279 198.369 198.057 198.361 198.471 197.683C198.735 197.253 198.724 196.713 198.513 196.254C198.083 195.331 197.151 194.91 196.263 194.535C191.952 192.713 187.267 190.866 184.117 187.575C184.017 187.472 183.92 187.365 183.822 187.258C183.16 186.524 182.573 185.72 182.08 184.829C181.699 184.141 181.383 183.404 181.216 182.638C181.158 182.375 181.117 182.108 181.098 181.838C181.089 181.733 181.083 181.629 181.083 181.523C181.083 181.523 178.122 182.538 175.504 182.522C172.372 182.503 169.662 180.508 169.662 180.508C170.187 182.868 169.361 185.537 169.23 188.286C169.187 189.227 169.126 190.166 169.063 191.092Z" fill="#25283F"/>
<path d="M91.8895 144.317C91.8895 144.317 84.6904 138.964 89.0405 133.005C93.3907 127.046 102.995 133.066 126.452 135.416C161.123 138.891 181.4 135.056 199.64 135.985C204.321 136.223 200.261 160.536 189.788 159.906C173.988 158.955 91.8895 144.317 91.8895 144.317Z" fill="#43466B"/>
<path d="M254.137 162.448L253.67 163.472C251.65 164.28 249.63 165.088 247.61 165.895C247.173 166.07 246.669 166.328 246.617 166.794C246.585 167.086 246.749 167.36 246.905 167.609C249.156 171.196 251.103 174.973 252.717 178.887C254.915 177.404 257.113 175.921 259.31 174.439C257.303 170.571 255.572 166.561 254.137 162.448Z" fill="#39364B"/>
<path d="M254.018 79.2479C254.591 81.3465 255.176 83.4423 255.735 85.5443C256.004 86.5576 256.257 87.5939 256.176 88.6631C256.101 89.647 255.754 90.6188 255.262 91.5677C254.23 93.5582 252.705 95.4488 251.341 97.3428C249.874 99.3796 248.407 101.416 246.94 103.453C246.519 104.037 247.579 104.532 248.004 103.942C249.58 101.754 251.155 99.5669 252.731 97.3792C254.089 95.4945 255.609 93.6065 256.596 91.6158C257.597 89.5965 257.649 87.6892 257.159 85.7175C256.598 83.4612 255.94 81.2248 255.327 78.9805C255.162 78.3746 253.852 78.6384 254.018 79.2479Z" fill="#39364B"/>
<path d="M257.057 73.7339C258.085 74.8395 258.756 76.2376 258.344 77.6673C257.931 79.0969 256.174 80.4792 254.276 80.4976C253.903 80.5081 253.557 80.4039 253.329 80.2035C252.001 79.0359 251.409 77.386 251.754 75.7459C251.92 74.9559 252.32 74.1391 253.108 73.5468C253.897 72.9545 255.132 72.6511 256.025 72.9824C256.463 73.1448 256.779 73.4355 257.057 73.7339Z" fill="#39364B"/>
<path d="M290.147 226.952C302.167 216.335 304.994 199.897 296.461 190.237C287.929 180.577 271.268 181.352 259.248 191.968C247.228 202.585 244.401 219.023 252.934 228.683C261.466 238.343 278.127 237.568 290.147 226.952Z" fill="#353659"/>
<path d="M195.422 210.435L165.6 212.525C164.24 212.62 162.909 212.338 161.734 211.74C160.648 211.191 159.696 210.374 158.98 209.338L152.593 200.066C151.463 198.429 150.089 196.998 148.534 195.819C146.184 194.026 143.415 192.805 140.448 192.291L74.0005 180.771C71.1515 180.277 69.6011 177.15 70.9433 174.587C75.0738 166.704 84.4385 152.12 99.3386 146.784C117.053 140.438 181.925 153.233 195.422 157.84C197.399 158.517 191.163 165.32 190.523 167.311C188.181 174.624 180.552 192.456 191.597 193.683L192.271 196.64L194.999 208.587L195.422 210.435Z" fill="#FFBF61"/>
<path d="M284.599 221.582C292.303 214.777 294.116 204.241 288.647 198.049C283.178 191.858 272.499 192.354 264.794 199.159C257.09 205.964 255.278 216.5 260.747 222.692C266.216 228.883 276.895 228.387 284.599 221.582Z" fill="#43466B"/>
<path d="M271.497 227.276C266.896 227.276 262.933 225.5 260.338 222.275C257.67 218.958 256.77 214.536 257.803 209.825C259.879 200.359 269.299 192.658 278.803 192.658C283.404 192.658 287.368 194.434 289.963 197.659C292.63 200.977 293.531 205.396 292.497 210.104C290.422 219.573 281.001 227.276 271.497 227.276ZM278.803 193.957C269.876 193.957 261.026 201.202 259.073 210.104C258.127 214.422 258.934 218.456 261.351 221.458C263.695 224.371 267.297 225.977 271.497 225.977C280.423 225.977 289.274 218.732 291.227 209.828C292.173 205.51 291.364 201.478 288.948 198.476C286.605 195.561 283.002 193.957 278.803 193.957Z" fill="#69709E"/>
<path d="M281.18 216.288C285.651 212.339 286.778 206.309 283.697 202.82C280.615 199.332 274.493 199.705 270.021 203.655C265.55 207.604 264.423 213.634 267.504 217.123C270.585 220.611 276.708 220.238 281.18 216.288Z" fill="#69709E"/>
<path d="M262.51 160.788C260.928 162.177 258.89 162.919 257.106 164.034C256.626 164.334 255.959 164.752 255.165 165.239C255.08 165.29 254.995 165.342 254.909 165.395C253.32 166.364 251.28 167.572 249.23 168.65C248.799 168.876 248.369 169.098 247.942 169.309C242.981 171.773 238.518 173.027 240.981 167.788C241.896 165.842 242.556 163.804 243.086 161.72C244.775 155.072 242.203 130.539 239.544 116.145C239.191 114.237 238.836 112.505 238.49 111.017C238.377 110.525 238.262 110.062 238.151 109.626C238.064 109.29 237.978 108.971 237.893 108.673C237.693 107.965 237.498 107.358 237.31 106.869C237.189 106.586 237.111 106.312 237.076 106.048C236.976 105.333 237.167 104.688 237.554 104.121C237.846 103.688 238.254 103.299 238.727 102.96C238.997 102.766 239.29 102.587 239.596 102.426C240.526 101.936 241.582 101.595 242.531 101.426C242.832 101.371 243.12 101.335 243.39 101.315C243.618 101.299 243.831 101.295 244.027 101.305C244.186 101.309 244.335 101.325 244.47 101.347C244.867 101.416 245.152 101.555 245.264 101.771C245.605 102.418 246.169 105.417 246.823 109.558C246.831 109.602 246.837 109.649 246.845 109.695C246.873 109.877 246.901 110.06 246.93 110.245C247.083 111.227 247.24 112.267 247.401 113.35C247.468 113.797 247.534 114.253 247.603 114.717C247.744 115.694 247.889 116.702 248.032 117.726C249.421 127.56 250.861 139.022 251.374 143.158C251.499 144.176 251.57 144.751 251.57 144.751C251.63 144.914 251.695 145.073 251.764 145.228C254.771 152.294 262.766 152.669 264.123 155.181C265.123 157.029 264.093 159.399 262.51 160.788Z" fill="#FFBF61"/>
<path d="M120.869 29.6292C120.869 29.6292 115.036 44.9311 96.5389 34.8131C78.0422 24.6951 69.5977 49.0102 69.5977 49.0102C69.5977 49.0102 71.1315 57.1217 74.7732 60.3286C74.7732 60.3286 79.4617 58.1526 82.0119 58.4963C82.0119 58.4963 77.2427 59.9109 76.0636 62.7852C76.0636 62.7852 79.6311 70.638 88.089 73.2048C115.94 81.6576 126.145 58.1307 126.145 58.1307L137.33 45.2151L120.869 29.6292Z" fill="#262F36"/>
<path d="M71.5531 54.7814C75.1871 47.1613 82.9988 41.8805 91.4691 41.5681C96.1194 41.3966 100.671 42.5484 105.211 43.3789C109.005 44.0726 113.004 44.7078 116.663 43.1164C120.374 41.5022 123.123 38.2376 124.548 34.5019C124.635 34.2744 124.293 34.1046 124.206 34.3344C122.714 38.2431 119.734 41.6686 115.717 43.0787C111.303 44.6282 106.325 43.2121 101.907 42.3542C97.7678 41.5504 93.52 40.8011 89.2979 41.3661C85.7373 41.8424 82.3108 43.1929 79.3367 45.1998C75.8381 47.5603 73.027 50.805 71.2104 54.614C71.1047 54.8353 71.4472 55.0033 71.5531 54.7814Z" fill="#45515A"/>
<path d="M104.576 57.6971C104.576 57.6971 101.54 86.9116 104.917 93.6733C108.294 100.435 118.888 97.7495 120.597 94.0881C122.305 90.4267 115.423 59.1549 115.423 59.1549L104.576 57.6971Z" fill="#8A80EE"/>
<path d="M133.446 53.0823C133.446 53.0823 165.35 62.361 168.952 60.1928C172.554 58.0247 185.224 65.907 179.551 73.2266C173.878 80.5462 154.507 77.4662 154.507 77.4662L133.446 53.0823Z" fill="#FFBF61"/>
<path d="M150.575 78.0034C149.852 86.1791 145.563 101.581 145.563 101.581C145.563 101.581 114.06 110.79 113.442 100.887C113.442 100.887 114.379 79.1418 109.066 65.9843C104.696 55.1611 122.972 52.1112 130.237 52.8771C145.563 54.4927 151.413 68.5112 150.575 78.0034Z" fill="#FFBF61"/>
<path d="M139.418 54.7525C139.104 54.8623 149.089 72.7932 149.184 81.6576L151.674 76.7964C151.674 76.7964 147.049 61.4045 143.351 55.804C143.351 55.804 140.592 54.3419 139.418 54.7525Z" fill="#8A80EE"/>
<path d="M125.99 50.9242C129.037 42.8396 129.8 38.4555 129.803 38.438L132.589 40.2122L133.162 40.5776L138.145 43.7524C138.145 43.7524 138.09 44.1187 138.011 44.7106C137.896 45.5735 137.729 46.9157 137.609 48.3024C137.453 50.0852 137.374 51.9414 137.575 52.9354C137.87 54.3831 140.425 58.3291 133.847 57.6103C126.982 56.86 125.214 52.9795 125.99 50.9242Z" fill="#FFBEA4"/>
<path d="M132.759 40.7655C132.759 40.7655 132.966 40.9973 133.3 41.3672C134.394 42.5778 136.868 45.2682 138.036 46.1513C137.891 47.1887 137.676 48.8023 137.508 50.4676C136.187 49.5109 132.109 46.1063 132.736 40.9491C132.743 40.8884 132.75 40.8275 132.759 40.7655Z" fill="#FC9171"/>
<path d="M125.69 39.1299C116.647 19.947 135.296 21.063 140.759 25.6471C146.222 30.2312 151.752 45.1772 142.462 47.1665C133.171 49.1559 125.69 39.1299 125.69 39.1299Z" fill="#FFBEA4"/>
<path d="M137.633 47.3591C134.573 46.7062 131.768 45.3183 129.391 43.283C129.266 43.1761 129.438 42.9883 129.563 43.095C131.909 45.1034 134.67 46.4665 137.69 47.1108C137.85 47.1448 137.794 47.3935 137.633 47.3591Z" fill="#FC9171"/>
<path d="M141.883 35.5555C142.412 36.3762 142.139 36.4586 141.425 36.9631C141.291 37.0577 141.171 36.833 141.303 36.7394C141.494 36.6041 141.883 36.2373 141.874 35.9984C141.866 35.7776 141.422 35.3568 141.273 35.1651C140.982 34.7927 140.667 34.4395 140.376 34.0675C139.943 33.5143 139.461 32.9056 139.329 32.199C139.14 31.1887 139.877 30.4101 140.854 30.3338C141.017 30.3211 141.008 30.5759 140.846 30.5884C138.861 30.7436 139.665 32.6776 140.36 33.6224C140.844 34.2799 141.439 34.868 141.883 35.5555Z" fill="#C56146"/>
<path d="M134.311 32.7107C134.064 32.3382 134.3 31.5631 134.943 31.1377C135.585 30.7122 136.391 30.7973 136.638 31.1699C136.884 31.5424 136.417 31.9676 135.774 32.3931C135.131 32.8186 134.557 33.0833 134.311 32.7107Z" fill="#C56146"/>
<path d="M139.277 29.7892C139.094 29.3819 139.451 28.6549 140.153 28.3379C140.856 28.0209 141.637 28.234 141.821 28.6414C142.005 29.0487 141.475 29.3933 140.773 29.7103C140.07 30.0273 139.461 30.1964 139.277 29.7892Z" fill="#C56146"/>
<path d="M136.808 35.0779C136.573 34.6122 136.648 34.1018 136.973 33.938C137.299 33.7741 137.753 34.0189 137.987 34.4846C138.221 34.9503 138.147 35.4606 137.822 35.6243C137.496 35.7882 137.042 35.5434 136.808 35.0779Z" fill="#262F36"/>
<path d="M141.661 32.5862C141.427 32.1205 141.501 31.6102 141.827 31.4464C142.153 31.2826 142.606 31.5273 142.841 31.993C143.075 32.4587 143.001 32.9691 142.675 33.1327C142.349 33.2966 141.895 33.0518 141.661 32.5862Z" fill="#262F36"/>
<path d="M143.993 38.4021C143.928 38.7979 143.807 39.2911 143.597 39.6247C143.302 40.0909 142.825 40.5009 142.052 40.6455C141.194 40.8063 140.529 40.6141 140.03 40.3022C139.732 40.1178 139.439 39.7869 139.213 39.4878C139.127 39.3734 139.118 39.2349 139.165 39.121C139.22 38.9884 139.346 38.8883 139.51 38.8873C139.55 38.8873 139.591 38.8875 139.635 38.8864C139.653 38.8861 139.672 38.8861 139.692 38.8861C139.754 38.8863 139.818 38.8854 139.885 38.882C139.91 38.8813 139.937 38.8808 139.963 38.8803C140.176 38.8722 140.412 38.8574 140.664 38.8307C140.745 38.8224 140.827 38.8128 140.911 38.8021C140.953 38.7981 140.994 38.7926 141.037 38.7846C141.08 38.7794 141.123 38.7727 141.167 38.7663C141.21 38.7597 141.255 38.7532 141.298 38.7452C141.342 38.7387 141.385 38.7308 141.43 38.7216C141.493 38.7107 141.556 38.6986 141.62 38.6864C141.67 38.6752 141.721 38.6655 141.773 38.6531C141.889 38.6271 142.007 38.6002 142.125 38.5676C142.167 38.5567 142.211 38.5445 142.254 38.5322C142.411 38.4882 142.569 38.4389 142.728 38.384C142.796 38.3599 142.865 38.3358 142.934 38.3089C142.99 38.2887 143.046 38.2658 143.103 38.2428C143.126 38.2335 143.149 38.2239 143.171 38.2144C143.223 38.1937 143.273 38.1713 143.324 38.1475C143.391 38.1189 143.459 38.0863 143.527 38.0538C143.656 37.9906 143.793 38.0208 143.887 38.1026C143.967 38.1728 144.014 38.2802 143.993 38.4021Z" fill="#262F36"/>
<path d="M143.887 38.1029C143.296 38.6889 142.346 39.4184 141.297 39.425C140.463 39.432 139.717 39.2819 139.165 39.121C139.22 38.9884 139.346 38.8883 139.51 38.8873C139.551 38.8873 139.591 38.8874 139.635 38.8864C139.653 38.8861 139.673 38.8861 139.692 38.8861C139.754 38.8863 139.819 38.8854 139.885 38.882C139.91 38.8813 139.937 38.8808 139.963 38.8803C140.176 38.8722 140.412 38.8574 140.664 38.8307C140.745 38.8224 140.827 38.8142 140.912 38.8021C140.953 38.7981 140.994 38.7926 141.037 38.7846C141.08 38.7794 141.124 38.7743 141.167 38.7663C141.21 38.7596 141.255 38.7532 141.298 38.7452C141.342 38.7387 141.386 38.7307 141.43 38.7216C141.493 38.7107 141.557 38.6986 141.62 38.6864C141.671 38.6752 141.721 38.6655 141.773 38.6531C141.889 38.6271 142.008 38.6002 142.126 38.5676C142.168 38.5567 142.211 38.5445 142.254 38.5322C142.411 38.4882 142.569 38.4389 142.729 38.384C142.796 38.3599 142.866 38.3358 142.934 38.3089C142.99 38.2873 143.046 38.2657 143.103 38.2428C143.127 38.2334 143.149 38.2239 143.171 38.2144C143.223 38.1937 143.274 38.1712 143.325 38.1475C143.392 38.1189 143.459 38.0863 143.527 38.0538C143.656 37.9909 143.794 38.0212 143.887 38.1029Z" fill="white"/>
<path d="M143.597 39.6248C143.302 40.0909 142.825 40.5009 142.052 40.6455C141.194 40.8063 140.529 40.6141 140.03 40.3022C140.377 40.0646 141.055 39.6926 141.902 39.69C141.902 39.69 142.994 39.0013 143.597 39.6248Z" fill="#E55A4D"/>
<path d="M111.507 67.6948C100.849 60.3609 90.4341 51.5166 83.5939 43.128C80.449 39.2711 70.7695 19.5121 70.7695 19.5121L79.9634 11.5403C79.9634 11.5403 90.7002 28.1147 97.7214 35.049C103.607 40.8616 116.059 50.2783 125.99 50.9241L129.348 72.5107C129.348 72.5107 115.229 70.2554 111.507 67.6948Z" fill="#FFBF61"/>
<path d="M79.9613 11.5403C79.7732 11.048 78.9807 11.2211 78.2575 11.5485C77.3011 11.9686 76.0501 12.7985 74.7479 13.9328C73.6389 14.8955 72.6754 15.9161 71.9692 16.8305C71.5516 17.375 71.1699 17.9495 70.9299 18.4867C70.918 18.5142 70.6197 19.1499 70.7676 19.5114C70.8878 19.8204 71.2562 19.8853 71.7918 19.7468C72.1591 19.6487 72.6103 19.4539 73.1135 19.1742C73.1185 19.1725 73.1261 19.1687 73.1314 19.1648C73.9672 18.6951 74.9559 17.9894 75.9743 17.1014C76.5183 16.6268 77.0287 16.1406 77.4908 15.6618C78.1458 14.9808 78.7076 14.3107 79.128 13.7059C79.4746 13.2124 80.1828 12.1063 79.9613 11.5403Z" fill="#FF964A"/>
<path d="M79.1285 13.7061C78.4143 12.8813 78.3876 12.3046 78.2583 11.5487C78.1704 11.039 78.0373 10.4475 77.6123 9.64616C76.8165 8.1388 73.8001 2.9549 72.9082 1.42527C72.7414 1.1394 72.3327 1.1236 72.1471 1.39757C71.5703 2.24906 71.6496 3.85194 72.0506 4.96449C72.1799 5.3785 72.1697 6.19158 71.9545 6.17136C69.5386 3.73025 65.0034 -0.591967 64.33 0.067642C63.7192 0.667425 66.5211 4.01289 68.5445 6.1875L68.425 6.26773C65.6838 3.85976 62.1598 -0.0584692 61.4469 0.734727C60.6722 1.59965 63.3375 5.53639 65.9458 7.93315L65.8211 8.01745C65.8065 8.00368 65.7895 7.98957 65.775 7.97581C63.2649 5.72216 60.1695 3.10072 59.3419 3.881C58.9332 4.2663 61.1549 7.11922 63.3574 9.67335C64.0267 10.5838 63.7255 10.6815 63.3677 10.6086C63.1927 10.5444 63.0191 10.4852 62.85 10.4288C62.8477 10.4285 62.8477 10.4285 62.8477 10.4285C61.1489 9.86914 60.4344 9.99321 60.2791 10.5524C60.1756 10.9249 62.9247 11.9059 65.7835 14.5794C67.1969 15.9011 69.1331 16.7088 71.2256 17.9191C71.8072 18.2515 72.4302 18.658 73.1138 19.1744C73.1142 19.1744 73.1145 19.1744 73.1148 19.1744C73.9543 18.7046 74.9494 17.9954 75.9746 17.1016C76.5186 16.627 77.029 16.1408 77.4911 15.662C78.1463 14.981 78.7078 14.3108 79.1285 13.7061Z" fill="#FFBEA4"/>
<path d="M121.751 50.1857C121.751 50.1857 124.736 56.685 123.254 66.742C121.398 79.3385 115.578 85.3632 111.507 86.1793C107.436 86.9953 110.867 90.8017 110.867 90.8017C110.867 90.8017 125.82 86.8615 127.679 69.0099C128.977 56.5508 125.989 50.9243 125.989 50.9243L121.751 50.1857Z" fill="#8A80EE"/>
<path d="M140.031 25.1086C140.031 25.1086 130.116 21.317 128.255 36.8154C128.255 36.8154 129.957 40.8315 128.598 43.2095C127.239 45.5878 120.955 40.4707 120.955 40.4707C120.955 40.4707 113.799 33.1014 116.849 25.9528C119.9 18.8042 135.353 15.5335 140.031 25.1086Z" fill="#262F36"/>
<path d="M127.677 40.5554C125.94 39.6981 125.084 37.8848 125.765 36.5051C126.446 35.1254 128.406 34.7019 130.143 35.559C131.88 36.4161 132.735 38.2295 132.054 39.6092C131.373 40.989 129.413 41.4127 127.677 40.5554Z" fill="#FFBEA4"/>
<path d="M127.098 40.4423C126.189 39.9336 125.736 39.0237 125.458 38.0566C125.412 37.8987 125.66 37.8389 125.705 37.9961C125.965 38.8993 126.376 39.7523 127.233 40.2263C128.31 40.8218 129.712 40.9976 130.903 40.7596C131.064 40.7275 131.124 40.975 130.963 41.0071C129.711 41.2574 128.229 41.0747 127.098 40.4423Z" fill="#C56146"/>
<path d="M129.402 37.4611C129.27 37.3665 129.403 37.1494 129.537 37.245C129.768 37.4095 130.123 37.6731 130.157 37.9817C130.175 38.1332 130.089 38.2547 130.031 38.3859C129.889 38.7061 129.896 39.003 130.077 39.312C130.161 39.4537 129.937 39.5753 129.854 39.4342C129.713 39.1951 129.643 38.9364 129.678 38.6577C129.695 38.521 129.769 38.4088 129.796 38.2798C129.88 37.868 129.706 37.6778 129.402 37.4611Z" fill="#C56146"/>
<path d="M130.453 35.9494C130.217 35.7385 129.944 35.5918 129.64 35.5043C129.483 35.4589 129.557 35.2152 129.715 35.2607C130.061 35.3605 130.369 35.5345 130.638 35.7745C130.761 35.8839 130.574 36.058 130.453 35.9494Z" fill="#C56146"/>
<path d="M230.84 105.206L248.813 114.043L246.738 109.858L251.415 102.652L241.176 97.8849C241.239 101.613 238.359 104.732 234.637 104.967L230.84 105.206Z" fill="#43466B"/>
<path d="M239.34 98.5725L242.046 83.0112C242.26 81.7789 243.432 80.9535 244.665 81.1677L246.136 81.4233C247.368 81.6375 248.194 82.8102 247.979 84.0425L245.274 99.6038C245.06 100.836 243.888 101.661 242.655 101.447L241.184 101.192C239.952 100.978 239.126 99.8048 239.34 98.5725Z" fill="#43466B"/>
<path d="M242.495 104.709L217.84 110.803C216.379 111.164 214.902 110.273 214.541 108.812L214.351 108.043C213.99 106.582 214.881 105.105 216.342 104.744L240.997 98.6494C242.458 98.2883 243.935 99.1799 244.296 100.641L244.486 101.41C244.847 102.871 243.955 104.347 242.495 104.709Z" fill="#43466B"/>
<path d="M232.972 88.1088C233.319 88.7105 233.809 89.2207 234.383 89.61C235.3 90.2324 236.434 90.5453 237.537 90.4218C238.175 90.3523 238.791 90.1514 239.422 90.0417C240.408 89.8684 241.431 89.9262 242.395 90.1947C242.41 90.2153 242.423 90.2345 242.437 90.2554C242.892 90.8949 243.26 91.5952 243.732 92.224C244.303 92.9846 245.101 93.6629 246.049 93.7448C246.152 93.754 246.261 93.7541 246.351 93.7013C246.557 93.5799 246.528 93.2766 246.468 93.0458C246.142 91.7553 245.706 90.4549 245.132 89.237C245.162 89.273 245.194 89.3074 245.225 89.3434C245.828 90.0788 246.248 90.9502 246.819 91.7123C247.392 92.4725 249.029 90.6687 248.669 89.7627C248.909 90.0739 250.678 87.5874 249.492 86.0688C249.815 86.241 251.779 83.5558 249.227 82.3261C248.811 82.1249 248.378 81.9577 247.926 81.83C246.523 81.4315 245.039 81.4369 243.582 81.4923C242.089 81.5504 240.598 81.6592 239.112 81.8198C238.415 81.9091 237.707 81.9835 237.028 82.0895C236.965 82.0984 236.901 82.1089 236.838 82.1193C234.463 82.5131 232.469 83.3561 232.497 86.7474C232.558 87.2233 232.731 87.6905 232.972 88.1088Z" fill="#FFBEA4"/>
<path d="M248.813 89.5293C248.076 88.5755 247.31 87.1096 246.081 86.734C245.956 86.6959 245.883 86.8856 246.008 86.9238C247.182 87.2825 247.946 88.7397 248.657 89.6591C248.737 89.7627 248.893 89.633 248.813 89.5293Z" fill="#FC9171"/>
<path d="M245.257 89.3435C244.899 88.4515 244.143 87.7941 243.208 87.5693C243.082 87.539 243.008 87.7287 243.135 87.7591C244.024 87.9727 244.732 88.5798 245.073 89.4288C245.122 89.5501 245.306 89.4648 245.257 89.3435Z" fill="#FC9171"/>
<path d="M249.593 86.0091C249.016 85.508 248.494 84.9559 248.024 84.3532C247.944 84.25 247.788 84.3799 247.868 84.483C248.349 85.0993 248.885 85.6622 249.475 86.1743C249.573 86.2601 249.691 86.0942 249.593 86.0091Z" fill="#FC9171"/>
<path d="M206.47 50.6491C206.47 50.6491 213.001 62.7619 221.118 68.7583C229.942 75.2776 241.288 81.3565 241.288 81.3565C241.288 81.3565 239.413 86.7532 234.787 90.4656C234.787 90.4656 220.537 83.8671 212.697 79.7049C204.856 75.5426 188.935 65.7836 188.935 65.7836L206.47 50.6491Z" fill="#8A80EE"/>
<path d="M195.638 192.368C195.597 193.671 195.548 194.94 195.544 196.119C195.543 196.822 196.036 197.434 196.724 197.576C198.467 197.938 200.288 197.926 202.08 197.91C207.895 197.857 213.711 197.804 219.528 197.751C220.126 197.746 220.796 197.714 221.131 197.119C221.344 196.74 221.318 196.276 221.122 195.889C220.723 195.108 219.909 194.776 219.133 194.48C215.37 193.048 210.506 192.226 208.473 188.875C206.882 186.256 212.198 173.717 212.194 173.626L203.622 183.658L203.031 183.627L195.098 183.211C195.623 185.224 195.721 187.583 195.694 189.951C195.687 190.761 195.664 191.57 195.638 192.368Z" fill="#736DDC"/>
<path d="M184.253 192.807C184.211 194.109 184.163 195.378 184.159 196.558C184.158 197.261 184.65 197.872 185.339 198.014C187.082 198.376 188.903 198.365 190.694 198.348C196.509 198.296 202.326 198.242 208.143 198.19C208.741 198.184 209.411 198.153 209.746 197.557C209.959 197.179 209.933 196.715 209.737 196.327C209.338 195.546 208.523 195.214 207.748 194.919C203.985 193.487 199.898 192.045 197.087 189.314C196.999 189.228 196.911 189.139 196.824 189.051C196.232 188.44 195.702 187.766 195.25 187.016C194.901 186.436 194.607 185.812 194.439 185.159C194.381 184.934 194.337 184.706 194.313 184.474C194.302 184.385 194.294 184.295 194.29 184.204L192.237 184.097L191.646 184.065L189.861 170.021C190.386 172.034 184.336 188.022 184.309 190.39C184.301 191.199 184.278 192.009 184.253 192.807Z" fill="#8A80EE"/>
<path d="M172.592 98.8449C172.592 98.8449 221.551 104.872 225.914 122.303C232.226 147.522 211.637 183.954 211.637 183.954C211.637 183.954 207.152 185.928 198.988 182.534L203.933 135.984C203.933 135.984 157.554 131.766 152.663 118.907C145.322 99.6104 172.592 98.8449 172.592 98.8449Z" fill="#F25647"/>
<path d="M163.212 101.762C163.212 101.762 216.176 108.834 219.783 123.167C225.914 147.522 199.297 187.612 199.297 187.612C199.297 187.612 192.057 189.402 183.894 186.008C183.894 186.008 191.154 156.511 199.061 138.207C200.969 133.791 140.71 149.965 137.568 122.382C134.093 91.8744 163.212 101.762 163.212 101.762Z" fill="#FF6A51"/>
<path d="M193.32 81.9259C209.12 63.0829 213.244 53.5404 200.833 45.2432C188.142 36.7591 176.952 36.9577 160.596 52.9422C145.165 68.0233 137.824 94.9899 135.489 111.734C135.489 111.734 144.623 121.391 160.453 112.13C178.16 101.771 190.298 101.971 190.298 101.971C190.298 101.971 179.204 98.7601 193.32 81.9259Z" fill="#8A80EE"/>
<path d="M192.202 11.4028C192.202 11.4028 185.068 12.4746 184.768 20.6639C184.5 27.9807 191.654 38.3185 196.742 34.414C199.993 31.9197 193.5 11.8123 192.202 11.4028Z" fill="#262F36"/>
<path d="M193.103 47.5696C187.244 43.5513 186.193 40.8199 187.896 39.335C194.587 33.4937 198.486 26.1302 198.499 26.1165L200.158 29.0787L200.501 29.6864L203.471 34.9886C203.471 34.9886 203.241 35.2925 202.882 35.7908C202.612 36.163 202.273 36.6408 201.896 37.1809C201.539 37.6954 201.154 38.2644 200.773 38.8479C200.535 39.209 200.299 39.5763 200.074 39.9421C199.87 40.2701 199.674 40.5954 199.495 40.9112C199.024 41.7317 198.654 42.478 198.487 43.0295C198.401 43.3142 198.34 43.715 198.252 44.145C197.898 45.9226 197.613 50.6663 193.103 47.5696Z" fill="#FFBEA4"/>
<path d="M198.252 44.1448C197.104 42.4274 194.825 38.1623 196.895 33.7165C196.921 33.6589 196.947 33.6013 196.976 33.5427C196.976 33.5427 197.102 33.8348 197.312 34.3037C197.911 35.6474 199.807 37.492 200.691 38.991C200.487 39.319 199.674 40.5953 199.494 40.911C199.024 41.7316 198.654 42.4779 198.487 43.0294C198.401 43.3141 198.34 43.7148 198.252 44.1448Z" fill="#FC9171"/>
<path d="M193.569 27.8773C193.569 27.8773 194.352 40.563 204.999 40.034C215.471 39.5138 213.226 31.833 211.322 20.8377C210.173 14.2014 191.807 7.92549 193.569 27.8773Z" fill="#FFBEA4"/>
<path d="M194.837 33.9896C196.266 36.2038 197.919 38.2267 200.269 39.5025C200.415 39.5819 200.555 39.3637 200.408 39.284C198.096 38.0287 196.472 36.047 195.066 33.8684C194.977 33.7294 194.746 33.8489 194.837 33.9896Z" fill="#C56146"/>
<path d="M203.171 32.7009C204.359 34.2353 206.221 35.0879 208.112 34.3352C208.252 34.2794 208.173 34.0576 208.032 34.1139C206.234 34.8299 204.492 34.0237 203.364 32.5676C203.272 32.4483 203.078 32.5807 203.171 32.7009Z" fill="#C56146"/>
<path d="M205.94 25.8878C205.651 26.704 205.826 27.4948 206.072 28.3055C206.345 29.2056 207.511 31.1649 206.066 31.5534C205.92 31.5927 206 31.8139 206.145 31.7747C206.851 31.5847 207.276 31.6346 207.118 30.7883C206.832 29.2581 205.588 27.583 206.151 25.9908C206.201 25.8498 205.991 25.7454 205.94 25.8878Z" fill="#C56146"/>
<path d="M204.163 24.5248C204.306 25.1286 203.353 25.4918 202.139 25.7794C200.925 26.0668 199.91 26.1698 199.767 25.5658C199.624 24.9617 200.443 24.0316 201.657 23.7442C202.871 23.4568 204.02 23.9209 204.163 24.5248Z" fill="#C56146"/>
<path d="M211.19 24.2684C211.217 24.8884 210.139 25.0687 208.802 25.1263C207.465 25.1839 206.376 25.0969 206.349 24.4767C206.322 23.8567 207.375 23.0941 208.712 23.0367C210.049 22.9791 211.164 23.6484 211.19 24.2684Z" fill="#C56146"/>
<path d="M203.592 28.2606C203.654 28.8023 203.397 29.2765 203.018 29.3196C202.639 29.3628 202.282 28.9588 202.22 28.4171C202.158 27.8755 202.415 27.4013 202.794 27.3581C203.173 27.315 203.53 27.719 203.592 28.2606Z" fill="#262F36"/>
<path d="M208.701 27.3344C208.762 27.8761 208.505 28.3503 208.126 28.3934C207.748 28.4366 207.39 28.0326 207.329 27.4909C207.267 26.9493 207.524 26.4751 207.903 26.4319C208.282 26.3888 208.639 26.7928 208.701 27.3344Z" fill="#262F36"/>
<path d="M191.587 27.2793C191.976 27.3567 192.331 27.5533 192.721 27.617C193.892 27.8082 195.137 27.5631 196.128 26.9083C197.368 26.0896 198.193 24.5872 197.992 23.1152C197.892 22.3794 197.622 21.6739 197.312 20.999C197.307 20.9876 197.302 20.9761 197.297 20.9647C196.806 19.8707 197.662 18.6271 198.859 18.6993C199.406 18.7323 199.947 18.8358 200.38 18.9685C202.043 19.4775 203.677 20.0806 205.272 20.774C206.324 21.2313 207.431 21.5566 208.567 21.7132C214.206 22.4899 214.517 18.5686 211.943 16.3685C209.732 14.4794 206.625 13.8254 203.721 13.9887C203.721 13.9887 207.645 13.7448 207.324 12.0035C207.004 10.2621 196.477 7.2147 192.202 11.4028C192.202 11.4028 188.122 12.6891 187.442 16.1384C186.761 19.5877 188.326 26.6299 191.587 27.2793Z" fill="#262F36"/>
<path d="M191.428 10.3108C191.428 10.3108 191.696 8.79582 190.966 8.36259C190.237 7.92954 189.835 9.19046 191.428 10.3108Z" fill="#262F36"/>
<path d="M191.398 27.282C192.25 26.0374 194.211 25.8978 195.778 26.9704C197.344 28.043 197.924 29.9216 197.072 31.1664C196.22 32.4111 194.259 32.5505 192.692 31.4779C191.125 30.4051 190.546 28.5266 191.398 27.282Z" fill="#FFBEA4"/>
<path d="M190.903 28.7409C191.044 29.77 191.39 30.7473 192.28 31.3578C193.288 32.0505 194.597 32.4316 195.815 32.3534C195.951 32.3445 195.935 32.133 195.799 32.1418C194.65 32.2157 193.479 31.8622 192.509 31.2475C191.606 30.6757 191.255 29.7477 191.114 28.7251C191.096 28.5903 190.884 28.6051 190.903 28.7409Z" fill="#C56146"/>
<path d="M194.798 28.7075C195.059 28.9558 195.204 29.1682 195.078 29.5534C195.042 29.6621 194.955 29.7571 194.918 29.8717C194.83 30.1477 194.857 30.4225 194.966 30.6875C195.023 30.8269 195.245 30.7488 195.187 30.6083C195.076 30.3381 195.065 30.0435 195.209 29.7821C195.291 29.6315 195.443 29.5124 195.448 29.3266C195.454 29.0231 195.153 28.7219 194.952 28.5297C194.842 28.4248 194.689 28.6033 194.798 28.7075Z" fill="#C56146"/>
<path d="M195.298 26.8404C195.581 26.9666 195.829 27.1492 196.029 27.3871C196.125 27.502 196.32 27.3699 196.222 27.2537C195.997 26.9845 195.722 26.7724 195.401 26.6291C195.263 26.5674 195.16 26.7787 195.298 26.8404Z" fill="#C56146"/>
<path d="M198.527 139.696C199.49 136.651 201.827 135.413 204.733 134.591C204.854 134.557 204.804 134.366 204.682 134.401C201.711 135.241 199.317 136.545 198.338 139.643C198.3 139.764 198.489 139.817 198.527 139.696Z" fill="white"/>
<path d="M184.469 182.56C189.867 184.803 195.897 185.313 201.654 184.464C201.779 184.446 201.727 184.255 201.603 184.274C195.881 185.118 189.887 184.599 184.523 182.371C184.406 182.322 184.353 182.512 184.469 182.56Z" fill="white"/>
<path d="M218.076 98.7594C218.181 99.4997 218.466 100.206 218.883 100.826C219.55 101.816 220.559 102.583 221.711 102.902C222.376 103.089 223.072 103.135 223.747 103.279C224.802 103.501 225.801 103.969 226.657 104.624C226.664 104.651 226.669 104.675 226.674 104.701C226.872 105.523 226.96 106.371 227.179 107.188C227.444 108.178 227.97 109.176 228.884 109.638C228.984 109.688 229.093 109.732 229.204 109.715C229.458 109.676 229.551 109.362 229.584 109.107C229.776 107.687 229.861 106.212 229.776 104.764C229.792 104.813 229.81 104.86 229.826 104.908C230.134 105.885 230.204 106.924 230.469 107.915C230.736 108.905 231.26 109.902 232.175 110.364C232.274 110.415 232.385 110.459 232.494 110.442C232.748 110.403 232.841 110.088 232.876 109.834C233.012 108.81 233.096 107.758 233.1 106.709C233.215 107.116 233.332 107.524 233.484 107.919C233.848 108.876 234.468 109.817 235.425 110.186C235.529 110.225 235.643 110.259 235.752 110.231C236.001 110.166 236.061 109.844 236.07 109.586C236.138 107.509 235.98 105.341 235.404 103.347C235.658 103.649 235.895 103.965 236.098 104.305C236.582 105.119 236.861 106.036 237.309 106.868C237.757 107.702 238.438 108.485 239.357 108.708C239.457 108.733 239.564 108.75 239.659 108.712C239.88 108.622 239.898 108.322 239.874 108.085C239.573 104.992 238.699 101.753 236.641 99.5005C236.307 99.1326 235.941 98.7918 235.54 98.4827C234.298 97.5217 232.813 96.932 231.334 96.4027C229.819 95.8617 228.284 95.3723 226.735 94.9368C226.002 94.7463 225.265 94.5369 224.544 94.3704C224.477 94.3539 224.409 94.3389 224.342 94.3241C221.81 93.765 219.479 93.8076 218.147 97.2083C218.018 97.7085 218.003 98.2449 218.076 98.7594Z" fill="#FFBEA4"/>
<path d="M233.338 106.534C232.984 105.285 232.806 103.512 231.728 102.644C231.619 102.556 231.47 102.716 231.579 102.804C232.608 103.633 232.788 105.396 233.129 106.601C233.168 106.736 233.376 106.669 233.338 106.534Z" fill="#FC9171"/>
<path d="M229.859 104.922C229.859 103.887 229.367 102.926 228.523 102.327C228.409 102.246 228.26 102.406 228.374 102.487C229.177 103.057 229.641 103.948 229.641 104.933C229.641 105.074 229.859 105.063 229.859 104.922Z" fill="#FC9171"/>
<path d="M235.53 103.328C235.154 102.596 234.854 101.835 234.626 101.044C234.587 100.909 234.379 100.976 234.418 101.111C234.651 101.92 234.961 102.698 235.345 103.446C235.41 103.571 235.594 103.453 235.53 103.328Z" fill="#FC9171"/>
<path d="M180.801 48.2371C180.801 48.2371 198.42 74.9593 206.782 80.6082C214.783 86.0125 229.264 95.0094 229.264 95.0094C229.264 95.0094 226.109 101.386 219.473 102.251C219.473 102.251 199.072 95.7687 191.564 91.0324C184.056 86.2962 167.275 68.0676 167.275 68.0676L180.801 48.2371Z" fill="#8A80EE"/>
<path d="M189.438 89.5504C184.572 85.0623 180.082 80.1887 176.008 74.9715C175.901 74.8342 175.71 75.0273 175.816 75.1632C179.891 80.3804 184.381 85.254 189.246 89.7421C189.374 89.8602 189.567 89.669 189.438 89.5504Z" fill="white"/>
<path d="M202.633 76.7355C200.749 74.4601 198.824 72.279 197.22 69.783C195.569 67.2144 194.079 64.5298 192.521 61.9046C192.432 61.7547 192.197 61.891 192.287 62.0414C193.908 64.7716 195.442 67.5841 197.191 70.2346C198.77 72.6285 200.619 74.727 202.441 76.9272C202.552 77.0617 202.743 76.8689 202.633 76.7355Z" fill="white"/>
<path d="M199.964 73.8177C201.301 72.1499 202.288 70.1847 203.11 68.2215C203.914 66.3033 204.686 64.1877 204.662 62.0788C204.66 61.9045 204.389 61.9041 204.391 62.0788C204.414 64.1478 203.649 66.2336 202.861 68.1166C202.054 70.0446 201.086 71.9878 199.772 73.6262C199.664 73.7609 199.855 73.954 199.964 73.8177Z" fill="white"/>
<path d="M187.263 91.4279C183.797 93.3618 180.073 94.7258 176.179 95.4911C176.008 95.5247 176.08 95.786 176.251 95.7525C180.167 94.9827 183.914 93.6068 187.4 91.6619C187.552 91.5769 187.416 91.3427 187.263 91.4279Z" fill="white"/>
<path d="M186.827 91.7729C184.795 93.765 182.58 95.539 180.192 97.086C180.046 97.1805 180.181 97.4152 180.328 97.32C182.736 95.7607 184.97 93.9729 187.019 91.9646C187.143 91.8423 186.951 91.6507 186.827 91.7729Z" fill="white"/>
<path d="M142.238 103.954C153.661 110.054 165.853 100.174 177.554 100.767C177.728 100.776 177.727 100.505 177.554 100.496C171.315 100.18 165.475 102.54 159.565 104.162C153.98 105.695 147.699 106.563 142.375 103.72C142.221 103.638 142.084 103.872 142.238 103.954Z" fill="white"/>
<path d="M177.075 100.213C166.326 98.0614 155.088 107.259 144.75 101.715C144.597 101.632 144.459 101.866 144.613 101.949C155.018 107.529 166.228 98.3175 177.003 100.475C177.173 100.509 177.246 100.248 177.075 100.213Z" fill="white"/>
<path d="M172.112 139.292C173.976 137.302 131.392 140.844 130.173 136.779C127.63 128.3 125.999 114.043 140.456 114.043C161.722 114.043 193.041 113.945 192.407 130.634C191.798 146.647 174.874 160.976 170.286 185.771C170.286 185.771 168.875 195.723 164.399 193.298C161.346 191.644 158.785 186.993 158.785 186.993C164.307 165.203 161.32 150.819 172.112 139.292Z" fill="#FFBEA4"/>
<path d="M113.441 100.887C113.441 100.887 91.1038 130.067 110.711 137.631C110.711 137.631 115.358 138.518 122.621 138.69C137.368 139.039 141.28 138.776 141.28 138.776C141.28 138.776 145.538 137.077 145.171 132.835C143.545 114.043 153.33 114.147 153.33 114.147C153.33 114.147 137.051 112.748 137.162 103.645C137.181 102.091 113.441 100.887 113.441 100.887Z" fill="#FF6A51"/>
<path d="M113.328 89.8633C113.328 89.8633 111.346 98.1435 110.045 99.6614C108.744 101.179 109.523 103.179 111.356 103.859C113.189 104.54 135.114 107.587 137.215 104.546C139.317 101.504 139.193 92.9669 140.641 88.3935C142.09 83.8201 120.296 91.4485 113.328 89.8633Z" fill="#FFBF61"/>
<path d="M170.798 141.23C173.909 137.366 178.489 134.908 183.437 134.494C183.782 134.465 183.785 133.923 183.437 133.952C178.351 134.378 173.618 136.868 170.415 140.847C170.198 141.116 170.579 141.502 170.798 141.23Z" fill="#FC9171"/>
<path d="M153.609 114.121C143.16 112.127 132.452 109.045 121.717 110.067C121.545 110.083 121.543 110.354 121.717 110.338C132.43 109.318 143.108 112.392 153.537 114.383C153.707 114.415 153.78 114.154 153.609 114.121Z" fill="#EB4738"/>
<path d="M139.083 111.254C132.937 111.681 126.931 113.008 121.357 115.679C121.199 115.755 121.337 115.989 121.493 115.913C127.025 113.263 132.985 111.949 139.083 111.525C139.256 111.513 139.258 111.242 139.083 111.254Z" fill="#EB4738"/>
<path d="M141.864 23.1766C142.079 21.3203 141.495 19.5045 140.229 18.1225C138.905 16.6769 136.975 16.2508 135.077 16.3245C133.475 16.3867 132.2 16.2387 130.748 15.5125C129.727 15.0023 128.742 14.4195 127.631 14.1246C125.149 13.4665 122.55 14.0865 120.122 14.6793C119.953 14.7206 120.024 14.982 120.194 14.9407C122.576 14.359 125.124 13.7401 127.559 14.386C129.523 14.9069 131.13 16.3867 133.188 16.6043C134.348 16.7268 135.509 16.4879 136.668 16.6502C137.706 16.7957 138.756 17.1563 139.56 17.8477C141.096 19.1676 141.824 21.1845 141.593 23.1767C141.574 23.3494 141.845 23.3481 141.864 23.1766Z" fill="#262F36"/>
<path d="M141.859 22.1104C140.654 17.1957 133.426 16.1839 127.283 18.3521C121.14 20.5204 114.572 21.6044 115.941 29.4101C117.309 37.2158 128.91 30.333 128.91 30.333H129.754C129.754 30.333 131.113 26.8804 134.727 27.2418C138.341 27.6033 143.063 27.0251 141.859 22.1104Z" fill="#262F36"/>
<path d="M217.916 206.415L194.999 208.587L161.734 211.74C160.648 211.191 159.696 210.374 158.981 209.337L152.593 200.066C151.463 198.429 150.089 196.998 148.534 195.818C148.612 195.81 148.69 195.805 148.771 195.805H178.454L185.27 199.292L217.916 206.415Z" fill="#FF964A"/>
<path d="M193.065 197.916H151.752C150.083 197.916 149.078 199.764 149.985 201.165L156.272 210.873C157.689 213.061 160.206 214.279 162.801 214.033L220.896 208.525L193.065 197.916Z" fill="#FFBF61"/>
<path d="M131.223 28.1115C132.027 26.7476 131.395 25.1664 130.139 24.3302C128.246 23.0707 125.653 23.3555 123.522 22.8538C121.035 22.268 118.994 21.0274 116.75 19.8865C114.656 18.8214 112.66 18.9519 110.409 19.3799C110.238 19.4123 110.311 19.6737 110.481 19.6412C111.604 19.4279 112.749 19.2033 113.897 19.2891C115.04 19.3744 116.064 19.8146 117.058 20.3559C118.582 21.1853 120.043 22.0458 121.694 22.6096C123.419 23.1988 125.154 23.4181 126.952 23.6339C128.965 23.8756 132.593 25.2558 130.989 27.9746C130.9 28.1252 131.134 28.2617 131.223 28.1115Z" fill="#45515A"/>
<path d="M115.718 17.5323C117.591 17.6368 118.395 19.6528 119.855 20.5402C121.289 21.4121 123.061 21.7583 124.688 22.0594C126.484 22.3917 128.319 22.5865 130.082 23.0736C131.153 23.3691 132.348 23.9074 132.711 25.0636C133.109 26.3302 132.102 27.3351 131.139 27.9604C130.993 28.0551 131.129 28.2898 131.276 28.1944C132.443 27.4364 133.546 26.1497 132.853 24.6913C131.979 22.8513 129.428 22.5975 127.676 22.2923C125.257 21.8708 122.627 21.6475 120.401 20.5281C118.68 19.6627 117.806 17.3778 115.719 17.2612C115.544 17.2515 115.545 17.5226 115.718 17.5323Z" fill="#45515A"/>
<path d="M128.631 33.8144C128.044 32.1979 126.052 31.7106 124.501 31.9662C123.36 32.1542 122.467 32.8196 121.481 33.3738C120.153 34.1208 118.72 34.4388 117.201 34.3631C117.027 34.3545 117.027 34.6256 117.201 34.6342C119.042 34.7258 120.635 34.2064 122.194 33.2611C123.128 32.6945 124.06 32.1987 125.183 32.1736C126.423 32.1459 127.91 32.6194 128.37 33.8864C128.429 34.0491 128.691 33.9789 128.631 33.8144Z" fill="#45515A"/>
<path d="M128.739 33.5529C128.225 31.7256 126.589 30.6756 124.717 30.8442C121.85 31.1022 118.826 32.7469 116.294 30.4972C116.164 30.3816 115.972 30.5726 116.102 30.6889C117.614 32.0322 119.602 32.1318 121.514 31.7855C122.848 31.5436 124.201 30.9851 125.573 31.1199C126.996 31.2598 128.094 32.2631 128.478 33.6251C128.525 33.7925 128.787 33.7213 128.739 33.5529Z" fill="#45515A"/>
<path d="M116.955 35.2919C120.386 36.0691 119.589 40.6306 122.476 42.0308C124.31 42.9202 127.398 43.6153 128.832 41.6873C128.936 41.5472 128.701 41.4119 128.598 41.5505C127.632 42.8495 125.823 42.7425 124.413 42.4127C122.674 42.0058 121.397 41.2884 120.703 39.5897C119.943 37.7276 119.239 35.5316 117.027 35.0305C116.857 34.9921 116.784 35.2533 116.955 35.2919Z" fill="#45515A"/>
<path d="M312.418 183.952C312.418 185.034 311.789 186.096 310.636 186.716C310.113 186.996 309.521 187.163 308.908 187.202L305.204 187.436L289.76 188.408L277.091 189.206C273.045 189.461 269.242 190.957 266.375 193.42L259.242 199.55C256.102 202.249 251.842 203.767 247.399 203.767C245.313 203.767 243.62 202.317 243.615 200.524C243.6 191.638 245.864 167.454 270.82 166.04C294.174 164.715 306.956 176.434 311.703 182.063C312.186 182.636 312.418 183.297 312.418 183.952Z" fill="#FFBF61"/>
<path d="M172.81 212.019C172.817 212.019 206.638 209.561 220.896 208.525C224.81 208.241 228.357 206.119 230.46 202.806L256.835 162.448L240.981 167.787L219.579 193.341C217.15 196.241 213.562 197.916 209.779 197.916H160.891L172.81 212.019Z" fill="#FFBF61"/>
<path d="M157.873 195.444C157.842 196.26 158.217 197.478 159.011 197.672C161.02 198.166 163.306 197.743 165.388 197.799C172.144 197.983 178.902 198.166 185.66 198.35C186.355 198.369 187.134 198.361 187.548 197.683C187.811 197.252 187.801 196.713 187.589 196.254C187.159 195.33 186.227 194.91 185.339 194.534C181.028 192.713 176.343 190.866 173.193 187.575C173.094 187.472 172.992 187.369 172.898 187.258C170.586 184.525 171.533 180.401 171.533 180.295C171.533 180.295 169.455 181.729 165.335 181.079C162.242 180.59 160.452 179.415 160.452 179.415C158.884 184.851 157.927 194.074 157.873 195.444Z" fill="#2A2C4B"/>
<path d="M305.204 187.436L289.76 188.407C282.043 183.384 264.168 170.981 273.095 169.333C283.038 167.499 301.165 183.687 305.204 187.436Z" fill="#FFD298"/>
<path d="M149.643 167.094C149.643 167.094 146.243 154.585 136.028 150.976C122.729 146.278 107.696 150.687 106.25 151.699C104.805 152.711 123.192 150.294 131.547 154.445C141.593 159.437 149.96 176.562 149.643 167.094Z" fill="#FFD298"/>
<path d="M102.652 153.861C96.3855 154.626 82.6172 160.806 78.9312 174.899C76.9911 182.317 128.733 186.885 129.526 185.771C130.319 184.656 110.328 177.162 106.685 169.891C102.023 160.589 106.085 153.442 102.652 153.861Z" fill="#FF964A"/>
<path d="M262.39 115.052C262.19 115.53 261.934 115.983 261.592 116.373C259.779 118.443 256.47 117.982 253.822 117.204C250.902 116.347 247.965 115.279 245.613 113.348C243.753 111.82 242.301 109.655 241.911 107.32C241.804 106.703 241.775 106.075 241.83 105.441C242.07 102.74 243.805 100.39 245.813 98.5631C249.492 95.2194 255.697 92.5755 260.666 92.223C263.88 95.1606 263.458 102.034 263.503 106.375C263.531 108.916 263.453 111.488 262.77 113.933C262.665 114.309 262.544 114.687 262.39 115.052Z" fill="#FFBF61"/>
<path d="M262.39 115.052C262.376 115.085 261.206 117.368 260.677 117.559C258.914 118.194 255.634 117.898 253.729 117.262C250.841 116.299 247.962 115.321 245.612 113.348C242.111 110.408 241.873 107.254 241.836 106.761C242.294 106.975 252.741 113.868 258.302 111.664C260.719 110.708 261.866 112.601 262.39 115.052Z" fill="#FF964A"/>
<path d="M260.875 92.2055C259.987 92.2183 259.27 92.9355 259.173 93.8156C258.646 98.6019 256.722 118.165 260.567 117.581C264.685 116.956 266.256 92.128 260.875 92.2055Z" fill="white"/>
<path d="M246.613 117.861L250.113 145.978L247.845 176.204C247.845 176.204 257.378 162.283 265.617 159.918C273.856 157.553 254.713 114.595 246.613 117.861Z" fill="#FFBF61"/>
<path d="M214.848 96.3567C216.761 98.6141 218.664 100.881 220.588 103.129C221.515 104.212 222.476 105.301 223.648 106.127C224.727 106.888 225.937 107.402 227.201 107.771C229.851 108.545 232.657 108.809 235.382 109.214C238.311 109.65 241.241 110.086 244.171 110.522C245.011 110.648 244.971 111.982 244.122 111.856C240.976 111.388 237.829 110.919 234.682 110.451C231.971 110.048 229.17 109.782 226.544 108.968C223.88 108.143 221.837 106.588 220.015 104.509C217.929 102.13 215.917 99.6825 213.871 97.2686C213.319 96.6166 214.293 95.701 214.848 96.3567Z" fill="#39364B"/>
<path d="M207.412 94.3669C208.034 96.1866 209.155 97.9413 210.884 98.7831C212.613 99.6249 215.005 99.2602 216.032 97.6286C216.241 97.314 216.315 96.9259 216.224 96.5604C215.696 94.4293 214.267 92.5312 212.352 91.4545C211.429 90.9358 210.354 90.5977 209.31 90.7847C208.266 90.9716 207.29 91.7888 207.166 92.8415C207.105 93.358 207.245 93.8755 207.412 94.3669Z" fill="#39364B"/>
<path d="M113.506 107.857C114.618 110.178 111.395 111.926 111.003 114.07C110.841 114.954 110.929 115.853 110.925 116.745C110.919 118.146 110.57 119.041 109.618 120.05C109.031 120.673 108.213 122.096 109.366 122.694C109.912 122.978 110.11 122.487 110.577 122.421C111.811 122.245 110.775 123.611 110.588 124.015C110.382 124.463 110.161 124.93 110.014 125.402C109.622 126.656 110.621 127.074 111.716 126.711C112.515 126.446 113.324 126.233 113.922 127.049C114.122 127.321 114.274 127.626 114.487 127.889C114.934 128.441 115.507 128.683 116.207 128.724C117.133 128.778 118.059 128.528 118.987 128.527C120.204 128.526 121.407 128.767 122.577 129.085C124.669 129.655 126.68 130.504 128.806 130.949C134.048 132.046 139.354 129.696 144.568 131.033C144.737 131.076 144.809 130.814 144.64 130.771C140.327 129.665 135.995 131.09 131.645 130.998C127.351 130.907 123.583 128.408 119.32 128.262C118.417 128.231 117.545 128.408 116.647 128.448C115.979 128.477 115.317 128.384 114.832 127.882C114.502 127.539 114.318 127.085 114.015 126.722C113.701 126.344 113.347 126.108 112.84 126.104C112.097 126.097 109.534 127.485 110.34 125.302C110.569 124.684 110.843 124.08 111.142 123.492C111.249 123.283 111.678 122.701 111.685 122.478C111.696 122.179 111.41 122.012 111.151 121.976C110.974 121.95 110.829 121.995 110.665 122.056C110.07 122.278 110.476 122.436 109.663 122.1C109.476 122.023 109.289 121.946 109.103 121.869C109.015 121.493 109.08 121.152 109.298 120.845C109.749 120.113 110.511 119.681 110.863 118.869C111.742 116.841 110.611 114.557 111.892 112.605C112.86 111.129 114.673 109.669 113.74 107.72C113.665 107.563 113.431 107.7 113.506 107.857Z" fill="white"/>
<path d="M108.244 235.446H0C0 235.446 1.0845 227.116 9.57835 227.116C18.0722 227.116 18.2114 232.997 24.8634 222.554C31.5154 212.111 44.8192 215.437 50.2618 224.508C55.7044 233.579 63.5357 216.082 69.598 225.764C75.6602 235.446 108.244 235.446 108.244 235.446Z" fill="white"/>
<path d="M269.234 235.446H203.34C203.34 235.446 204 230.375 209.171 230.375C214.341 230.375 214.426 233.955 218.475 227.598C222.525 221.241 230.624 223.265 233.937 228.787C237.25 234.309 242.017 223.658 245.708 229.552C249.398 235.446 269.234 235.446 269.234 235.446Z" fill="white"/>
<path d="M240.984 167.785C240.982 167.788 240.98 167.788 240.98 167.788C241.896 165.842 242.555 163.804 243.085 161.72C244.774 155.072 242.202 130.539 239.543 116.146C242.581 115.645 246.181 145.138 247.391 154.158C248.582 163.046 241.2 167.652 240.984 167.785Z" fill="#FF964A"/>
<path d="M262.39 154.949C262.142 154.269 254.175 127.085 250.784 125.604C247.393 124.123 254.111 157.502 254.783 158.712C255.455 159.921 262.932 156.434 262.39 154.949Z" fill="#FFD298"/>
<path d="M247.389 100.777C247.389 100.777 256.373 93.7674 257.123 94.977C257.874 96.1866 257.37 98.5264 256.664 99.2212C255.959 99.9158 246.093 101.764 247.389 100.777Z" fill="#FFD298"/>
</svg>
